<svg xmlns="http://www.w3.org/2000/svg" xmlns:xlink="http://www.w3.org/1999/xlink" width="1080" zoomAndPan="magnify" viewBox="0 0 810 809.999993" height="1080" preserveAspectRatio="xMidYMid meet" version="1.0"><defs><clipPath id="f2559ff1b1"><path d="M 81 191 L 724.5 191 L 724.5 691.363281 L 81 691.363281 Z M 81 191 " clip-rule="nonzero"/></clipPath></defs><path fill="#fffbeb" d="M 536.703125 565.480469 C 531.183594 572.023438 524.570312 577.429688 517.097656 581.605469 C 517.039062 581.636719 517.089844 581.726562 517.152344 581.695312 C 524.679688 577.578125 531.265625 572.121094 536.769531 565.542969 C 536.804688 565.5 536.742188 565.4375 536.703125 565.480469 Z M 536.703125 565.480469 " fill-opacity="1" fill-rule="nonzero"/><path fill="#fffbeb" d="M 118.886719 494.480469 C 104.078125 511.472656 99.332031 535.414062 99.605469 557.429688 C 99.609375 557.761719 100.160156 557.867188 100.214844 557.507812 C 103.335938 535.457031 105.039062 513.109375 119.230469 494.824219 C 119.414062 494.582031 119.097656 494.238281 118.886719 494.480469 Z M 118.886719 494.480469 " fill-opacity="1" fill-rule="nonzero"/><path fill="#fffbeb" d="M 95.445312 621.335938 C 95.347656 621.011719 94.847656 621.148438 94.933594 621.476562 C 98.671875 635.347656 106.953125 647.371094 115.695312 658.566406 C 115.921875 658.859375 116.425781 658.476562 116.210938 658.164062 C 108.175781 646.449219 99.6875 635.09375 95.445312 621.335938 Z M 95.445312 621.335938 " fill-opacity="1" fill-rule="nonzero"/><path fill="#fffbeb" d="M 364.339844 497.875 C 353.695312 499.996094 343.316406 506.476562 334.859375 513.015625 C 326.003906 519.863281 318.40625 528.082031 312.617188 537.671875 C 312.109375 538.507812 313.355469 539.1875 313.910156 538.425781 C 320.507812 529.339844 328.203125 520.96875 337.160156 514.164062 C 345.75 507.636719 355.175781 503.554688 364.679688 498.679688 C 365.140625 498.441406 364.804688 497.78125 364.339844 497.875 Z M 364.339844 497.875 " fill-opacity="1" fill-rule="nonzero"/><path fill="#fffbeb" d="M 442.265625 465.316406 C 442.523438 464.964844 442.011719 464.472656 441.660156 464.714844 C 436.183594 468.507812 431.4375 473.628906 426.335938 477.917969 C 420.84375 482.535156 415.195312 486.96875 409.710938 491.597656 C 409.160156 492.0625 409.878906 492.992188 410.484375 492.601562 C 416.375 488.785156 421.894531 484.421875 427.207031 479.839844 C 432.371094 475.382812 438.199219 470.828125 442.265625 465.316406 Z M 442.265625 465.316406 " fill-opacity="1" fill-rule="nonzero"/><path fill="#fffbeb" d="M 453.910156 484.742188 C 454.226562 484.4375 453.796875 483.84375 453.433594 484.121094 C 441.363281 493.292969 429.648438 504.25 420.644531 516.488281 C 420.207031 517.082031 421.144531 517.757812 421.648438 517.261719 C 432.5 506.507812 442.929688 495.382812 453.910156 484.742188 Z M 453.910156 484.742188 " fill-opacity="1" fill-rule="nonzero"/><path fill="#fffbeb" d="M 624.351562 348.011719 C 640.074219 348.511719 655.027344 336.605469 656.875 320.785156 C 658.660156 305.527344 649.019531 289.890625 633.269531 287.730469 C 621.054688 286.050781 609.566406 292.457031 603.679688 302.582031 C 601.230469 306.28125 599.546875 310.457031 598.925781 314.828125 C 596.640625 330.808594 607.671875 347.480469 624.351562 348.011719 Z M 603.988281 307.847656 C 610.261719 295.535156 623.902344 287.234375 637.894531 292.164062 C 655.488281 298.363281 658.515625 322.957031 646.488281 335.601562 C 640.25 342.160156 631.089844 345.644531 622.085938 344.601562 C 611.664062 343.390625 605.074219 335.035156 602.578125 325.238281 C 600.96875 318.917969 601.6875 313.03125 603.988281 307.847656 Z M 603.988281 307.847656 " fill-opacity="1" fill-rule="nonzero"/><path fill="#fffbeb" d="M 625.132812 342.074219 C 638.222656 342.570312 650.558594 332.554688 651.839844 319.375 C 653.019531 307.230469 645.382812 294.9375 632.925781 293.007812 C 622.894531 291.453125 613.5625 296.5625 608.65625 304.75 C 606.546875 307.84375 605.082031 311.363281 604.554688 315.074219 C 602.703125 328.023438 611.648438 341.566406 625.132812 342.074219 Z M 608.566406 309.664062 C 613.4375 299.886719 623.957031 292.890625 635.144531 296.195312 C 649.96875 300.574219 653.539062 320.65625 643.730469 331.523438 C 638.875 336.902344 631.5625 339.957031 624.3125 339.417969 C 615.363281 338.75 609.472656 331.640625 607.484375 323.25 C 606.3125 318.308594 606.84375 313.71875 608.566406 309.664062 Z M 608.566406 309.664062 " fill-opacity="1" fill-rule="nonzero"/><path fill="#fffbeb" d="M 511.125 487.199219 C 502.265625 490.574219 493.242188 492.855469 484.175781 495.527344 C 484.082031 495.558594 484.09375 495.722656 484.203125 495.710938 C 493.472656 494.546875 502.714844 491.191406 511.191406 487.355469 C 511.277344 487.316406 511.214844 487.164062 511.125 487.199219 Z M 511.125 487.199219 " fill-opacity="1" fill-rule="nonzero"/><path fill="#fffbeb" d="M 499.5625 493.820312 C 495.796875 495.183594 491.433594 497.527344 487.394531 497.722656 C 487.246094 497.730469 487.253906 497.929688 487.394531 497.949219 C 489.324219 498.1875 491.496094 497.136719 493.285156 496.539062 C 495.449219 495.816406 497.578125 494.992188 499.644531 494.027344 C 499.761719 493.972656 499.683594 493.777344 499.5625 493.820312 Z M 499.5625 493.820312 " fill-opacity="1" fill-rule="nonzero"/><path fill="#fffbeb" d="M 497.289062 497.441406 C 494.808594 498.007812 492.117188 498.800781 489.808594 499.886719 C 489.722656 499.925781 489.785156 500.042969 489.867188 500.027344 C 492.367188 499.582031 495.015625 498.679688 497.363281 497.714844 C 497.527344 497.644531 497.46875 497.398438 497.289062 497.441406 Z M 497.289062 497.441406 " fill-opacity="1" fill-rule="nonzero"/><path fill="#fffbeb" d="M 496.226562 500.152344 C 494.660156 500.488281 493.003906 501.066406 491.535156 501.714844 C 491.4375 501.757812 491.507812 501.90625 491.605469 501.882812 C 493.175781 501.542969 494.847656 501.023438 496.316406 500.371094 C 496.449219 500.316406 496.347656 500.128906 496.226562 500.152344 Z M 496.226562 500.152344 " fill-opacity="1" fill-rule="nonzero"/><path fill="#fffbeb" d="M 436.863281 411.167969 C 439.789062 404.046875 442.894531 397.140625 446.515625 390.339844 C 446.546875 390.285156 446.460938 390.234375 446.433594 390.289062 C 442.546875 396.871094 439.183594 403.878906 436.714844 411.121094 C 436.679688 411.222656 436.824219 411.257812 436.863281 411.167969 Z M 436.863281 411.167969 " fill-opacity="1" fill-rule="nonzero"/><path fill="#fffbeb" d="M 437.511719 403.003906 C 439.140625 399.511719 441.03125 396.117188 442.566406 392.585938 C 442.570312 392.578125 442.558594 392.574219 442.554688 392.578125 C 440.425781 395.769531 438.84375 399.414062 437.359375 402.9375 C 437.316406 403.027344 437.472656 403.09375 437.511719 403.003906 Z M 437.511719 403.003906 " fill-opacity="1" fill-rule="nonzero"/><path fill="#fffbeb" d="M 436.285156 400.714844 C 437.230469 398.609375 438.199219 396.535156 439.261719 394.488281 C 439.292969 394.429688 439.210938 394.386719 439.179688 394.4375 C 437.898438 396.355469 436.839844 398.453125 436.121094 400.648438 C 436.082031 400.742188 436.242188 400.8125 436.285156 400.714844 Z M 436.285156 400.714844 " fill-opacity="1" fill-rule="nonzero"/><path fill="#fffbeb" d="M 577.625 303.296875 C 577.628906 303.222656 577.503906 303.203125 577.492188 303.28125 C 576.492188 308.191406 574.8125 312.714844 572 316.902344 C 569.007812 321.359375 565.140625 324.746094 561.359375 328.480469 C 561.292969 328.542969 561.382812 328.664062 561.460938 328.609375 C 569.382812 322.898438 576.964844 313.382812 577.625 303.296875 Z M 577.625 303.296875 " fill-opacity="1" fill-rule="nonzero"/><path fill="#fffbeb" d="M 474.070312 226.207031 C 474.304688 219.558594 477.640625 215.1875 481.277344 209.929688 C 483.691406 206.4375 484.847656 202.347656 485.152344 198.132812 C 485.15625 198.046875 485.027344 198.035156 485 198.113281 C 484.316406 200.511719 483.976562 203.003906 483.082031 205.339844 C 481.917969 208.382812 479.820312 210.757812 478.050781 213.445312 C 475.277344 217.65625 473.3125 221.042969 473.828125 226.207031 C 473.84375 226.363281 474.070312 226.367188 474.070312 226.207031 Z M 474.070312 226.207031 " fill-opacity="1" fill-rule="nonzero"/><path fill="#fffbeb" d="M 499.675781 239.84375 C 504.136719 237.714844 508.824219 234.890625 512.175781 231.191406 C 512.273438 231.085938 512.140625 230.886719 512.015625 230.984375 C 507.945312 234.121094 504.125 237.210938 499.550781 239.625 C 499.410156 239.707031 499.53125 239.910156 499.675781 239.84375 Z M 499.675781 239.84375 " fill-opacity="1" fill-rule="nonzero"/><path fill="#fffbeb" d="M 155.386719 407.738281 C 155.59375 407.542969 155.289062 407.246094 155.078125 407.429688 C 144.855469 416.144531 135.601562 426.957031 129.210938 438.816406 C 129.082031 439.054688 129.417969 439.246094 129.570312 439.027344 C 137.238281 427.605469 145.425781 417.261719 155.386719 407.738281 Z M 155.386719 407.738281 " fill-opacity="1" fill-rule="nonzero"/><path fill="#fffbeb" d="M 161.1875 418.234375 C 151.546875 428.203125 142.972656 439.246094 135.316406 450.796875 C 135.199219 450.976562 135.480469 451.136719 135.601562 450.964844 C 143.585938 439.601562 152.292969 428.925781 161.457031 418.507812 C 161.621094 418.320312 161.359375 418.054688 161.1875 418.234375 Z M 161.1875 418.234375 " fill-opacity="1" fill-rule="nonzero"/><path fill="#fffbeb" d="M 146.992188 453.582031 C 157.144531 438.699219 169.070312 426.453125 183.46875 415.664062 C 183.660156 415.519531 183.488281 415.195312 183.273438 415.332031 C 168.390625 424.765625 155.621094 438.238281 146.753906 453.445312 C 146.664062 453.597656 146.890625 453.726562 146.992188 453.582031 Z M 146.992188 453.582031 " fill-opacity="1" fill-rule="nonzero"/><path fill="#fffbeb" d="M 176.347656 441.300781 C 163.574219 453.175781 150.738281 467.878906 143.507812 483.925781 C 143.4375 484.085938 143.644531 484.210938 143.746094 484.066406 C 148.714844 476.957031 153.0625 469.492188 158.34375 462.578125 C 163.980469 455.199219 170.203125 448.273438 176.734375 441.6875 C 176.984375 441.433594 176.605469 441.058594 176.347656 441.300781 Z M 176.347656 441.300781 " fill-opacity="1" fill-rule="nonzero"/><path fill="#fffbeb" d="M 192.636719 450.847656 C 193.222656 450.335938 192.457031 449.339844 191.804688 449.769531 C 178.113281 458.753906 164.304688 474.164062 156.933594 488.867188 C 156.835938 489.058594 157.09375 489.199219 157.21875 489.035156 C 162.664062 481.777344 167.65625 474.363281 173.851562 467.6875 C 179.679688 461.40625 186.25 456.433594 192.636719 450.847656 Z M 192.636719 450.847656 " fill-opacity="1" fill-rule="nonzero"/><path fill="#fffbeb" d="M 200.964844 465.164062 C 188.078125 473.984375 176.289062 485.371094 167.960938 498.652344 C 167.847656 498.835938 168.125 499.0625 168.265625 498.886719 C 178.097656 486.386719 188.550781 475.332031 201.308594 465.757812 C 201.65625 465.496094 201.335938 464.910156 200.964844 465.164062 Z M 200.964844 465.164062 " fill-opacity="1" fill-rule="nonzero"/><path fill="#fffbeb" d="M 227.996094 465.128906 C 211.335938 474.996094 194.234375 488.644531 182.628906 504.257812 C 182.523438 504.402344 182.746094 504.558594 182.867188 504.441406 C 189.851562 497.742188 196.300781 490.621094 203.640625 484.269531 C 211.457031 477.507812 219.78125 471.476562 228.261719 465.578125 C 228.535156 465.390625 228.292969 464.953125 227.996094 465.128906 Z M 227.996094 465.128906 " fill-opacity="1" fill-rule="nonzero"/><path fill="#fffbeb" d="M 199.6875 511.273438 C 199.546875 511.453125 199.761719 511.6875 199.9375 511.527344 C 206.808594 505.332031 213.085938 498.558594 220.117188 492.503906 C 227.628906 486.035156 235.617188 480.238281 243.71875 474.539062 C 244.0625 474.296875 243.753906 473.742188 243.386719 473.96875 C 227.632812 483.765625 211.089844 496.527344 199.6875 511.273438 Z M 199.6875 511.273438 " fill-opacity="1" fill-rule="nonzero"/><path fill="#fffbeb" d="M 211.730469 527.695312 C 211.621094 527.828125 211.796875 528.015625 211.925781 527.886719 C 226.710938 513.171875 242.082031 500.488281 260.328125 490.21875 C 260.589844 490.070312 260.355469 489.679688 260.089844 489.820312 C 242.027344 498.984375 224.59375 511.9375 211.730469 527.695312 Z M 211.730469 527.695312 " fill-opacity="1" fill-rule="nonzero"/><path fill="#fffbeb" d="M 276.570312 498.4375 C 256.003906 509.3125 236.746094 523.992188 221.964844 542.0625 C 221.800781 542.261719 222.066406 542.546875 222.253906 542.351562 C 238.714844 525.480469 256.359375 510.695312 276.808594 498.84375 C 277.066406 498.6875 276.839844 498.292969 276.570312 498.4375 Z M 276.570312 498.4375 " fill-opacity="1" fill-rule="nonzero"/><path fill="#fffbeb" d="M 356.800781 384.800781 C 357.046875 385.222656 357.75 384.945312 357.601562 384.460938 C 355.089844 375.976562 353.246094 367.972656 356.394531 359.308594 C 359.359375 351.160156 366 345.304688 374.070312 342.476562 C 383.191406 339.28125 390.429688 342.09375 398.316406 346.886719 C 403.152344 349.824219 406.976562 356.136719 412.695312 357.167969 C 413.007812 357.222656 413.210938 356.820312 412.917969 356.640625 C 408.820312 354.132812 406.203125 350.082031 402.367188 347.246094 C 398.820312 344.621094 394.585938 342.230469 390.511719 340.550781 C 383.148438 337.507812 375.382812 339.058594 368.460938 342.707031 C 353.980469 350.339844 348.578125 370.753906 356.800781 384.800781 Z M 356.800781 384.800781 " fill-opacity="1" fill-rule="nonzero"/><path fill="#fffbeb" d="M 285.085938 346.230469 C 290.050781 342.40625 290.078125 336.222656 286.976562 331.128906 C 284.527344 327.113281 279.316406 323.15625 274.917969 326.667969 C 274.667969 326.867188 274.988281 327.246094 275.25 327.097656 C 280.269531 324.285156 284.980469 329.296875 286.753906 333.519531 C 288.746094 338.265625 287.335938 342.851562 282.832031 345.445312 C 271.355469 352.058594 269.410156 333.585938 272.820312 326.824219 C 272.933594 326.601562 272.625 326.320312 272.449219 326.539062 C 268.929688 330.945312 268.199219 339.550781 271.21875 344.425781 C 274.304688 349.390625 280.710938 349.605469 285.085938 346.230469 Z M 285.085938 346.230469 " fill-opacity="1" fill-rule="nonzero"/><path fill="#fffbeb" d="M 276.78125 327.742188 C 276.742188 327.71875 276.703125 327.777344 276.730469 327.808594 C 278.730469 330.011719 280.496094 332.304688 281.535156 335.125 C 282.496094 337.730469 282.34375 340.292969 282.683594 342.976562 C 282.710938 343.214844 283.03125 343.285156 283.113281 343.035156 C 283.6875 341.285156 283.664062 339.347656 283.226562 337.429688 C 283.496094 335.8125 283.4375 334.070312 283.605469 332.449219 C 283.617188 332.324219 283.410156 332.300781 283.390625 332.417969 C 283.171875 333.546875 282.910156 334.800781 282.824219 336.023438 C 282.601562 335.359375 282.34375 334.703125 282.035156 334.0625 C 282.332031 332.570312 282.277344 331.015625 282.167969 329.503906 C 282.148438 329.257812 281.769531 329.253906 281.785156 329.503906 C 281.847656 330.804688 281.75 332.097656 281.703125 333.394531 C 281.414062 332.859375 281.113281 332.332031 280.773438 331.832031 C 280.679688 331.140625 280.515625 330.460938 280.464844 329.753906 C 280.417969 329.023438 280.457031 328.28125 280.351562 327.558594 C 280.347656 327.542969 280.332031 327.546875 280.328125 327.558594 C 279.96875 328.519531 279.941406 329.800781 280.140625 330.957031 C 279.132812 329.65625 277.988281 328.539062 276.78125 327.742188 Z M 276.78125 327.742188 " fill-opacity="1" fill-rule="nonzero"/><path fill="#fffbeb" d="M 284.972656 335.167969 C 284.523438 336.667969 283.949219 338.285156 283.820312 339.851562 C 283.808594 340 284.019531 340.003906 284.066406 339.882812 C 284.640625 338.433594 284.84375 336.742188 285.105469 335.203125 C 285.121094 335.121094 284.996094 335.085938 284.972656 335.167969 Z M 284.972656 335.167969 " fill-opacity="1" fill-rule="nonzero"/><path fill="#fffbeb" d="M 284.378906 342.257812 C 284.984375 340.660156 285.382812 338.984375 285.847656 337.34375 C 285.890625 337.191406 285.660156 337.128906 285.609375 337.277344 C 285.0625 338.894531 284.4375 340.503906 284.035156 342.164062 C 283.980469 342.390625 284.300781 342.46875 284.378906 342.257812 Z M 284.378906 342.257812 " fill-opacity="1" fill-rule="nonzero"/><path fill="#fffbeb" d="M 336.371094 271.632812 C 346.433594 281.351562 362.429688 286.273438 374.648438 277.578125 C 374.808594 277.46875 374.667969 277.21875 374.496094 277.320312 C 362.707031 284.058594 348.890625 279.566406 339.125 271.230469 C 334.746094 267.488281 332.023438 262.726562 330.644531 257.148438 C 329.496094 252.484375 327.757812 242.558594 331.332031 238.621094 C 331.402344 238.542969 331.3125 238.398438 331.214844 238.46875 C 327.035156 241.4375 327.820312 250.382812 328.359375 254.792969 C 329.132812 261.1875 331.699219 267.121094 336.371094 271.632812 Z M 336.371094 271.632812 " fill-opacity="1" fill-rule="nonzero"/><path fill="#fffbeb" d="M 352.738281 248.054688 C 353.808594 247.011719 354.695312 245.78125 355.773438 244.734375 C 356.960938 243.585938 358.257812 242.570312 359.628906 241.660156 C 359.773438 241.5625 359.640625 241.328125 359.492188 241.421875 C 356.933594 243.019531 353.980469 245.183594 352.5 247.871094 C 352.421875 248.019531 352.613281 248.175781 352.738281 248.054688 Z M 352.738281 248.054688 " fill-opacity="1" fill-rule="nonzero"/><path fill="#fffbeb" d="M 358.96875 243.734375 C 359.085938 243.65625 358.980469 243.46875 358.859375 243.542969 C 358.074219 244.011719 357.34375 244.550781 356.6875 245.183594 C 356.113281 245.734375 355.417969 246.429688 355.15625 247.199219 C 355.105469 247.347656 355.308594 247.441406 355.410156 247.34375 C 355.992188 246.792969 356.402344 246.039062 356.953125 245.445312 C 357.558594 244.796875 358.234375 244.230469 358.96875 243.734375 Z M 358.96875 243.734375 " fill-opacity="1" fill-rule="nonzero"/><path fill="#fffbeb" d="M 358.851562 245.503906 C 358.359375 245.886719 357.875 246.285156 357.425781 246.71875 C 357.039062 247.089844 356.554688 247.535156 356.335938 248.035156 C 356.28125 248.152344 356.40625 248.339844 356.542969 248.242188 C 356.988281 247.921875 357.339844 247.410156 357.703125 246.996094 C 358.113281 246.527344 358.539062 246.074219 358.992188 245.640625 C 359.078125 245.550781 358.945312 245.425781 358.851562 245.503906 Z M 358.851562 245.503906 " fill-opacity="1" fill-rule="nonzero"/><path fill="#fffbeb" d="M 358.175781 249.234375 C 358.859375 248.574219 359.390625 247.765625 359.96875 247.015625 C 360.070312 246.878906 359.839844 246.699219 359.730469 246.832031 C 359.121094 247.558594 358.453125 248.257812 357.960938 249.070312 C 357.878906 249.203125 358.066406 249.339844 358.175781 249.234375 Z M 358.175781 249.234375 " fill-opacity="1" fill-rule="nonzero"/><path fill="#fffbeb" d="M 176.382812 519.773438 C 172.933594 516.777344 168.628906 514.648438 164.019531 514.472656 C 163.859375 514.464844 163.839844 514.695312 163.984375 514.742188 C 169.015625 516.382812 173.738281 518.351562 177.34375 522.40625 C 180.355469 525.789062 181.832031 530.191406 185.15625 533.3125 C 185.425781 533.566406 185.929688 533.226562 185.695312 532.894531 C 182.566406 528.464844 180.5625 523.40625 176.382812 519.773438 Z M 176.382812 519.773438 " fill-opacity="1" fill-rule="nonzero"/><path fill="#fffbeb" d="M 194.207031 546.609375 C 191.839844 544.042969 190.015625 541.253906 188.339844 538.214844 C 188.277344 538.09375 188.070312 538.171875 188.113281 538.308594 C 190.195312 544.429688 195.691406 549.769531 200.746094 553.570312 C 200.964844 553.734375 201.203125 553.386719 201.03125 553.203125 C 198.832031 550.929688 196.359375 548.941406 194.207031 546.609375 Z M 194.207031 546.609375 " fill-opacity="1" fill-rule="nonzero"/><path fill="#fffbeb" d="M 172.664062 395.601562 C 172.886719 392.960938 172.863281 390.464844 173.394531 387.839844 C 173.792969 385.832031 174.296875 383.828125 174.394531 381.78125 C 174.398438 381.679688 174.296875 381.648438 174.222656 381.675781 C 174.351562 381.316406 174.507812 380.96875 174.679688 380.636719 C 174.800781 380.628906 174.925781 380.574219 175.023438 380.460938 C 175.195312 380.261719 175.371094 380.058594 175.550781 379.851562 C 180.417969 378.523438 185.332031 380.511719 188.296875 384.609375 C 191.394531 388.890625 191.40625 392.964844 188.78125 397.070312 C 186.890625 398.230469 184.699219 398.71875 182.550781 400.074219 C 181.804688 400.542969 181.035156 402.027344 180.226562 402.304688 C 177.09375 403.382812 174.054688 398.734375 172.335938 396.960938 C 171.992188 396.605469 171.441406 397.054688 171.667969 397.476562 C 172.976562 399.917969 174.679688 405.183594 177.371094 406.359375 C 180.171875 407.578125 181.746094 405.195312 183.6875 403.792969 C 186.472656 401.789062 189.589844 402.097656 192.210938 399.433594 C 194.796875 396.804688 196.40625 393.289062 196.941406 389.664062 C 199.023438 375.582031 179.304688 362.203125 174.039062 379.878906 C 173.984375 380.0625 174.035156 380.230469 174.136719 380.363281 C 173.667969 381.496094 173.453125 382.785156 173.402344 383.882812 C 172.121094 387.609375 170.792969 392.222656 172.097656 395.675781 C 172.214844 395.984375 172.636719 395.933594 172.664062 395.601562 Z M 172.664062 395.601562 " fill-opacity="1" fill-rule="nonzero"/><path fill="#fffbeb" d="M 198.804688 394.597656 C 198.765625 394.746094 198.984375 394.847656 199.058594 394.703125 C 203.539062 385.820312 196.886719 372.097656 187.238281 369.707031 C 187.105469 369.675781 187.011719 369.875 187.144531 369.933594 C 196.285156 374.0625 201.550781 385.007812 198.804688 394.597656 Z M 198.804688 394.597656 " fill-opacity="1" fill-rule="nonzero"/><path fill="#fffbeb" d="M 181.265625 383.921875 C 182.332031 384.523438 183.292969 385.273438 184.109375 386.183594 C 184.875 387.035156 185.339844 388.0625 186.046875 388.945312 C 186.175781 389.105469 186.410156 388.925781 186.371094 388.757812 C 185.863281 386.5 183.390625 384.605469 181.449219 383.613281 C 181.246094 383.511719 181.066406 383.808594 181.265625 383.921875 Z M 181.265625 383.921875 " fill-opacity="1" fill-rule="nonzero"/><path fill="#fffbeb" d="M 184.632812 384.960938 C 185.160156 385.476562 185.59375 386.144531 186.15625 386.613281 C 186.269531 386.710938 186.496094 386.621094 186.433594 386.453125 C 186.167969 385.75 185.507812 385.125 184.9375 384.660156 C 184.457031 384.261719 183.769531 383.613281 183.125 383.574219 C 183.097656 383.574219 183.074219 383.609375 183.089844 383.636719 C 183.242188 383.867188 183.429688 383.964844 183.652344 384.128906 C 183.996094 384.386719 184.324219 384.664062 184.632812 384.960938 Z M 184.632812 384.960938 " fill-opacity="1" fill-rule="nonzero"/><path fill="#fffbeb" d="M 362.144531 365.230469 C 362.113281 365.351562 362.285156 365.398438 362.332031 365.28125 C 364.222656 360 365.855469 355.226562 370.644531 351.859375 C 370.691406 351.832031 370.652344 351.761719 370.605469 351.789062 C 365.792969 354.449219 363.328125 360.101562 362.144531 365.230469 Z M 362.144531 365.230469 " fill-opacity="1" fill-rule="nonzero"/><path fill="#fffbeb" d="M 366.015625 353.800781 C 364.15625 356.074219 362.535156 358.917969 361.886719 361.808594 C 361.859375 361.914062 362.003906 361.945312 362.042969 361.851562 C 363.210938 359 364.351562 356.414062 366.066406 353.839844 C 366.089844 353.808594 366.042969 353.773438 366.015625 353.800781 Z M 366.015625 353.800781 " fill-opacity="1" fill-rule="nonzero"/><path fill="#fffbeb" d="M 401.492188 359.160156 C 399.5625 357.113281 397.007812 355.882812 394.976562 353.957031 C 394.921875 353.90625 394.855469 353.976562 394.898438 354.03125 C 397.621094 357.464844 401.40625 359.3125 403.570312 363.320312 C 405.734375 367.328125 406.292969 371.980469 405.472656 376.429688 C 405.449219 376.570312 405.644531 376.628906 405.683594 376.488281 C 406.875 372.457031 406.585938 368.3125 404.925781 364.449219 C 404.09375 362.507812 402.945312 360.707031 401.492188 359.160156 Z M 401.492188 359.160156 " fill-opacity="1" fill-rule="nonzero"/><path fill="#fffbeb" d="M 341.726562 428.332031 C 341.683594 428.308594 341.640625 428.3125 341.597656 428.3125 C 341.601562 428.296875 341.605469 428.28125 341.609375 428.269531 C 341.617188 428.210938 341.550781 428.15625 341.503906 428.207031 C 340.976562 428.730469 340.621094 429.445312 340.242188 430.082031 C 339.945312 430.585938 339.605469 431.117188 339.707031 431.730469 C 339.851562 432.621094 340.855469 433.195312 341.707031 433.058594 C 342.667969 432.898438 343.261719 431.9375 343.3125 431.019531 C 343.378906 429.914062 342.675781 428.851562 341.726562 428.332031 Z M 341.445312 432.222656 C 341.136719 432.230469 340.769531 432.042969 340.609375 431.773438 C 340.335938 431.316406 340.683594 430.773438 340.859375 430.34375 C 340.917969 430.195312 340.988281 430.046875 341.050781 429.894531 C 340.984375 430.695312 341.15625 431.625 341.652344 432.179688 C 341.589844 432.203125 341.519531 432.222656 341.445312 432.222656 Z M 341.957031 432.0625 C 341.792969 431.671875 341.554688 431.304688 341.441406 430.875 C 341.316406 430.394531 341.300781 429.90625 341.320312 429.417969 C 341.417969 429.261719 341.515625 429.105469 341.625 428.953125 C 342.019531 429.386719 342.410156 429.835938 342.546875 430.421875 C 342.675781 430.988281 342.46875 431.742188 341.957031 432.0625 Z M 341.957031 432.0625 " fill-opacity="1" fill-rule="nonzero"/><path fill="#fffbeb" d="M 192.964844 444.90625 C 192.742188 448.757812 195.546875 452.6875 197.511719 455.792969 C 199.535156 458.996094 202 462.140625 205.367188 464.015625 C 211.925781 467.664062 222.972656 465.207031 227.128906 458.808594 C 228.503906 456.691406 229.304688 454.136719 229.808594 451.535156 C 230.925781 448.621094 231.601562 445.515625 231.273438 442.425781 C 230.992188 439.757812 229.921875 437.433594 228.507812 435.277344 C 228.507812 435.273438 228.507812 435.273438 228.507812 435.273438 C 225.765625 427.605469 217.214844 425.429688 209.988281 427.828125 C 205.878906 429.1875 202.15625 431.683594 199.078125 434.699219 C 196.375 437.328125 193.195312 440.9375 192.964844 444.90625 Z M 203.421875 433.503906 C 208.898438 429.40625 217.421875 427.105469 223.433594 430.417969 C 225.640625 432.691406 226.792969 435.796875 228.324219 438.636719 C 229.046875 441.183594 229.144531 443.867188 228.847656 446.644531 C 228.394531 450.890625 227.640625 456.335938 224.429688 459.445312 C 221.070312 462.703125 214.6875 464.53125 210.121094 463.757812 C 205.765625 463.019531 202.535156 459.773438 200.125 456.28125 C 197.96875 453.164062 194.292969 448.21875 194.980469 444.285156 C 195.738281 439.980469 200.078125 436.003906 203.421875 433.503906 Z M 203.421875 433.503906 " fill-opacity="1" fill-rule="nonzero"/><path fill="#fffbeb" d="M 210.109375 458.53125 C 213.582031 459.789062 218.554688 458.765625 221.484375 456.550781 C 222.644531 455.671875 222.96875 454.8125 223.355469 453.460938 C 224.089844 450.917969 224.570312 448.132812 224.703125 445.484375 C 224.878906 442.066406 224.28125 438.503906 222.230469 435.683594 C 218.175781 430.121094 211.589844 433.003906 206.476562 436.464844 C 203.953125 437.578125 201.839844 439.558594 200.417969 441.941406 C 198.296875 445.488281 199.359375 447.617188 201.742188 450.640625 C 203.972656 453.46875 206.582031 457.257812 210.109375 458.53125 Z M 211.675781 434.296875 C 214.929688 432.988281 218.195312 432.621094 220.570312 434.96875 C 222.886719 437.265625 223.84375 440.59375 223.925781 443.78125 C 223.972656 445.652344 223.730469 447.496094 223.410156 449.332031 C 223.097656 451.097656 222.792969 454.183594 221.546875 455.472656 C 219.359375 457.734375 214.320312 458.535156 211.390625 457.90625 C 210.847656 457.789062 210.339844 457.582031 209.847656 457.347656 C 209.21875 456.90625 208.683594 456.339844 208.195312 455.714844 C 208.191406 455.703125 208.195312 455.695312 208.191406 455.683594 C 207.757812 454.78125 207.214844 453.953125 206.652344 453.144531 C 206.269531 452.304688 205.960938 451.425781 205.695312 450.546875 C 205.597656 450.140625 205.480469 449.738281 205.355469 449.335938 C 205.109375 448.375 204.917969 447.425781 204.78125 446.558594 C 203.878906 440.765625 207.503906 437.425781 211.675781 434.296875 Z M 211.675781 434.296875 " fill-opacity="1" fill-rule="nonzero"/><path fill="#fffbeb" d="M 224.949219 449.390625 C 224.933594 449.460938 225.039062 449.492188 225.054688 449.421875 C 226.503906 444.441406 225.886719 438.832031 223.277344 434.335938 C 223.265625 434.320312 223.25 434.332031 223.253906 434.347656 C 225.390625 439.324219 225.96875 444.050781 224.949219 449.390625 Z M 224.949219 449.390625 " fill-opacity="1" fill-rule="nonzero"/><path fill="#fffbeb" d="M 225.984375 442.785156 C 225.996094 442.875 226.140625 442.871094 226.15625 442.785156 C 226.542969 441.234375 226.085938 439.367188 225.453125 437.9375 C 225.425781 437.867188 225.316406 437.917969 225.335938 437.988281 C 225.554688 438.878906 225.75 439.765625 225.839844 440.679688 C 225.910156 441.375 225.878906 442.085938 225.984375 442.785156 Z M 225.984375 442.785156 " fill-opacity="1" fill-rule="nonzero"/><path fill="#fffbeb" d="M 226.359375 441.980469 C 226.363281 442.089844 226.542969 442.128906 226.566406 442.007812 C 226.730469 440.984375 226.648438 439.683594 226.152344 438.757812 C 226.144531 438.746094 226.117188 438.75 226.117188 438.769531 C 226.136719 439.304688 226.261719 439.828125 226.300781 440.363281 C 226.335938 440.898438 226.332031 441.4375 226.359375 441.980469 Z M 226.359375 441.980469 " fill-opacity="1" fill-rule="nonzero"/><path fill="#fffbeb" d="M 209.347656 447.285156 C 209.921875 443.3125 210.574219 440 213.316406 436.902344 C 213.339844 436.875 213.308594 436.828125 213.277344 436.851562 C 210.132812 439.195312 209.261719 443.558594 209.113281 447.253906 C 209.109375 447.386719 209.332031 447.421875 209.347656 447.285156 Z M 209.347656 447.285156 " fill-opacity="1" fill-rule="nonzero"/><path fill="#fffbeb" d="M 212.433594 439.5 C 211.4375 441.03125 210.925781 442.902344 210.859375 444.710938 C 210.855469 444.792969 210.992188 444.816406 211.003906 444.730469 C 211.28125 442.882812 211.800781 441.253906 212.5 439.527344 C 212.511719 439.488281 212.449219 439.46875 212.433594 439.5 Z M 212.433594 439.5 " fill-opacity="1" fill-rule="nonzero"/><path fill="#fffbeb" d="M 212.453125 443.558594 C 212.8125 442.503906 213.183594 441.527344 213.6875 440.527344 C 213.714844 440.476562 213.648438 440.441406 213.617188 440.484375 C 212.972656 441.34375 212.472656 442.457031 212.320312 443.523438 C 212.308594 443.605469 212.425781 443.644531 212.453125 443.558594 Z M 212.453125 443.558594 " fill-opacity="1" fill-rule="nonzero"/><path fill="#fffbeb" d="M 213.851562 444.445312 C 214.195312 443.535156 214.496094 442.609375 214.886719 441.714844 C 214.925781 441.625 214.792969 441.542969 214.75 441.636719 C 214.34375 442.535156 213.953125 443.449219 213.730469 444.414062 C 213.710938 444.492188 213.824219 444.523438 213.851562 444.445312 Z M 213.851562 444.445312 " fill-opacity="1" fill-rule="nonzero"/><path fill="#fffbeb" d="M 229.660156 400.1875 C 230.292969 399.882812 230.792969 399.167969 231.300781 398.714844 C 232.316406 397.808594 233.296875 397.304688 234.5625 396.871094 C 235.402344 396.585938 236.789062 396.308594 237.023438 395.269531 C 237.253906 394.261719 235.960938 393.296875 235.402344 392.683594 C 234.8125 392.039062 234.386719 391.101562 233.484375 391.609375 C 232.679688 392.0625 232.160156 393.171875 231.800781 394.171875 C 231.011719 395.191406 230.222656 396.203125 229.40625 397.203125 C 228.9375 397.777344 227.582031 398.8125 227.914062 399.722656 C 228.175781 400.453125 229.085938 400.464844 229.660156 400.1875 Z M 229.660156 400.1875 " fill-opacity="1" fill-rule="nonzero"/><g clip-path="url(#f2559ff1b1)"><path fill="#fffbeb" d="M 723.113281 245.84375 C 722.945312 245.667969 722.753906 245.496094 722.542969 245.332031 C 722.59375 245.132812 722.542969 244.914062 722.320312 244.8125 C 721.347656 244.355469 720.371094 243.925781 719.382812 243.519531 C 716.734375 241.859375 712.957031 240.828125 709.328125 240.144531 C 685.148438 233.902344 658.742188 239.464844 634.902344 245.324219 C 619.75 249.046875 604.890625 253.769531 590.535156 259.90625 C 579.785156 264.503906 568.179688 269.804688 558.203125 276.691406 C 558.199219 276.6875 558.199219 276.6875 558.195312 276.683594 C 553.070312 272.808594 547.476562 269.523438 542.042969 266.097656 C 537.550781 263.265625 533.058594 260.050781 528.125 258.03125 C 528.519531 257.589844 528.910156 257.152344 529.304688 256.703125 C 534.242188 251.082031 537.730469 244.476562 542.019531 238.390625 C 544.804688 234.441406 547.792969 230.988281 551.65625 228.078125 C 553.976562 226.324219 556.683594 224.769531 558.257812 222.234375 C 560.132812 219.203125 560.292969 215.402344 557.773438 213.011719 C 559.550781 208.433594 559.773438 203.144531 556.414062 199.722656 C 551.011719 194.214844 544.84375 203.125 542.257812 207.277344 C 539.195312 212.207031 536.835938 217.5 532.207031 221.203125 C 527.867188 224.679688 522.964844 227.277344 518.777344 230.988281 C 518.207031 231.492188 517.636719 232.011719 517.070312 232.546875 C 516.957031 216.214844 506.8125 200.394531 491.679688 194.007812 C 475.941406 187.363281 457.449219 192.953125 446.800781 205.980469 C 436.507812 218.570312 433.277344 237.253906 440.152344 252.210938 C 445.464844 263.753906 459.507812 273.371094 472.214844 269.433594 C 472.085938 269.542969 471.960938 269.65625 471.835938 269.769531 C 469.699219 270.347656 468.453125 271.949219 467.820312 273.933594 C 467.777344 273.984375 467.734375 274.027344 467.699219 274.074219 C 467.597656 274.203125 467.617188 274.332031 467.679688 274.4375 C 467.21875 276.191406 467.171875 278.171875 467.363281 279.972656 C 468.304688 288.804688 470.691406 298.066406 473.570312 306.457031 C 474.847656 310.171875 476.335938 313.828125 478.128906 317.324219 C 479.554688 320.109375 481.351562 324.734375 483.933594 326.546875 C 484.628906 327.03125 485.398438 327.257812 486.210938 327.292969 C 486.355469 328.332031 486.667969 329.347656 487.058594 330.335938 C 487.316406 333.117188 488.34375 335.273438 489.886719 336.90625 C 488.960938 337.546875 488.058594 338.246094 487.183594 338.992188 C 475.589844 314.972656 459.085938 293.445312 439.253906 276.03125 C 420.078125 259.078125 397.574219 245.957031 373.4375 237.628906 C 349.304688 229.285156 323.582031 225.730469 298.15625 227.089844 C 272.261719 228.445312 246.664062 234.949219 223.332031 246.179688 C 199.984375 257.371094 178.921875 273.234375 161.722656 292.535156 C 144.496094 311.804688 131.105469 334.480469 122.628906 358.878906 C 114.117188 383.273438 110.582031 409.34375 112.078125 435.105469 C 112.910156 449.832031 115.441406 464.457031 119.570312 478.617188 C 111.414062 486.269531 105.214844 496.390625 100.433594 506.382812 C 95.304688 517.105469 91.609375 528.519531 89.613281 540.234375 C 88.15625 548.765625 87.578125 557.609375 87.9375 566.4375 C 84.914062 572.371094 83.652344 579.773438 82.683594 586.21875 C 81.660156 593.039062 81.195312 599.941406 81.367188 606.84375 C 81.714844 620.617188 83.808594 636.324219 91.648438 648.011719 C 95.261719 653.398438 100.011719 657.855469 105.046875 661.886719 C 110.339844 666.128906 115.871094 670.449219 121.789062 673.777344 C 128.023438 677.28125 135.113281 679.230469 141.988281 681.03125 C 147.933594 682.585938 154.171875 683.894531 160.367188 684.226562 C 170.585938 688.207031 181.433594 690.578125 192.394531 691.078125 C 204.085938 691.613281 215.910156 690.109375 227.113281 686.734375 C 232.5625 685.09375 237.84375 682.8125 242.867188 680.148438 C 246.546875 678.199219 250.660156 676.15625 253.734375 673.21875 C 265.941406 670.9375 277.917969 667.585938 289.371094 662.761719 C 300.011719 658.277344 310.195312 652.574219 319.179688 645.289062 C 323.671875 641.652344 327.980469 637.675781 331.644531 633.191406 C 331.703125 633.121094 331.765625 633.042969 331.824219 632.972656 C 331.929688 633.191406 332.132812 633.367188 332.453125 633.421875 C 353.011719 636.925781 375.503906 628.945312 391.652344 616.394531 C 402.449219 608.003906 411.289062 597.082031 417.875 584.980469 C 429.148438 577.179688 439.605469 568.21875 448.964844 558.226562 C 457.070312 549.589844 464.65625 540 471.332031 529.628906 C 474.5 524.710938 477.4375 519.605469 480.15625 514.375 C 484.257812 529.929688 488.382812 545.476562 492.492188 561.035156 C 492.710938 561.867188 493.71875 562.527344 494.570312 562.21875 C 506.449219 557.863281 518.199219 553.175781 529.792969 548.109375 C 533.496094 546.488281 536.722656 545.445312 537.234375 541.082031 C 537.875 535.664062 536.542969 529.714844 536.769531 524.191406 C 537.730469 500.695312 546.953125 478.535156 560.84375 459.78125 C 577.496094 449.996094 593.371094 438.777344 608.484375 426.679688 C 644.6875 397.707031 678.847656 364.253906 699.863281 322.351562 C 709.171875 303.792969 718.226562 282.921875 721.109375 261.785156 C 722.476562 257.488281 723.519531 253.03125 723.996094 248.808594 C 724.1875 247.128906 724.207031 246.996094 723.113281 245.84375 Z M 493.660156 341.476562 C 493.976562 341.277344 494.222656 340.980469 494.371094 340.636719 C 494.539062 340.4375 494.707031 340.238281 494.875 340.042969 C 499.769531 341.796875 506.003906 341.441406 510.71875 340.058594 C 523.605469 336.28125 534.589844 326.632812 544.132812 317.597656 C 544.164062 317.566406 544.171875 317.535156 544.195312 317.5 C 545.328125 319.289062 546.371094 321.132812 547.113281 323.101562 C 548.191406 325.960938 548.25 329.148438 549.429688 331.957031 C 550.539062 334.578125 552.363281 336.464844 555.238281 336.707031 C 564.152344 337.46875 572.761719 326.371094 576.910156 319.824219 C 580.296875 314.476562 585.71875 302.527344 579.125 297.390625 C 573.972656 293.375 567.613281 297.859375 564.078125 302.757812 C 564.515625 295.453125 562.214844 287.703125 556.546875 283.992188 C 566.214844 278.222656 575.273438 271.523438 585.195312 266.105469 C 588.152344 264.492188 591.148438 262.992188 594.167969 261.550781 C 609.027344 256.359375 623.585938 250.734375 638.949219 246.984375 C 649.527344 244.40625 660.191406 242.824219 670.894531 241.371094 C 677.4375 240.84375 683.972656 240.429688 690.628906 240.792969 C 688.613281 254.578125 702.367188 268.140625 714.585938 272.417969 C 713.269531 276.191406 712.074219 280.023438 710.53125 283.726562 C 708.246094 289.21875 706.46875 294.75 704.632812 300.394531 C 702.738281 306.226562 699.832031 311.59375 697.097656 317.054688 C 695.167969 320.910156 693.296875 324.796875 691.429688 328.6875 C 687.644531 334.164062 683.804688 339.601562 680.089844 345.132812 C 673.953125 354.269531 667.507812 363.085938 660.625 371.609375 C 660.570312 371.660156 660.511719 371.710938 660.457031 371.761719 C 654.777344 377.109375 649.09375 382.453125 643.453125 387.839844 C 634.4375 396.449219 624.730469 404.8125 616.117188 413.949219 C 616.054688 414 615.992188 414.050781 615.929688 414.101562 C 609.210938 418.789062 602.605469 423.625 596.089844 428.585938 C 585.253906 436.835938 574.738281 445.34375 563.578125 453.085938 C 563.054688 453.375 562.53125 453.667969 562.011719 453.953125 C 553.78125 458.472656 544.820312 462.304688 536.632812 467.097656 C 530.871094 469.171875 525.238281 471.785156 519.613281 474.359375 C 517.683594 475.039062 515.742188 475.710938 513.792969 476.359375 C 507.589844 478.429688 501.375 480.46875 495.136719 482.429688 C 491.539062 483.5625 487.828125 485.003906 484.074219 486.160156 C 483.433594 485.042969 482.730469 483.96875 481.964844 482.933594 C 477.582031 473.855469 470.167969 465.351562 463.882812 458.023438 C 456.738281 449.6875 448.378906 440.308594 438.824219 434.292969 C 437.945312 433.523438 437.085938 432.675781 436.765625 431.644531 C 440.554688 420.984375 444.972656 410.617188 450.363281 400.578125 C 457.953125 386.449219 467.347656 373.527344 477.3125 360.996094 C 482.601562 354.347656 488.164062 347.949219 493.660156 341.476562 Z M 555.964844 283.644531 C 555.949219 283.636719 555.9375 283.625 555.921875 283.621094 C 556.003906 283.570312 556.089844 283.515625 556.175781 283.460938 C 556.105469 283.519531 556.035156 283.582031 555.964844 283.644531 Z M 442.328125 415.328125 C 442.371094 415.261719 442.414062 415.195312 442.453125 415.132812 C 442.296875 415.492188 442.148438 415.855469 441.988281 416.214844 C 442.105469 415.917969 442.210938 415.625 442.328125 415.328125 Z M 481.769531 486.824219 C 479.621094 487.40625 477.460938 487.839844 475.296875 488.046875 C 474.472656 486.980469 473.628906 485.917969 472.769531 484.867188 C 473.546875 484.726562 474.300781 483.953125 474.875 483.511719 C 475.878906 482.734375 476.882812 481.960938 477.859375 481.15625 C 479.101562 483.09375 480.375 485.015625 481.769531 486.824219 Z M 472.125 479.984375 C 471.691406 480.355469 470.761719 481.007812 470.128906 481.714844 C 468.460938 479.78125 466.753906 477.871094 465.027344 475.988281 C 465.84375 475.230469 466.578125 474.339844 467.390625 473.605469 C 468.511719 472.585938 469.726562 471.714844 470.933594 470.816406 C 471.738281 471.921875 472.542969 473.03125 473.328125 474.15625 C 474.082031 475.234375 474.808594 476.34375 475.523438 477.464844 C 474.300781 478.171875 473.167969 479.101562 472.125 479.984375 Z M 465.128906 469.539062 C 464.019531 470.398438 462.738281 471.402344 461.882812 472.609375 C 460.714844 471.363281 459.550781 470.125 458.390625 468.890625 C 459.363281 467.886719 460.207031 466.746094 461.234375 465.789062 C 462.375 464.722656 463.609375 463.832031 464.914062 463.007812 C 466.109375 464.480469 467.277344 465.976562 468.433594 467.484375 C 467.207031 467.859375 466.132812 468.757812 465.128906 469.539062 Z M 458.046875 462.960938 C 457.347656 463.625 456.015625 464.652344 455.4375 465.75 C 453.585938 463.761719 451.722656 461.742188 449.824219 459.710938 C 451.449219 458.699219 452.789062 456.894531 454.117188 455.605469 C 454.855469 454.886719 455.636719 454.183594 456.367188 453.449219 C 458.144531 455.238281 459.890625 457.066406 461.546875 458.984375 C 461.753906 459.222656 461.945312 459.464844 462.148438 459.699219 C 460.667969 460.628906 459.3125 461.765625 458.046875 462.960938 Z M 449.140625 458.984375 C 449.191406 458.964844 449.246094 458.957031 449.296875 458.9375 C 449.273438 458.984375 449.25 459.03125 449.230469 459.078125 C 449.199219 459.046875 449.171875 459.019531 449.140625 458.984375 Z M 450.390625 452.792969 C 449.230469 453.867188 447.625 455.027344 446.675781 456.410156 C 445.066406 454.753906 443.433594 453.121094 441.753906 451.554688 C 443 450.898438 444.160156 449.65625 445.089844 448.792969 C 446.167969 447.792969 447.257812 446.753906 448.167969 445.589844 C 449.828125 447.125 451.476562 448.671875 453.113281 450.238281 C 452.078125 450.953125 451.148438 452.089844 450.390625 452.792969 Z M 445.105469 442.75 C 445.0625 442.792969 445.027344 442.832031 444.984375 442.878906 C 444.066406 443.832031 443.136719 444.765625 442.1875 445.683594 C 441.3125 446.53125 440.425781 447.367188 439.546875 448.210938 C 439.273438 448.472656 439.023438 448.691406 438.816406 448.921875 C 437.058594 447.410156 435.246094 446 433.375 444.6875 C 433.257812 444.347656 433.109375 444.023438 432.960938 443.703125 C 433.429688 441.953125 433.925781 440.207031 434.429688 438.46875 C 434.949219 436.902344 435.476562 435.335938 436.019531 433.773438 C 436.03125 433.792969 436.050781 433.804688 436.066406 433.824219 C 436.078125 433.84375 436.089844 433.863281 436.105469 433.878906 C 437.199219 435.105469 438.421875 436.363281 439.714844 437.582031 C 441.484375 439.332031 443.28125 441.050781 445.105469 442.75 Z M 476.832031 490.101562 C 477.003906 490.136719 477.179688 490.175781 477.355469 490.210938 C 477.253906 490.273438 477.15625 490.339844 477.066406 490.414062 C 476.984375 490.3125 476.910156 490.207031 476.832031 490.101562 Z M 466.679688 368.605469 C 466.917969 368.242188 467.15625 367.878906 467.394531 367.511719 C 467.375 367.566406 467.34375 367.617188 467.324219 367.671875 C 467.257812 367.792969 467.1875 367.921875 467.125 368.046875 C 466.972656 368.230469 466.828125 368.421875 466.679688 368.605469 Z M 411.859375 384.089844 C 408.882812 384.699219 405.878906 385.203125 402.863281 385.613281 C 405.171875 385.277344 407.476562 384.90625 409.773438 384.488281 C 410.46875 384.359375 411.167969 384.21875 411.859375 384.089844 Z M 366.207031 417.464844 C 366.121094 417.449219 366.027344 417.433594 365.941406 417.421875 C 366.058594 417.316406 366.179688 417.226562 366.292969 417.117188 C 366.261719 417.234375 366.234375 417.351562 366.207031 417.464844 Z M 364.8125 417.25 C 364.804688 417.25 364.796875 417.246094 364.789062 417.246094 C 364.816406 417.195312 364.84375 417.148438 364.871094 417.101562 C 364.851562 417.152344 364.832031 417.199219 364.8125 417.25 Z M 366.742188 417.546875 C 370.246094 412.082031 372.730469 405.824219 375.796875 400.113281 C 377.433594 397.0625 379.132812 394.042969 380.917969 391.074219 C 381.214844 390.585938 381.582031 390.09375 381.90625 389.585938 C 388.5 390.5625 395.535156 389.835938 402.027344 389.011719 C 410.289062 387.964844 418.359375 385.851562 426.246094 383.222656 C 440 378.640625 453.761719 372.382812 466.367188 365.035156 C 461.824219 371.632812 457.621094 378.464844 453.742188 385.480469 C 444.046875 403.027344 436.53125 421.675781 431.164062 440.976562 C 430.210938 439.882812 429.085938 438.910156 427.871094 438.027344 C 424.066406 434.359375 418.980469 431.960938 413.835938 430.023438 C 410.394531 428.308594 406.894531 426.714844 403.332031 425.269531 C 392.476562 420.859375 380.847656 417.984375 369.117188 417.925781 C 368.328125 417.796875 367.535156 417.675781 366.742188 417.546875 Z M 475.550781 492.613281 C 475.535156 492.65625 475.519531 492.695312 475.507812 492.734375 C 475.4375 492.609375 475.378906 492.484375 475.308594 492.355469 C 475.390625 492.441406 475.46875 492.53125 475.550781 492.613281 Z M 541.101562 267.699219 C 546.367188 271.039062 551.578125 274.558594 557.09375 277.472656 C 555.078125 278.90625 553.132812 280.402344 551.28125 281.980469 C 550.230469 281.804688 549.117188 281.730469 547.925781 281.773438 C 545.414062 281.863281 543.03125 282.476562 540.800781 283.453125 C 538.246094 281.3125 534.316406 280.226562 531.375 278.789062 C 528.023438 277.15625 524.667969 275.128906 521.085938 274.019531 C 520.886719 271.566406 520.730469 269.109375 520.507812 266.636719 C 522.851562 263.902344 525.269531 261.238281 527.714844 258.496094 C 531.679688 262.128906 536.578125 264.832031 541.101562 267.699219 Z M 525.925781 296.210938 C 524.59375 291.832031 523.171875 287.488281 522.253906 282.996094 C 521.71875 280.367188 521.414062 277.757812 521.183594 275.144531 C 524.101562 277.5 527.691406 279.195312 530.996094 280.839844 C 533.363281 282.019531 536.085938 283.738281 538.816406 284.421875 C 536.277344 285.824219 533.953125 287.675781 531.886719 289.738281 C 530.046875 291.570312 527.867188 293.785156 525.925781 296.210938 Z M 476.308594 239.757812 C 474.75 238.207031 471.0625 235.101562 471.058594 232.597656 C 471.070312 232.574219 471.082031 232.550781 471.097656 232.527344 C 473.265625 229.214844 476.351562 230.550781 478.359375 232.703125 C 478.964844 234.289062 479.988281 235.164062 481.308594 236.242188 C 483.0625 237.675781 485.679688 239.53125 484.195312 242.433594 C 483.769531 243.261719 483.25 243.847656 482.65625 244.234375 C 480.035156 243.503906 478.222656 241.667969 476.308594 239.757812 Z M 481.777344 244.644531 C 480.957031 244.910156 480.03125 244.902344 479.046875 244.6875 C 476.203125 244.0625 473.613281 241.671875 471.847656 239.3125 C 470.539062 237.558594 469.789062 235.375 470.675781 233.316406 C 470.859375 235.667969 473.863281 238.289062 475.203125 239.667969 C 476.949219 241.460938 479.125 244.210938 481.777344 244.644531 Z M 497.699219 200.039062 C 497.761719 200.164062 497.839844 200.277344 497.886719 200.410156 C 498.378906 201.84375 497.761719 203.3125 496.46875 204.070312 C 494.847656 205.019531 493.136719 204.378906 492.539062 202.597656 C 492.304688 201.90625 492.199219 201.136719 492.167969 200.410156 C 492.148438 200.035156 492.15625 199.660156 492.183594 199.289062 C 492.136719 198.296875 492.722656 197.796875 493.929688 197.792969 C 493.972656 197.832031 494.023438 197.824219 494.0625 197.796875 C 495.332031 198.492188 496.558594 199.230469 497.699219 200.039062 Z M 498.496094 207.660156 C 499.0625 208.054688 499.355469 208.792969 499.335938 209.527344 C 499.335938 209.539062 499.332031 209.546875 499.332031 209.558594 C 499.316406 209.921875 499.234375 210.277344 499.066406 210.59375 C 498.371094 211.894531 496.578125 212.527344 495.457031 211.359375 C 494.839844 210.714844 494.679688 209.773438 495.15625 208.992188 C 495.511719 208.410156 496.476562 207.332031 497.230469 207.484375 C 497.289062 207.496094 497.320312 207.445312 497.316406 207.394531 C 497.355469 207.390625 497.394531 207.375 497.433594 207.375 C 497.625 207.367188 497.796875 207.390625 497.960938 207.429688 C 498.003906 207.445312 498.042969 207.457031 498.085938 207.472656 C 498.230469 207.519531 498.363281 207.578125 498.484375 207.65625 C 498.488281 207.65625 498.492188 207.65625 498.496094 207.660156 Z M 489.296875 195.691406 C 489.285156 195.667969 489.269531 195.636719 489.257812 195.613281 C 489.28125 195.621094 489.3125 195.628906 489.339844 195.636719 C 489.328125 195.660156 489.300781 195.664062 489.296875 195.691406 Z M 475.964844 266.441406 C 460.191406 270.535156 445.652344 262.742188 440.714844 246.976562 C 436.203125 232.554688 440.421875 215.796875 450.898438 204.980469 C 460.085938 195.5 474.105469 191.363281 486.722656 194.804688 C 486.730469 194.871094 486.734375 194.9375 486.742188 195.007812 C 486.617188 195.296875 486.601562 195.644531 486.792969 196.011719 C 486.8125 196.046875 486.824219 196.078125 486.84375 196.117188 C 487.214844 201.773438 485.699219 206.824219 482.832031 211.882812 C 480.984375 215.144531 478.425781 218.140625 477.414062 221.820312 C 476.515625 225.105469 476.757812 228.496094 478.03125 231.445312 C 476.046875 229.328125 473.269531 228.542969 470.789062 231.320312 C 466.757812 235.828125 471.398438 240.683594 474.785156 243.628906 C 476.296875 244.941406 477.972656 246.960938 480.183594 246.535156 C 481.824219 246.222656 483.886719 244.699219 484.832031 243.3125 C 486.089844 241.472656 485.800781 239.859375 484.847656 238.398438 C 490.769531 241.171875 496.84375 238.976562 502.472656 235.894531 C 506.914062 233.464844 512.585938 230.457031 514.359375 225.449219 C 515.121094 228.007812 515.753906 230.628906 516.292969 233.269531 C 508.925781 240.335938 501.921875 249.503906 498.035156 258.664062 C 497.855469 259.089844 498.355469 259.59375 498.734375 259.199219 C 504.371094 253.347656 508.515625 246.054688 513.910156 239.941406 C 519.457031 233.65625 526.015625 229.570312 532.433594 224.363281 C 537.578125 220.191406 540.351562 214.660156 543.691406 209.078125 C 544.765625 207.273438 545.894531 205.433594 547.273438 203.839844 C 549.355469 201.4375 552.453125 199.324219 555.566406 201.960938 C 557.675781 203.742188 556.8125 209.304688 556.242188 211.488281 C 555.496094 214.351562 554.058594 216.71875 552.214844 218.992188 C 551.644531 219.695312 552.542969 220.652344 553.226562 220.007812 C 554.789062 218.535156 556.246094 216.410156 557.316406 214.039062 C 561.726562 221.144531 547.878906 227.847656 543.933594 232.183594 C 540.128906 236.363281 537.277344 241.335938 534.207031 246.046875 C 530.496094 251.738281 526.125 256.523438 521.453125 261.40625 C 517.773438 265.25 513.804688 269.457031 512.914062 274.890625 C 512.832031 275.394531 513.4375 275.675781 513.742188 275.242188 C 515.597656 272.578125 517.554688 270.109375 519.574219 267.710938 C 517.816406 277.511719 519.988281 289.078125 524.847656 297.621094 C 522.828125 300.390625 521.246094 303.382812 520.933594 306.359375 C 520.914062 306.570312 521.1875 306.582031 521.285156 306.457031 C 527.316406 298.511719 533.574219 287.554688 543.875 284.621094 C 545.683594 284.105469 547.484375 283.910156 549.214844 284.015625 C 549.273438 284.121094 549.398438 284.1875 549.527344 284.125 C 549.578125 284.097656 549.628906 284.070312 549.679688 284.042969 C 553.882812 284.441406 557.617188 286.695312 559.925781 290.820312 C 562.574219 295.5625 562.285156 300.882812 562.128906 306.101562 C 562.03125 306.320312 561.941406 306.535156 561.863281 306.746094 C 561.8125 306.886719 561.988281 307 562.105469 306.933594 C 562.101562 307.144531 562.09375 307.355469 562.089844 307.570312 C 562.074219 308.277344 563.160156 308.433594 563.332031 307.738281 C 563.5625 306.796875 563.738281 305.835938 563.867188 304.851562 C 565.429688 302.972656 567.054688 301.109375 569.085938 299.761719 C 572.78125 297.304688 573.101562 297.746094 576.746094 300.945312 C 580.511719 304.25 580.703125 304.601562 579.707031 309.070312 C 578.160156 316.011719 573.605469 322.273438 568.742188 327.304688 C 566.226562 329.910156 562.960938 333.085938 559.3125 333.929688 C 557.253906 334.40625 553.667969 333.945312 552.070312 332.394531 C 550.957031 331.3125 550.753906 328.351562 550.402344 326.777344 C 549.257812 321.613281 547.226562 317.015625 543.136719 313.550781 C 542.613281 313.105469 541.679688 313.683594 542.117188 314.339844 C 542.585938 315.046875 543.066406 315.761719 543.535156 316.480469 C 543.417969 316.5 543.300781 316.542969 543.195312 316.65625 C 536.980469 323.429688 527.886719 329.582031 519.90625 334.09375 C 513.449219 337.742188 502.847656 341.355469 495.433594 338.714844 C 495.355469 338.648438 495.261719 338.609375 495.164062 338.617188 C 493.675781 338.050781 492.328125 337.226562 491.171875 336.09375 C 491.644531 335.757812 491.882812 335.109375 491.128906 334.648438 C 489.832031 333.855469 488.9375 331.289062 488.351562 329.957031 C 487.957031 329.058594 487.617188 328.132812 487.246094 327.230469 C 489.164062 326.964844 491.222656 325.839844 492.988281 324.542969 C 498.574219 323.015625 504.203125 319.78125 506.441406 314.332031 C 509.355469 307.246094 506.367188 296.882812 504.890625 289.710938 C 503.867188 284.730469 502.621094 279.789062 501.148438 274.917969 C 500.101562 271.445312 499.324219 266.398438 497.136719 263.390625 C 494.859375 260.257812 489.957031 261.183594 485.96875 262.667969 C 485.664062 262.5625 485.355469 262.488281 485.035156 262.472656 C 482.667969 262.359375 479.105469 264.71875 477.167969 265.867188 C 476.863281 266.046875 476.582031 266.253906 476.289062 266.445312 C 476.191406 266.421875 476.085938 266.410156 475.964844 266.441406 Z M 500.5625 304.511719 C 499.464844 295.117188 496.582031 285.550781 493.414062 276.671875 C 492.386719 273.792969 490.601562 266.296875 487.398438 263.527344 C 489.109375 263.179688 490.835938 263.019531 492.441406 263.328125 C 496.425781 264.085938 496.902344 267.789062 498.039062 271.261719 C 500.082031 277.472656 501.765625 283.804688 503.082031 290.214844 C 504.394531 296.636719 506.449219 303.925781 505.648438 310.472656 C 504.9375 316.265625 501.019531 319.117188 496.53125 321.382812 C 500.707031 316.765625 501.257812 310.480469 500.5625 304.511719 Z M 482.617188 321.371094 C 479.167969 317.285156 477.121094 310.878906 475.425781 305.941406 C 473.746094 301.035156 472.46875 296 471.378906 290.9375 C 470.355469 286.183594 467.09375 277.019531 470.523438 272.457031 C 471.304688 271.808594 472.09375 271.175781 472.898438 270.566406 C 473.117188 270.46875 473.34375 270.371094 473.582031 270.289062 C 473.777344 270.222656 473.863281 270.035156 473.847656 269.867188 C 476.117188 268.230469 478.5 266.777344 481.121094 265.609375 C 485.8125 263.519531 486.761719 265.320312 488.535156 269.355469 C 489.949219 272.578125 491.191406 275.882812 492.320312 279.21875 C 495.660156 289.101562 500.8125 302.675781 498.566406 313.210938 C 497.097656 320.074219 488.828125 328.722656 482.617188 321.371094 Z M 490.152344 337.175781 C 490.101562 337.195312 490.042969 337.207031 489.992188 337.230469 C 490.015625 337.1875 490.046875 337.144531 490.070312 337.097656 C 490.101562 337.125 490.125 337.152344 490.152344 337.175781 Z M 351.125 243.855469 C 353.695312 241.234375 356.195312 240.210938 359.195312 239.675781 C 366.511719 241.628906 373.726562 243.976562 380.769531 246.785156 C 382.035156 247.289062 383.292969 247.8125 384.554688 248.34375 C 385.898438 254.292969 383.371094 260.421875 378.054688 264.242188 C 376.429688 265.410156 374.6875 266.296875 372.871094 266.941406 C 372.816406 266.859375 372.722656 266.796875 372.605469 266.808594 C 363.335938 268.082031 350.210938 268.4375 347.390625 257.183594 C 346.140625 252.242188 347.605469 247.4375 351.125 243.855469 Z M 131.046875 355.332031 C 140.15625 331.667969 154.105469 309.875 171.734375 291.605469 C 189.351562 273.324219 210.632812 258.542969 234.023438 248.542969 C 257.398438 238.519531 282.820312 233.289062 308.332031 233.132812 C 318.472656 233.050781 328.628906 233.804688 338.664062 235.339844 C 334.113281 240.429688 334.265625 248.527344 336.269531 254.859375 C 339.238281 264.214844 346.945312 268.734375 356.171875 270.507812 C 365.34375 272.265625 375.699219 271.246094 382.503906 264.203125 C 386.410156 260.164062 388.035156 254.511719 386.863281 249.351562 C 407.535156 258.414062 426.640625 271.109375 443.089844 286.65625 C 459.699219 302.308594 473.621094 321.296875 483.855469 342.136719 C 479.085938 347.082031 474.992188 353.15625 471.132812 358.363281 C 470.347656 359.421875 469.601562 360.503906 468.835938 361.578125 C 468.832031 361.582031 468.828125 361.582031 468.820312 361.582031 C 463.851562 363.707031 458.984375 366.011719 454.128906 368.324219 C 441.59375 373.457031 428.925781 377.671875 415.90625 380.628906 C 415.988281 379.644531 416.023438 378.652344 415.941406 377.679688 C 415.9375 377.628906 415.863281 377.625 415.859375 377.679688 C 415.792969 378.703125 415.6875 379.703125 415.574219 380.707031 C 414.53125 380.9375 413.492188 381.164062 412.449219 381.382812 C 413.085938 378.371094 413.492188 375.3125 413.695312 372.324219 C 413.714844 372.074219 413.328125 372.027344 413.265625 372.265625 C 412.453125 375.386719 411.683594 378.585938 410.796875 381.714844 C 400.347656 383.804688 389.65625 385.078125 378.597656 385.3125 C 378.027344 385.324219 377.683594 385.675781 377.476562 386.164062 C 376.875 387.585938 376.234375 388.992188 375.609375 390.402344 C 375.128906 389.777344 374.683594 389.125 374.277344 388.46875 C 373.515625 387.226562 372.832031 385.914062 372.207031 384.5625 C 370.957031 381.167969 370.011719 377.636719 369.535156 374.109375 C 368.230469 364.398438 371.585938 354.855469 379.9375 349.449219 C 380.28125 349.382812 380.621094 349.335938 380.960938 349.320312 C 381.214844 349.308594 381.207031 348.960938 380.960938 348.9375 C 374.75 348.367188 368.691406 355.4375 366.230469 360.542969 C 362.726562 367.796875 364.523438 376.386719 367.773438 383.390625 C 367.859375 383.578125 368.148438 383.441406 368.097656 383.253906 C 368.003906 382.890625 367.910156 382.53125 367.816406 382.164062 C 369.300781 386.34375 371.429688 390.292969 374.144531 393.734375 C 373.226562 395.75 372.261719 397.746094 371.292969 399.734375 C 368.191406 397.257812 365.375 394.417969 361.863281 392.496094 C 361.707031 392.410156 361.511719 392.628906 361.664062 392.753906 C 364.730469 395.238281 367.644531 398.199219 370.8125 400.738281 C 368.015625 406.4375 365.03125 412.046875 361.835938 417.550781 C 361.675781 417.820312 361.652344 418.179688 361.734375 418.5 C 361.675781 418.660156 361.71875 418.828125 361.902344 418.890625 C 362.050781 419.113281 362.269531 419.277344 362.554688 419.320312 C 374.746094 421.210938 386.800781 423.984375 398.5625 427.710938 C 410.460938 432.070312 421.640625 438.085938 430.917969 446.433594 C 430.707031 446.5 430.574219 446.730469 430.710938 446.9375 C 420.511719 451.953125 411.078125 458.855469 401.125 464.339844 C 397.253906 466.472656 393.351562 468.5 389.421875 470.464844 C 386.015625 471.5 382.445312 472.03125 378.878906 472.535156 C 372.808594 473.394531 366.726562 474.109375 360.660156 475 C 348.871094 476.730469 337.089844 479.300781 326.175781 484.195312 C 316.835938 488.378906 308.070312 494.273438 302.027344 502.65625 C 299.582031 506.050781 297.515625 509.769531 295.789062 513.667969 C 284.691406 514.175781 273.058594 518.960938 263.304688 523.769531 C 252.164062 529.257812 241.839844 536.480469 233.027344 545.234375 C 226.996094 551.222656 221.574219 557.917969 216.941406 565.117188 C 216.242188 563.980469 215.410156 562.984375 214.484375 562.066406 C 220.972656 555.273438 226.523438 547.664062 233.242188 541.027344 C 240.574219 533.789062 248.40625 527.140625 256.707031 521.039062 C 257.011719 520.8125 256.726562 520.292969 256.398438 520.515625 C 248.148438 526.222656 240.332031 532.507812 233.136719 539.507812 C 226.339844 546.125 218.972656 553.464844 214.117188 561.71875 C 212.636719 560.316406 210.992188 559.039062 209.417969 557.566406 C 206.816406 555.128906 204.710938 552.308594 202.710938 549.402344 C 213.226562 537.835938 222.71875 526.414062 235.214844 516.761719 C 235.59375 516.464844 235.238281 515.804688 234.828125 516.097656 C 222.59375 524.714844 209.910156 535.769531 202.390625 548.929688 C 200.695312 546.445312 199.058594 543.914062 197.246094 541.511719 C 196.089844 538.859375 194.847656 536.222656 193.496094 533.65625 C 198.683594 527.414062 203.558594 521.078125 209.398438 515.398438 C 215.898438 509.074219 223.277344 504.769531 230.519531 499.460938 C 231.707031 498.585938 230.683594 496.6875 229.339844 497.441406 C 221.960938 501.578125 215.394531 508.058594 209.296875 513.890625 C 203.328125 519.601562 197.5 525.996094 193.195312 533.09375 C 189.949219 527.007812 186.074219 521.3125 181.191406 516.652344 C 190.246094 507.800781 198.695312 498.785156 208.738281 490.9375 C 209.054688 490.691406 208.636719 490.144531 208.304688 490.378906 C 198.257812 497.578125 188.027344 506.144531 180.832031 516.320312 C 177.652344 513.347656 174.058594 510.804688 169.9375 508.871094 C 169.671875 508.75 169.402344 508.628906 169.121094 508.511719 C 175.582031 498.746094 182.761719 490.574219 191.671875 482.835938 C 192.300781 482.292969 191.402344 481.457031 190.78125 481.941406 C 181.886719 488.875 173.96875 498.269531 168.542969 508.277344 C 164.351562 506.621094 158.417969 505.4375 152.945312 505.769531 C 159.183594 495.421875 166.328125 486.261719 174.238281 477.105469 C 174.46875 476.839844 174.09375 476.453125 173.851562 476.71875 C 165.859375 485.300781 156.988281 494.683594 152.648438 505.796875 C 147.386719 506.167969 142.59375 507.964844 140.269531 512.121094 C 139.457031 510.578125 138.65625 509.027344 137.882812 507.460938 C 146.96875 490.277344 156.066406 473.878906 168.054688 458.398438 C 168.265625 458.125 167.890625 457.734375 167.667969 458.011719 C 155.691406 472.460938 144.460938 489.25 137.617188 506.90625 C 136.921875 505.492188 136.242188 504.074219 135.585938 502.640625 C 134.46875 500.210938 133.410156 497.753906 132.402344 495.28125 C 145.484375 463.261719 165.972656 436.339844 194.457031 416.152344 C 194.839844 415.882812 194.488281 415.25 194.078125 415.511719 C 165.773438 433.640625 142.761719 462.203125 131.976562 494.257812 C 130.183594 489.792969 128.5625 485.257812 127.117188 480.667969 C 135.859375 462.035156 146.476562 445.066406 160.152344 429.414062 C 160.371094 429.164062 160.019531 428.796875 159.785156 429.046875 C 146.011719 443.570312 134.410156 460.949219 126.792969 479.59375 C 125.25 474.582031 123.917969 469.503906 122.792969 464.378906 C 125.460938 458.222656 129.296875 452.335938 132.703125 446.859375 C 137.828125 438.613281 143.585938 430.777344 149.546875 423.121094 C 149.820312 422.765625 149.351562 422.261719 149.042969 422.617188 C 142.292969 430.222656 136.363281 438.433594 131.0625 447.105469 C 128.34375 451.554688 124.726562 456.785156 122.324219 462.199219 C 121.148438 456.511719 120.238281 450.765625 119.589844 444.984375 C 120.945312 442.570312 122.507812 440.308594 123.210938 439.1875 C 125.710938 435.183594 128.609375 431.46875 131.625 427.84375 C 131.855469 427.5625 131.476562 427.160156 131.214844 427.4375 C 126.746094 432.113281 123.027344 437.40625 119.992188 443.125 C 119.855469 443.382812 119.675781 443.695312 119.476562 444.035156 C 119.097656 440.539062 118.828125 437.03125 118.652344 433.515625 C 121.527344 428.722656 124.921875 424.378906 129.230469 420.378906 C 129.507812 420.121094 129.105469 419.746094 128.820312 419.972656 C 124.832031 423.171875 121.28125 427.15625 118.566406 431.609375 C 118.539062 431.011719 118.507812 430.421875 118.488281 429.828125 C 118.367188 426.09375 118.367188 422.359375 118.460938 418.625 C 123.457031 410.378906 128.644531 402.398438 135.046875 395.007812 C 143.046875 385.777344 152.128906 377.726562 161.914062 370.449219 C 162.21875 370.222656 161.933594 369.703125 161.605469 369.925781 C 144.585938 381.492188 128.695312 397.769531 118.53125 416.195312 C 119.339844 395.40625 123.539062 374.746094 131.046875 355.332031 Z M 177.0625 569.660156 C 181.421875 573.5625 185.972656 577.246094 190.667969 580.734375 C 190.511719 580.847656 190.351562 580.949219 190.195312 581.0625 C 190.058594 580.949219 189.878906 580.894531 189.691406 580.964844 C 183.933594 583.242188 178.777344 586.628906 173.367188 589.589844 C 166.894531 591.96875 160.402344 593.519531 153.105469 591.496094 C 143.320312 588.785156 138.289062 579.117188 135.417969 570.066406 C 130.683594 555.132812 132.375 538.34375 139.699219 524.523438 C 149.816406 541.320312 162.445312 556.597656 177.0625 569.660156 Z M 196.472656 576.96875 C 190.59375 572.691406 184.9375 568.097656 179.59375 563.164062 C 171.785156 555.972656 164.59375 548.113281 158.09375 539.722656 C 158.15625 539.222656 158.242188 538.765625 158.355469 538.347656 C 160.050781 534.175781 168.398438 537.339844 170.464844 538.535156 C 172.128906 539.496094 173.636719 540.878906 175.0625 542.15625 C 177.574219 544.410156 179.933594 546.816406 182.601562 548.898438 C 185.886719 551.460938 189.804688 554.261719 193.882812 556.160156 C 194.730469 556.792969 195.578125 557.433594 196.414062 558.085938 C 199.617188 560.585938 202.707031 563.335938 204.800781 566.878906 C 205.613281 568.257812 206.304688 570.253906 206.613281 572.332031 C 203.128906 573.5 199.734375 575.082031 196.472656 576.96875 Z M 208.515625 571.75 C 208.535156 569.449219 207.960938 567.078125 206.65625 564.757812 C 205.015625 561.832031 202.796875 559.46875 200.351562 557.320312 C 200.324219 557.21875 200.277344 557.125 200.183594 557.039062 C 199.277344 556.214844 198.296875 555.484375 197.292969 554.785156 C 192.148438 550.738281 186.632812 547.015625 183.429688 540.953125 C 181.15625 536.644531 179.402344 531.96875 175.914062 528.441406 C 172.851562 525.34375 168.636719 523.277344 164.660156 521.644531 C 158.800781 519.234375 150.792969 518.40625 147.074219 523.914062 C 145.085938 520.730469 143.1875 517.488281 141.390625 514.1875 C 149.363281 504.808594 166.464844 510.128906 175.023438 516.363281 C 186.820312 524.953125 193.304688 537.613281 200.269531 549.984375 C 200.378906 550.179688 200.703125 550.054688 200.644531 549.84375 C 202.863281 553.480469 205.523438 556.84375 208.675781 559.652344 C 211.449219 562.121094 214.121094 564.207031 215.695312 567.101562 C 214.988281 568.25 214.300781 569.414062 213.636719 570.585938 C 211.910156 570.851562 210.207031 571.257812 208.515625 571.75 Z M 373.175781 622.152344 C 360.472656 628.460938 347.128906 630.792969 333.09375 631.410156 C 335.9375 627.890625 338.851562 624.011719 340.230469 619.800781 C 340.414062 619.242188 339.667969 618.863281 339.277344 619.246094 C 335.496094 622.921875 332.566406 627.511719 328.855469 631.304688 C 325.242188 634.996094 321.53125 638.554688 317.488281 641.773438 C 308.796875 648.683594 299.152344 654.304688 288.949219 658.671875 C 278.011719 663.355469 266.457031 666.699219 254.867188 669.335938 C 243.71875 671.867188 230.605469 675.902344 219.425781 671.78125 C 218.761719 671.535156 218.359375 672.5625 218.953125 672.90625 C 227.019531 677.609375 236.945312 676.265625 246.039062 674.628906 C 244.410156 675.515625 242.78125 676.394531 241.109375 677.132812 C 235.992188 679.390625 230.671875 681.195312 225.304688 682.761719 C 214.628906 685.867188 203.503906 687.222656 192.398438 686.691406 C 181.777344 686.1875 171.222656 683.988281 161.261719 680.265625 C 150.617188 676.292969 141.65625 670.34375 132.011719 664.539062 C 131.261719 664.085938 130.546875 665.097656 131.105469 665.714844 C 136.390625 671.578125 143.480469 676.273438 150.773438 679.953125 C 141.5625 677.902344 132.292969 675.847656 124.042969 671.359375 C 118.101562 668.128906 112.636719 663.765625 107.324219 659.601562 C 102.296875 655.664062 97.445312 651.296875 93.894531 645.9375 C 86.285156 634.445312 84.230469 618.871094 83.9375 605.378906 C 83.78125 598.203125 84.316406 591.054688 85.453125 583.96875 C 86.125 579.757812 87.300781 575.601562 88.242188 571.429688 C 89.414062 585.792969 93.121094 599.964844 99.695312 612.566406 C 99.96875 613.089844 100.851562 612.730469 100.660156 612.160156 C 92.6875 588.703125 88.996094 564.496094 93.339844 539.855469 C 95.351562 528.445312 98.925781 517.308594 103.96875 506.875 C 108.519531 497.460938 114.355469 489.066406 120.121094 480.4375 C 123.0625 490.175781 126.757812 499.683594 131.195312 508.839844 C 133.515625 513.636719 136.042969 518.328125 138.746094 522.914062 C 127.714844 537.503906 126.324219 557.566406 132.820312 574.566406 C 136.160156 583.304688 141.699219 592.429688 151.335938 594.984375 C 150.464844 594.929688 149.597656 594.84375 148.726562 594.722656 C 133.890625 592.683594 124.238281 582.472656 117.996094 569.625 C 117.761719 569.136719 117.128906 569.515625 117.195312 569.964844 C 119.285156 584.472656 132.734375 595.777344 146.589844 598.441406 C 159.730469 600.972656 170.6875 596.199219 180.777344 589.203125 C 179.734375 590.257812 178.71875 591.328125 177.761719 592.40625 C 168.316406 603.035156 160.203125 617.320312 159.90625 631.871094 C 159.886719 632.804688 161.242188 632.957031 161.503906 632.085938 C 165.714844 618.199219 170.675781 605.335938 180.519531 594.339844 C 184.363281 590.042969 188.703125 586.125 193.382812 582.726562 C 193.464844 582.785156 193.550781 582.847656 193.636719 582.910156 C 194.230469 582.335938 194.851562 581.789062 195.480469 581.253906 C 195.804688 581.035156 196.128906 580.808594 196.453125 580.59375 C 201.65625 577.179688 207.117188 574.796875 212.699219 572.265625 C 206.402344 583.859375 202.195312 596.546875 200.898438 609.695312 C 200.835938 610.320312 201.828125 610.433594 201.980469 609.84375 C 205.601562 595.640625 210.917969 581.890625 218.417969 569.445312 C 218.488281 569.429688 218.558594 569.414062 218.632812 569.398438 C 218.617188 569.324219 218.59375 569.25 218.578125 569.175781 C 223.292969 561.398438 228.859375 554.136719 235.417969 547.601562 C 243.722656 539.332031 253.214844 532.285156 263.558594 526.777344 C 268.878906 523.945312 274.429688 521.515625 280.117188 519.515625 C 285.066406 517.777344 290.199219 516.648438 295.191406 515.097656 C 292.710938 521.046875 290.988281 527.359375 289.90625 533.539062 C 289.785156 534.230469 290.730469 534.503906 290.96875 533.828125 C 294.773438 522.917969 298.320312 512.1875 306.367188 503.558594 C 313.804688 495.585938 323.1875 489.898438 333.359375 486.105469 C 344.441406 481.972656 356.121094 479.867188 367.683594 477.578125 C 371.496094 476.824219 375.574219 476.160156 379.59375 475.234375 C 376.101562 476.890625 372.597656 478.515625 369.074219 480.136719 C 368.410156 480.445312 368.902344 481.402344 369.546875 481.261719 C 381.242188 478.800781 392.601562 473.273438 402.789062 467.164062 C 412.492188 461.351562 422.832031 455.101562 431.351562 447.53125 C 437.648438 453.230469 444.269531 458.3125 450.230469 464.304688 C 450.839844 464.925781 451.4375 465.546875 452.039062 466.175781 C 452.71875 466.898438 453.394531 467.621094 454.050781 468.375 C 457.570312 472.429688 460.769531 476.738281 464.117188 480.933594 C 466.277344 483.640625 468.375 486.714844 470.648438 489.5625 C 466.734375 492.664062 463.191406 496.523438 459.839844 500.09375 C 455.65625 504.554688 451.753906 509.316406 448.089844 514.207031 C 441.6875 522.742188 435.046875 531.945312 430.664062 541.84375 C 431.246094 535.109375 432.042969 528.664062 435.003906 522.320312 C 435.144531 522.015625 434.746094 521.773438 434.546875 522.054688 C 430.191406 528.3125 429.320312 535.640625 427.890625 542.953125 C 426.625 549.402344 425.15625 555.824219 423.222656 562.105469 C 419.242188 575.046875 412.988281 587.359375 404.394531 597.867188 C 395.984375 608.148438 385.023438 616.265625 373.175781 622.152344 Z M 445.105469 554.546875 C 438.265625 561.6875 430.855469 568.28125 422.992188 574.273438 C 424.511719 570.621094 425.835938 566.902344 426.957031 563.144531 C 428.554688 557.796875 429.722656 552.273438 430.238281 546.710938 C 437.113281 536.6875 442.703125 525.914062 449.957031 516.109375 C 453.757812 510.980469 457.765625 506.035156 461.839844 501.128906 C 464.867188 497.480469 468.289062 494.058594 471.300781 490.378906 C 472.546875 491.886719 473.855469 493.300781 475.257812 494.542969 C 475.289062 496.03125 475.75 497.5625 476.085938 498.925781 C 476.742188 501.585938 477.449219 504.234375 478.160156 506.882812 C 469.515625 524.597656 458.203125 540.929688 445.105469 554.546875 Z M 531.164062 543.738281 C 528.96875 545.402344 525.378906 546.292969 522.835938 547.378906 C 519.488281 548.8125 516.128906 550.210938 512.757812 551.582031 C 506.96875 553.933594 501.136719 556.167969 495.28125 558.34375 C 495.148438 557.84375 495.011719 557.34375 494.882812 556.839844 C 493.546875 546.71875 490.535156 536.644531 487.953125 526.8125 C 486.511719 521.316406 484.964844 515.847656 483.519531 510.351562 C 482.351562 505.921875 478.597656 497.007812 481.253906 492.304688 C 481.613281 492.339844 481.878906 492.167969 482.03125 491.894531 C 507.125 486.171875 530.796875 476.511719 553.101562 464.191406 C 550.265625 467.484375 547.722656 471.070312 545.542969 474.574219 C 541.597656 480.917969 539.785156 488.683594 537.8125 495.8125 C 533.769531 510.445312 530.914062 526.214844 532.972656 541.421875 C 532.554688 542.328125 531.980469 543.125 531.164062 543.738281 Z M 531.164062 543.738281 " fill-opacity="1" fill-rule="nonzero"/></g><path fill="#fffbeb" d="M 617.09375 327.027344 C 620.761719 321.078125 624.304688 314.496094 627.035156 308.0625 C 627.117188 307.871094 626.867188 307.714844 626.753906 307.898438 C 623.007812 313.800781 619.621094 320.464844 616.8125 326.863281 C 616.726562 327.054688 616.980469 327.214844 617.09375 327.027344 Z M 617.09375 327.027344 " fill-opacity="1" fill-rule="nonzero"/><path fill="#fffbeb" d="M 622.027344 327.074219 C 624.519531 321.734375 627.503906 316.765625 630.496094 311.703125 C 630.617188 311.503906 630.324219 311.355469 630.195312 311.527344 C 626.609375 316.164062 623.890625 321.515625 621.660156 326.917969 C 621.570312 327.128906 621.929688 327.28125 622.027344 327.074219 Z M 622.027344 327.074219 " fill-opacity="1" fill-rule="nonzero"/><path fill="#fffbeb" d="M 626.351562 328.351562 C 629.605469 324.566406 632.390625 320.347656 634.367188 315.753906 C 634.464844 315.523438 634.144531 315.316406 634.019531 315.546875 C 631.667969 319.957031 629.125 324.167969 626.09375 328.148438 C 625.980469 328.296875 626.230469 328.488281 626.351562 328.351562 Z M 626.351562 328.351562 " fill-opacity="1" fill-rule="nonzero"/><path fill="#fffbeb" d="M 451.3125 440.730469 C 451.222656 440.660156 451.109375 440.808594 451.191406 440.886719 C 459.558594 448.75 467.03125 456.945312 473.363281 466.566406 C 473.414062 466.648438 473.542969 466.574219 473.496094 466.488281 C 467.757812 456.773438 460.28125 447.644531 451.3125 440.730469 Z M 451.3125 440.730469 " fill-opacity="1" fill-rule="nonzero"/><path fill="#fffbeb" d="M 466.316406 453.5 C 466.386719 453.605469 466.558594 453.507812 466.492188 453.398438 C 464.867188 450.851562 462.839844 448.328125 460.328125 446.609375 C 460.257812 446.5625 460.179688 446.667969 460.238281 446.726562 C 462.414062 448.902344 464.535156 450.964844 466.316406 453.5 Z M 466.316406 453.5 " fill-opacity="1" fill-rule="nonzero"/></svg>