<svg xmlns="http://www.w3.org/2000/svg" xmlns:xlink="http://www.w3.org/1999/xlink" width="1080" zoomAndPan="magnify" viewBox="0 0 810 809.999993" height="1080" preserveAspectRatio="xMidYMid meet" version="1.0"><defs><clipPath id="4cf61ac62d"><path d="M 46.625 346 L 267 346 L 267 560 L 46.625 560 Z M 46.625 346 " clip-rule="nonzero"/></clipPath><clipPath id="4efac30848"><path d="M 222 227.152344 L 717 227.152344 L 717 520 L 222 520 Z M 222 227.152344 " clip-rule="nonzero"/></clipPath></defs><g clip-path="url(#4cf61ac62d)"><path fill="#fffbeb" d="M 46.832031 351.875 C 47.226562 353.78125 47.488281 355.242188 47.550781 355.609375 C 48.558594 360.785156 49.8125 365.914062 51.335938 370.964844 C 52.851562 376.007812 54.632812 380.972656 56.570312 385.863281 C 64.664062 406.019531 76.503906 423.671875 90.964844 439.011719 C 101.316406 449.992188 113.011719 459.765625 125.484375 468.554688 C 126.550781 470.578125 128.074219 473.199219 129.828125 476.363281 C 136.105469 487.730469 146.089844 505.566406 155.601562 523.65625 C 160.207031 532.410156 164.796875 541.171875 168.8125 549.273438 C 171.085938 553.859375 180.925781 557.886719 188.703125 559.324219 C 192.902344 560.105469 196.46875 560.117188 197.941406 559.648438 C 200.195312 558.933594 200.894531 557.347656 200.957031 555.964844 C 201.421875 545.410156 197.214844 535.363281 196.5 524.921875 C 195.882812 515.910156 197.207031 506.671875 199.835938 498.050781 C 208.992188 468.050781 233.992188 450.054688 263.730469 443.5625 C 264.894531 443.3125 266.339844 442.484375 266.035156 440.164062 C 265.957031 439.621094 265.535156 438.4375 264.734375 436.863281 C 262.210938 431.878906 255.675781 421.203125 252.71875 416.632812 C 252.050781 415.597656 251.550781 414.859375 251.292969 414.515625 C 249.953125 412.730469 248.21875 413.097656 247.980469 413.136719 C 245.941406 413.503906 226.929688 412.539062 201.757812 405.328125 C 189.476562 401.808594 176.058594 396.222656 161.714844 389.683594 C 161.347656 389.519531 160.988281 389.339844 160.625 389.171875 C 147.089844 379.339844 132.480469 371.039062 117.078125 364.597656 C 98.597656 357.09375 81.917969 352.25 69.574219 349.636719 C 60.480469 347.714844 53.796875 346.757812 50.574219 346.617188 C 50.355469 346.605469 50.15625 346.59375 49.96875 346.585938 C 49.960938 346.269531 46.632812 350.886719 46.832031 351.875 Z M 189.449219 520.269531 C 189.808594 533.925781 193.152344 546.390625 193.882812 553.046875 C 190.058594 552.8125 183.78125 551.445312 179.175781 549.3125 C 177.203125 548.398438 175.488281 547.492188 174.859375 546.253906 C 165.0625 527.058594 152.367188 503.988281 142.285156 486.957031 C 139.660156 482.523438 137.238281 478.484375 135.082031 475.035156 C 136.839844 476.175781 138.605469 477.300781 140.386719 478.398438 C 145.898438 481.789062 151.535156 485.058594 157.292969 488.082031 C 163.085938 491.125 169 493.925781 175.042969 496.371094 L 186.960938 500.925781 L 190.910156 502.320312 C 190.929688 502.324219 190.949219 502.328125 190.964844 502.332031 C 190.933594 502.484375 190.898438 502.628906 190.863281 502.78125 C 189.53125 508.570312 189.296875 514.535156 189.449219 520.269531 Z M 202.589844 474.828125 C 195.816406 485.636719 194.097656 493.183594 193.515625 496.210938 C 193.382812 496.390625 193.257812 496.574219 193.132812 496.75 L 189.410156 494.890625 L 181.382812 491.378906 C 182.871094 486.734375 186.5 477.792969 192.769531 468.601562 C 196.320312 463.382812 200.75 458.164062 205.855469 453.394531 C 207.101562 452.230469 208.425781 451.144531 209.65625 449.945312 C 209.8125 449.796875 209.957031 449.640625 210.101562 449.488281 C 210.917969 450.621094 211.730469 451.75 212.539062 452.890625 C 213.601562 454.386719 214.449219 456.0625 215.792969 457.296875 C 216.0625 457.542969 216.324219 457.675781 216.605469 457.8125 C 214.722656 459.570312 212.972656 461.265625 211.421875 462.996094 C 207.683594 467.15625 204.863281 471.195312 202.589844 474.828125 Z M 199.777344 412.066406 C 222.480469 418.925781 240.710938 419.796875 246.996094 419.644531 C 247.144531 419.8125 247.296875 419.996094 247.429688 420.179688 C 250.296875 424.308594 256.492188 433.703125 259.285156 438.734375 C 251.683594 440.550781 242.921875 443.476562 235.253906 446.808594 C 230.109375 449.046875 225.203125 451.152344 221.914062 453.847656 C 221.1875 453.210938 220.339844 452.585938 219.523438 452 C 218.996094 451.117188 218.390625 450.261719 217.851562 449.382812 C 207.792969 432.910156 194.75 418.316406 180.417969 405.316406 C 187.097656 408.0625 193.644531 410.214844 199.777344 412.066406 Z M 84.878906 360.554688 C 93.742188 363.316406 103.78125 366.679688 114.378906 371.105469 C 135.351562 379.777344 154.816406 392.015625 172.042969 406.90625 C 185.175781 418.253906 196.625 431.394531 207.011719 445.300781 C 206.785156 445.421875 206.558594 445.546875 206.335938 445.683594 C 204.742188 446.664062 203.347656 447.910156 201.96875 449.136719 C 196.394531 454.105469 191.925781 459.964844 188.296875 465.648438 C 182.210938 475.160156 178.59375 484.390625 177.320312 489.605469 C 171.652344 487.261719 166.105469 484.59375 160.667969 481.699219 C 155.074219 478.722656 149.601562 475.503906 144.242188 472.167969 C 126.710938 461.320312 110.355469 448.65625 96.257812 433.980469 C 82.222656 419.367188 70.402344 402.746094 62.261719 383.515625 C 60.253906 378.824219 58.425781 374.050781 56.78125 369.214844 C 55.132812 364.386719 53.660156 359.5 52.472656 354.542969 C 52.390625 354.214844 52.097656 353.140625 51.742188 351.875 C 52.574219 352.058594 53.523438 352.269531 54.578125 352.527344 C 61 354.109375 71.707031 356.449219 84.878906 360.554688 Z M 84.878906 360.554688 " fill-opacity="1" fill-rule="evenodd"/></g><path fill="#fffbeb" d="M 101.398438 399.5 C 97.304688 406.496094 98.566406 415.269531 103.710938 421.339844 C 109.609375 428.296875 119.933594 431.957031 128.691406 429.085938 C 134.171875 427.289062 138.832031 423.457031 140.742188 417.910156 C 142.183594 413.730469 141.722656 409.253906 139.992188 405.214844 C 138.347656 401.371094 135.554688 397.945312 132.308594 395.613281 C 129.328125 393.464844 125.65625 391.851562 121.867188 391.09375 C 113.898438 389.5 105.613281 392.304688 101.398438 399.5 Z M 101.398438 399.5 " fill-opacity="1" fill-rule="evenodd"/><g clip-path="url(#4efac30848)"><path fill="#fffbeb" d="M 223.886719 486.152344 C 223.785156 486.222656 223.742188 486.253906 223.832031 486.164062 C 223.851562 486.144531 223.867188 486.144531 223.886719 486.152344 Z M 223.886719 486.152344 C 223.972656 486.097656 224.097656 486.011719 224.222656 485.949219 C 223.636719 486.03125 223.050781 485.722656 222.804688 485.152344 C 222.507812 484.476562 222.820312 483.6875 223.5 483.394531 C 223.707031 482.867188 224.042969 483.175781 224.566406 483.015625 C 224.917969 482.910156 225.3125 483.234375 225.628906 483.34375 C 234.144531 487.4375 242.742188 490.941406 251.5 494.164062 C 257.296875 496.289062 263.148438 498.335938 269.167969 500.089844 C 286.847656 505.257812 304.6875 508.621094 322.691406 510.621094 C 340.703125 512.621094 358.890625 513.25 377.28125 512.714844 C 463.097656 510.480469 541.015625 483.566406 600.304688 435.324219 C 654.316406 391.371094 692.851562 329.722656 707.769531 252.921875 C 708.980469 246.691406 709.867188 240.339844 710.933594 233.9375 C 711.140625 232.671875 711.066406 231.300781 711.644531 230.148438 C 711.859375 229.710938 712.125 229.636719 712.457031 229.277344 C 712.582031 228.261719 713.511719 227.542969 714.519531 227.667969 C 715.535156 227.796875 716.253906 228.722656 716.128906 229.734375 C 716.363281 230.167969 716.59375 230.308594 716.695312 230.789062 C 716.96875 232.070312 716.53125 233.394531 716.386719 234.6875 C 715.664062 241.238281 714.433594 247.644531 713.21875 253.964844 C 698.195312 332.234375 659.0625 395.125 604.121094 440 C 543.917969 489.167969 464.71875 516.6875 377.453125 519.074219 C 358.761719 519.523438 340.28125 518.871094 321.992188 516.667969 C 303.679688 514.460938 285.578125 510.710938 267.640625 505.203125 C 258.429688 502.371094 249.5 499.183594 240.890625 495.210938 C 235.164062 492.5625 229.628906 489.523438 224.078125 486.351562 C 224.011719 486.3125 223.949219 486.179688 223.886719 486.152344 Z M 223.886719 486.152344 " fill-opacity="1" fill-rule="evenodd"/></g><path fill="#fffbeb" d="M 301.71875 542.34375 C 301.03125 542.0625 300.703125 541.28125 300.988281 540.597656 C 301.265625 539.914062 302.050781 539.585938 302.730469 539.863281 C 306.234375 541.195312 310.117188 542.035156 314.148438 542.691406 C 323.480469 544.203125 333.65625 544.496094 342.121094 545.492188 C 378.671875 550.09375 413.703125 548.714844 447.875 542.484375 C 482.140625 536.234375 515.574219 525.105469 548.734375 509.667969 C 549.519531 509.300781 550.453125 509.636719 550.820312 510.417969 C 551.1875 511.199219 550.851562 512.136719 550.070312 512.5 C 516.75 528.355469 483.15625 540.046875 448.609375 546.460938 C 414.066406 552.871094 378.601562 554 341.640625 549.265625 C 334.351562 548.296875 325.765625 547.957031 317.589844 546.679688 C 311.925781 545.789062 306.464844 544.4375 301.71875 542.34375 Z M 301.71875 542.34375 " fill-opacity="1" fill-rule="evenodd"/><path fill="#fffbeb" d="M 333.070312 477.484375 C 333.039062 477.460938 333.023438 477.429688 333.027344 477.394531 C 333.042969 477.226562 333.148438 477.390625 333.234375 477.542969 C 333.179688 477.535156 333.132812 477.523438 333.097656 477.507812 C 333.175781 477.554688 333.25 477.609375 333.320312 477.675781 C 333.324219 477.675781 333.324219 477.679688 333.324219 477.679688 C 333.300781 477.648438 333.265625 477.597656 333.230469 477.542969 C 333.550781 477.582031 334.175781 477.496094 334.769531 477.582031 C 339.71875 478.332031 351.988281 480.757812 353.132812 480.832031 C 359.59375 481.335938 366.109375 481.539062 372.625 481.503906 C 379.148438 481.464844 385.675781 481.175781 392.140625 480.6875 C 412.683594 479.140625 431.484375 475.214844 449.6875 469.40625 C 462.632812 465.277344 475.1875 460.007812 488.015625 454.332031 C 493.34375 451.976562 498.761719 449.644531 504.195312 447.113281 C 505.035156 446.691406 506.0625 447.035156 506.480469 447.878906 C 506.902344 448.71875 506.554688 449.742188 505.714844 450.164062 C 500.390625 453.015625 495.148438 455.8125 489.84375 458.324219 C 477 464.402344 464.089844 469.3125 450.964844 473.441406 C 432.4375 479.261719 413.3125 483.15625 392.429688 484.628906 C 385.875 485.09375 379.257812 485.351562 372.644531 485.363281 C 366.019531 485.375 359.398438 485.132812 352.839844 484.59375 C 351.664062 484.488281 338.988281 482.273438 334.054688 480.820312 C 333.09375 480.539062 332.421875 480.28125 332.128906 480.097656 C 330.585938 479.109375 331.125 477.882812 331.425781 477.738281 C 331.863281 477.269531 332.542969 477.179688 333.070312 477.484375 Z M 333.367188 477.71875 C 333.667969 478.027344 333.789062 478.453125 333.726562 478.851562 C 333.925781 478.40625 334 478.003906 333.367188 477.71875 Z M 333.367188 477.71875 " fill-opacity="1" fill-rule="evenodd"/><path fill="#fffbeb" d="M 619.484375 470.679688 C 619.480469 470.988281 619.371094 471.289062 619.171875 471.523438 C 619.140625 471.386719 619.09375 471.210938 619.027344 471.03125 C 618.796875 471.246094 618.703125 471.441406 618.828125 471.59375 C 618.875 471.648438 618.910156 471.695312 618.949219 471.738281 C 618.855469 471.808594 618.75 471.867188 618.632812 471.910156 C 617.890625 472.28125 617.402344 472.09375 617.253906 472.050781 C 616.640625 471.875 616.449219 471.390625 616.363281 470.851562 C 616.328125 470.65625 616.382812 470.109375 616.945312 469.523438 C 617.632812 468.804688 620.703125 466.628906 621.871094 465.644531 L 630.15625 458.507812 C 634.074219 455 637.855469 451.332031 641.546875 447.566406 C 645.238281 443.796875 648.839844 439.933594 652.34375 436.003906 C 660.804688 426.511719 668.730469 416.640625 676.402344 406.578125 C 687.949219 391.4375 698.875 375.839844 709.75 360.160156 C 710.234375 359.457031 711.195312 359.28125 711.898438 359.761719 C 712.601562 360.246094 712.78125 361.207031 712.296875 361.910156 C 701.546875 377.734375 690.808594 393.539062 679.296875 408.78125 C 671.613281 418.953125 663.570312 428.851562 655.042969 438.410156 C 651.496094 442.378906 647.863281 446.300781 644.113281 450.09375 C 640.355469 453.902344 636.484375 457.585938 632.484375 461.121094 L 623.925781 468.300781 C 623.085938 468.886719 620.691406 469.878906 619.484375 470.679688 Z M 619.171875 471.523438 C 619.238281 471.847656 619.195312 471.996094 618.949219 471.738281 C 619.03125 471.671875 619.109375 471.601562 619.171875 471.523438 Z M 619.171875 471.523438 " fill-opacity="1" fill-rule="evenodd"/><path fill="#fffbeb" d="M 593.007812 408.953125 C 593.011719 408.953125 593.015625 408.953125 593.019531 408.957031 C 593.125 409.042969 593.25 408.910156 593.367188 408.707031 C 593.472656 408.65625 593.582031 408.617188 593.699219 408.597656 C 593.605469 408.59375 593.511719 408.59375 593.425781 408.59375 C 593.582031 408.28125 593.710938 407.886719 593.734375 407.859375 L 603.320312 397.140625 C 610.171875 390.003906 617.042969 382.519531 623.214844 374.574219 C 627.316406 369.292969 631.128906 363.824219 634.347656 358.054688 C 634.742188 357.335938 635.648438 357.074219 636.367188 357.46875 C 637.085938 357.859375 637.347656 358.765625 636.957031 359.484375 C 632.949219 366.917969 628.054688 373.9375 622.652344 380.574219 C 617.292969 387.167969 611.433594 393.375 605.636719 399.371094 L 595.941406 409.460938 C 595.894531 409.519531 595.339844 410.371094 595.078125 410.671875 C 594.421875 411.433594 593.601562 411.230469 593.40625 411.140625 C 592.730469 410.851562 592.410156 410.0625 592.703125 409.382812 C 592.777344 409.21875 592.882812 409.074219 593.007812 408.953125 Z M 593.007812 408.953125 C 592.695312 408.691406 593.007812 408.609375 593.425781 408.597656 C 593.40625 408.636719 593.382812 408.675781 593.367188 408.710938 C 593.238281 408.769531 593.113281 408.847656 593.007812 408.953125 Z M 593.007812 408.953125 " fill-opacity="1" fill-rule="evenodd"/></svg>