<svg xmlns="http://www.w3.org/2000/svg" xmlns:xlink="http://www.w3.org/1999/xlink" width="1080" zoomAndPan="magnify" viewBox="0 0 810 525.000007" height="700" preserveAspectRatio="xMidYMid meet" version="1.0"><defs><clipPath id="0f02f176bb"><path d="M 7.460938 205 L 268 205 L 268 459.273438 L 7.460938 459.273438 Z M 7.460938 205 " clip-rule="nonzero"/></clipPath><clipPath id="03f7b109dc"><path d="M 216 64.773438 L 802.449219 64.773438 L 802.449219 411 L 216 411 Z M 216 64.773438 " clip-rule="nonzero"/></clipPath></defs><g clip-path="url(#0f02f176bb)"><path fill="#fffbeb" d="M 7.707031 212.25 C 8.175781 214.511719 8.484375 216.242188 8.5625 216.679688 C 9.753906 222.816406 11.246094 228.898438 13.050781 234.890625 C 14.847656 240.871094 16.960938 246.757812 19.257812 252.5625 C 28.859375 276.46875 42.898438 297.40625 60.050781 315.597656 C 72.328125 328.621094 86.203125 340.214844 100.992188 350.636719 C 102.257812 353.039062 104.066406 356.144531 106.144531 359.902344 C 113.589844 373.382812 125.433594 394.535156 136.714844 415.992188 C 142.175781 426.375 147.617188 436.765625 152.382812 446.375 C 155.082031 451.816406 166.75 456.589844 175.976562 458.296875 C 180.957031 459.21875 185.183594 459.234375 186.929688 458.679688 C 189.605469 457.832031 190.433594 455.953125 190.507812 454.3125 C 191.058594 441.792969 186.066406 429.875 185.21875 417.496094 C 184.488281 406.804688 186.058594 395.847656 189.179688 385.625 C 200.039062 350.042969 229.6875 328.695312 264.960938 320.996094 C 266.34375 320.703125 268.054688 319.71875 267.691406 316.964844 C 267.601562 316.320312 267.101562 314.917969 266.152344 313.050781 C 263.160156 307.140625 255.40625 294.476562 251.902344 289.054688 C 251.105469 287.828125 250.515625 286.953125 250.210938 286.546875 C 248.621094 284.429688 246.566406 284.863281 246.28125 284.910156 C 243.863281 285.34375 221.3125 284.199219 191.457031 275.644531 C 176.890625 271.472656 160.976562 264.847656 143.964844 257.09375 C 143.53125 256.898438 143.105469 256.6875 142.671875 256.484375 C 126.621094 244.824219 109.289062 234.980469 91.023438 227.339844 C 69.101562 218.4375 49.320312 212.695312 34.683594 209.59375 C 23.894531 207.3125 15.96875 206.183594 12.148438 206.011719 C 11.886719 206 11.648438 205.984375 11.429688 205.976562 C 11.417969 205.597656 7.472656 211.078125 7.707031 212.25 Z M 176.859375 411.976562 C 177.285156 428.171875 181.253906 442.957031 182.117188 450.851562 C 177.582031 450.574219 170.136719 448.953125 164.675781 446.421875 C 162.332031 445.335938 160.300781 444.261719 159.554688 442.789062 C 147.9375 420.027344 132.875 392.664062 120.921875 372.464844 C 117.808594 367.207031 114.933594 362.414062 112.378906 358.324219 C 114.464844 359.675781 116.554688 361.007812 118.667969 362.316406 C 125.207031 366.335938 131.890625 370.214844 138.71875 373.796875 C 145.589844 377.40625 152.605469 380.726562 159.769531 383.632812 L 173.90625 389.035156 L 178.59375 390.683594 C 178.613281 390.691406 178.636719 390.695312 178.660156 390.699219 C 178.617188 390.878906 178.578125 391.054688 178.539062 391.234375 C 176.957031 398.097656 176.679688 405.171875 176.859375 411.976562 Z M 192.445312 358.078125 C 184.414062 370.898438 182.375 379.847656 181.683594 383.4375 C 181.527344 383.652344 181.378906 383.867188 181.230469 384.078125 L 176.816406 381.871094 L 167.292969 377.707031 C 169.054688 372.199219 173.363281 361.597656 180.796875 350.691406 C 185.007812 344.503906 190.265625 338.316406 196.316406 332.65625 C 197.792969 331.277344 199.363281 329.992188 200.828125 328.566406 C 201.011719 328.386719 201.183594 328.203125 201.351562 328.023438 C 202.320312 329.367188 203.285156 330.707031 204.246094 332.058594 C 205.503906 333.832031 206.507812 335.820312 208.105469 337.289062 C 208.425781 337.578125 208.734375 337.734375 209.066406 337.898438 C 206.835938 339.980469 204.757812 341.992188 202.917969 344.046875 C 198.484375 348.976562 195.140625 353.769531 192.445312 358.078125 Z M 189.109375 283.636719 C 216.035156 291.773438 237.65625 292.804688 245.113281 292.628906 C 245.289062 292.828125 245.46875 293.042969 245.628906 293.265625 C 249.027344 298.160156 256.375 309.304688 259.6875 315.269531 C 250.671875 317.425781 240.28125 320.894531 231.1875 324.847656 C 225.082031 327.5 219.265625 330 215.363281 333.195312 C 214.5 332.441406 213.496094 331.695312 212.527344 331.003906 C 211.902344 329.953125 211.183594 328.941406 210.546875 327.898438 C 198.617188 308.359375 183.148438 291.050781 166.148438 275.632812 C 174.066406 278.890625 181.835938 281.445312 189.109375 283.636719 Z M 52.832031 222.542969 C 63.347656 225.820312 75.25 229.808594 87.820312 235.058594 C 112.695312 245.339844 135.785156 259.859375 156.214844 277.523438 C 171.789062 290.980469 185.371094 306.566406 197.691406 323.058594 C 197.421875 323.199219 197.152344 323.347656 196.886719 323.511719 C 195 324.671875 193.34375 326.152344 191.710938 327.609375 C 185.097656 333.5 179.800781 340.453125 175.492188 347.191406 C 168.273438 358.472656 163.984375 369.417969 162.472656 375.605469 C 155.75 372.824219 149.171875 369.660156 142.722656 366.226562 C 136.089844 362.695312 129.597656 358.882812 123.242188 354.921875 C 102.449219 342.058594 83.050781 327.039062 66.332031 309.628906 C 49.679688 292.300781 35.660156 272.585938 26.007812 249.78125 C 23.625 244.214844 21.457031 238.550781 19.507812 232.816406 C 17.554688 227.089844 15.808594 221.292969 14.398438 215.414062 C 14.300781 215.023438 13.957031 213.75 13.535156 212.25 C 14.515625 212.46875 15.644531 212.714844 16.894531 213.019531 C 24.511719 214.902344 37.210938 217.675781 52.832031 222.542969 Z M 52.832031 222.542969 " fill-opacity="1" fill-rule="evenodd"/></g><path fill="#fffbeb" d="M 72.429688 268.734375 C 67.574219 277.03125 69.066406 287.4375 75.171875 294.636719 C 82.167969 302.890625 94.410156 307.230469 104.796875 303.828125 C 111.296875 301.695312 116.824219 297.152344 119.089844 290.570312 C 120.800781 285.613281 120.253906 280.304688 118.203125 275.515625 C 116.25 270.957031 112.9375 266.890625 109.089844 264.125 C 105.550781 261.578125 101.199219 259.664062 96.703125 258.761719 C 87.25 256.875 77.421875 260.199219 72.429688 268.734375 Z M 72.429688 268.734375 " fill-opacity="1" fill-rule="evenodd"/><g clip-path="url(#03f7b109dc)"><path fill="#fffbeb" d="M 217.707031 371.511719 C 217.585938 371.59375 217.53125 371.632812 217.636719 371.523438 C 217.660156 371.5 217.683594 371.5 217.707031 371.511719 Z M 217.707031 371.511719 C 217.804688 371.441406 217.953125 371.34375 218.101562 371.269531 C 217.410156 371.367188 216.714844 371 216.421875 370.324219 C 216.066406 369.523438 216.441406 368.585938 217.242188 368.238281 C 217.492188 367.613281 217.890625 367.976562 218.507812 367.789062 C 218.925781 367.664062 219.394531 368.050781 219.769531 368.179688 C 229.871094 373.035156 240.066406 377.191406 250.457031 381.011719 C 257.332031 383.53125 264.269531 385.960938 271.410156 388.042969 C 292.378906 394.167969 313.539062 398.15625 334.890625 400.53125 C 356.253906 402.90625 377.828125 403.648438 399.636719 403.011719 C 501.421875 400.367188 593.832031 368.441406 664.15625 311.222656 C 728.214844 259.09375 773.921875 185.976562 791.617188 94.886719 C 793.050781 87.496094 794.101562 79.964844 795.367188 72.371094 C 795.613281 70.867188 795.523438 69.242188 796.210938 67.875 C 796.464844 67.359375 796.78125 67.269531 797.175781 66.84375 C 797.324219 65.640625 798.421875 64.789062 799.621094 64.933594 C 800.824219 65.085938 801.675781 66.183594 801.527344 67.386719 C 801.808594 67.898438 802.082031 68.066406 802.203125 68.636719 C 802.523438 70.15625 802.003906 71.726562 801.832031 73.261719 C 800.976562 81.027344 799.519531 88.625 798.078125 96.125 C 780.257812 188.953125 733.847656 263.546875 668.683594 316.769531 C 597.28125 375.085938 503.339844 407.726562 399.84375 410.554688 C 377.675781 411.089844 355.753906 410.3125 334.066406 407.703125 C 312.34375 405.085938 290.871094 400.640625 269.601562 394.105469 C 258.671875 390.742188 248.082031 386.964844 237.871094 382.253906 C 231.078125 379.113281 224.511719 375.507812 217.929688 371.746094 C 217.855469 371.699219 217.777344 371.542969 217.707031 371.511719 Z M 217.707031 371.511719 " fill-opacity="1" fill-rule="evenodd"/></g><path fill="#fffbeb" d="M 310.015625 438.15625 C 309.203125 437.824219 308.8125 436.894531 309.148438 436.085938 C 309.480469 435.273438 310.410156 434.882812 311.21875 435.214844 C 315.375 436.796875 319.976562 437.792969 324.757812 438.566406 C 335.828125 440.363281 347.894531 440.707031 357.933594 441.890625 C 401.289062 447.347656 442.835938 445.710938 483.367188 438.320312 C 524.007812 430.90625 563.660156 417.710938 602.992188 399.402344 C 603.921875 398.964844 605.03125 399.363281 605.464844 400.289062 C 605.902344 401.21875 605.5 402.328125 604.578125 402.761719 C 565.054688 421.566406 525.210938 435.429688 484.238281 443.039062 C 443.265625 450.640625 401.203125 451.980469 357.363281 446.367188 C 348.722656 445.214844 338.539062 444.816406 328.839844 443.296875 C 322.125 442.242188 315.648438 440.636719 310.015625 438.15625 Z M 310.015625 438.15625 " fill-opacity="1" fill-rule="evenodd"/><path fill="#fffbeb" d="M 347.199219 361.230469 C 347.164062 361.203125 347.144531 361.167969 347.152344 361.121094 C 347.167969 360.921875 347.292969 361.117188 347.398438 361.296875 C 347.328125 361.289062 347.277344 361.273438 347.234375 361.253906 C 347.324219 361.3125 347.414062 361.378906 347.496094 361.457031 C 347.5 361.457031 347.5 361.460938 347.5 361.460938 C 347.472656 361.421875 347.433594 361.363281 347.394531 361.300781 C 347.769531 361.34375 348.515625 361.242188 349.214844 361.34375 C 355.089844 362.234375 369.636719 365.109375 370.996094 365.199219 C 378.65625 365.796875 386.390625 366.039062 394.117188 365.996094 C 401.855469 365.949219 409.59375 365.609375 417.261719 365.03125 C 441.628906 363.195312 463.925781 358.535156 485.515625 351.648438 C 500.867188 346.75 515.757812 340.5 530.976562 333.769531 C 537.292969 330.972656 543.722656 328.210938 550.164062 325.207031 C 551.160156 324.707031 552.378906 325.113281 552.875 326.113281 C 553.375 327.109375 552.964844 328.324219 551.96875 328.824219 C 545.652344 332.207031 539.433594 335.523438 533.144531 338.503906 C 517.90625 345.714844 502.597656 351.535156 487.027344 356.433594 C 465.058594 363.339844 442.371094 367.957031 417.605469 369.703125 C 409.828125 370.253906 401.984375 370.558594 394.140625 370.570312 C 386.28125 370.585938 378.429688 370.296875 370.648438 369.660156 C 369.257812 369.535156 354.21875 366.910156 348.371094 365.1875 C 347.230469 364.851562 346.433594 364.546875 346.085938 364.328125 C 344.257812 363.160156 344.894531 361.699219 345.253906 361.53125 C 345.769531 360.972656 346.574219 360.871094 347.199219 361.230469 Z M 347.554688 361.507812 C 347.910156 361.875 348.050781 362.378906 347.980469 362.847656 C 348.21875 362.324219 348.304688 361.84375 347.554688 361.507812 Z M 347.554688 361.507812 " fill-opacity="1" fill-rule="evenodd"/><path fill="#fffbeb" d="M 686.902344 353.160156 C 686.898438 353.523438 686.765625 353.882812 686.535156 354.160156 C 686.5 353.996094 686.441406 353.789062 686.363281 353.574219 C 686.089844 353.828125 685.976562 354.0625 686.125 354.242188 C 686.179688 354.308594 686.222656 354.363281 686.269531 354.414062 C 686.15625 354.496094 686.03125 354.566406 685.890625 354.617188 C 685.011719 355.058594 684.433594 354.835938 684.257812 354.785156 C 683.53125 354.578125 683.304688 354 683.199219 353.363281 C 683.160156 353.128906 683.226562 352.484375 683.890625 351.785156 C 684.707031 350.933594 688.351562 348.355469 689.734375 347.1875 L 699.5625 338.722656 C 704.207031 334.5625 708.695312 330.210938 713.070312 325.746094 C 717.449219 321.277344 721.722656 316.691406 725.875 312.03125 C 735.910156 300.773438 745.3125 289.0625 754.414062 277.132812 C 768.105469 259.171875 781.066406 240.675781 793.960938 222.078125 C 794.535156 221.242188 795.675781 221.03125 796.511719 221.601562 C 797.347656 222.175781 797.558594 223.316406 796.984375 224.152344 C 784.234375 242.921875 771.496094 261.667969 757.847656 279.742188 C 748.730469 291.804688 739.191406 303.550781 729.078125 314.886719 C 724.871094 319.59375 720.5625 324.242188 716.117188 328.742188 C 711.660156 333.257812 707.066406 337.628906 702.320312 341.820312 L 692.171875 350.335938 C 691.175781 351.03125 688.332031 352.207031 686.902344 353.160156 Z M 686.535156 354.160156 C 686.609375 354.542969 686.5625 354.71875 686.269531 354.414062 C 686.367188 354.335938 686.457031 354.25 686.535156 354.160156 Z M 686.535156 354.160156 " fill-opacity="1" fill-rule="evenodd"/><path fill="#fffbeb" d="M 655.503906 279.945312 C 655.507812 279.949219 655.511719 279.949219 655.515625 279.953125 C 655.640625 280.054688 655.789062 279.894531 655.929688 279.652344 C 656.054688 279.59375 656.183594 279.550781 656.324219 279.527344 C 656.210938 279.523438 656.097656 279.523438 655.996094 279.523438 C 656.183594 279.152344 656.335938 278.683594 656.363281 278.648438 L 667.730469 265.933594 C 675.859375 257.472656 684.007812 248.59375 691.328125 239.171875 C 696.191406 232.910156 700.714844 226.421875 704.535156 219.578125 C 705 218.726562 706.074219 218.414062 706.925781 218.882812 C 707.777344 219.347656 708.09375 220.421875 707.625 221.273438 C 702.875 230.09375 697.070312 238.417969 690.664062 246.289062 C 684.304688 254.109375 677.355469 261.46875 670.480469 268.582031 L 658.980469 280.550781 C 658.925781 280.617188 658.265625 281.628906 657.957031 281.988281 C 657.175781 282.890625 656.207031 282.648438 655.972656 282.542969 C 655.171875 282.199219 654.792969 281.265625 655.140625 280.457031 C 655.230469 280.261719 655.355469 280.089844 655.503906 279.945312 Z M 655.503906 279.945312 C 655.128906 279.636719 655.503906 279.542969 655.996094 279.527344 C 655.972656 279.574219 655.945312 279.617188 655.929688 279.65625 C 655.777344 279.730469 655.628906 279.824219 655.503906 279.945312 Z M 655.503906 279.945312 " fill-opacity="1" fill-rule="evenodd"/></svg>