<svg xmlns="http://www.w3.org/2000/svg" xmlns:xlink="http://www.w3.org/1999/xlink" width="650" zoomAndPan="magnify" viewBox="0 0 487.5 374.999991" height="500" preserveAspectRatio="xMidYMid meet" version="1.0"><defs><clipPath id="dc1be97371"><path d="M 4.511719 3 L 482.519531 3 L 482.519531 374.808594 L 4.511719 374.808594 Z M 4.511719 3 " clip-rule="nonzero"/></clipPath></defs><path fill="#fffbeb" d="M 343.058594 281.105469 C 338.957031 285.964844 334.042969 289.980469 328.492188 293.082031 C 328.449219 293.109375 328.488281 293.175781 328.535156 293.152344 C 334.125 290.09375 339.019531 286.039062 343.109375 281.152344 C 343.132812 281.117188 343.089844 281.074219 343.058594 281.105469 Z M 343.058594 281.105469 " fill-opacity="1" fill-rule="nonzero"/><path fill="#fffbeb" d="M 32.652344 228.355469 C 21.652344 240.980469 18.125 258.765625 18.332031 275.121094 C 18.332031 275.371094 18.742188 275.449219 18.78125 275.183594 C 21.101562 258.800781 22.367188 242.199219 32.910156 228.613281 C 33.042969 228.433594 32.808594 228.179688 32.652344 228.355469 Z M 32.652344 228.355469 " fill-opacity="1" fill-rule="nonzero"/><path fill="#fffbeb" d="M 15.238281 322.601562 C 15.164062 322.359375 14.792969 322.460938 14.859375 322.703125 C 17.636719 333.011719 23.785156 341.941406 30.28125 350.261719 C 30.453125 350.476562 30.824219 350.191406 30.667969 349.960938 C 24.695312 341.257812 18.390625 332.824219 15.238281 322.601562 Z M 15.238281 322.601562 " fill-opacity="1" fill-rule="nonzero"/><path fill="#fffbeb" d="M 215.003906 230.878906 C 207.097656 232.453125 199.386719 237.269531 193.105469 242.128906 C 186.523438 247.214844 180.882812 253.320312 176.582031 260.445312 C 176.203125 261.066406 177.128906 261.570312 177.539062 261.003906 C 182.441406 254.253906 188.160156 248.035156 194.816406 242.980469 C 201.195312 238.128906 208.199219 235.097656 215.257812 231.476562 C 215.601562 231.300781 215.351562 230.808594 215.003906 230.878906 Z M 215.003906 230.878906 " fill-opacity="1" fill-rule="nonzero"/><path fill="#fffbeb" d="M 272.898438 206.691406 C 273.089844 206.429688 272.710938 206.0625 272.449219 206.246094 C 268.378906 209.0625 264.855469 212.867188 261.066406 216.054688 C 256.984375 219.484375 252.785156 222.777344 248.714844 226.214844 C 248.304688 226.5625 248.835938 227.25 249.289062 226.960938 C 253.664062 224.125 257.765625 220.886719 261.710938 217.480469 C 265.546875 214.167969 269.878906 210.785156 272.898438 206.691406 Z M 272.898438 206.691406 " fill-opacity="1" fill-rule="nonzero"/><path fill="#fffbeb" d="M 281.550781 221.121094 C 281.785156 220.898438 281.46875 220.453125 281.195312 220.660156 C 272.226562 227.476562 263.523438 235.617188 256.835938 244.707031 C 256.507812 245.148438 257.207031 245.648438 257.582031 245.28125 C 265.644531 237.292969 273.390625 229.027344 281.550781 221.121094 Z M 281.550781 221.121094 " fill-opacity="1" fill-rule="nonzero"/><path fill="#fffbeb" d="M 408.175781 119.539062 C 419.855469 119.914062 430.964844 111.070312 432.339844 99.316406 C 433.664062 87.980469 426.5 76.363281 414.800781 74.757812 C 405.722656 73.511719 397.191406 78.269531 392.816406 85.792969 C 391 88.539062 389.746094 91.640625 389.285156 94.890625 C 387.585938 106.761719 395.78125 119.148438 408.175781 119.539062 Z M 393.046875 89.703125 C 397.707031 80.554688 407.84375 74.386719 418.238281 78.050781 C 431.308594 82.65625 433.554688 100.929688 424.621094 110.324219 C 419.984375 115.195312 413.183594 117.785156 406.492188 117.007812 C 398.75 116.109375 393.855469 109.902344 392 102.625 C 390.804688 97.925781 391.335938 93.554688 393.046875 89.703125 Z M 393.046875 89.703125 " fill-opacity="1" fill-rule="nonzero"/><path fill="#fffbeb" d="M 408.757812 115.132812 C 418.480469 115.5 427.644531 108.058594 428.597656 98.265625 C 429.472656 89.242188 423.796875 80.113281 414.546875 78.679688 C 407.089844 77.523438 400.160156 81.320312 396.515625 87.402344 C 394.945312 89.699219 393.859375 92.3125 393.464844 95.070312 C 392.089844 104.695312 398.734375 114.753906 408.757812 115.132812 Z M 396.445312 91.054688 C 400.066406 83.789062 407.882812 78.59375 416.191406 81.046875 C 427.203125 84.300781 429.859375 99.21875 422.570312 107.292969 C 418.964844 111.289062 413.53125 113.558594 408.144531 113.15625 C 401.496094 112.660156 397.121094 107.378906 395.644531 101.144531 C 394.773438 97.472656 395.167969 94.066406 396.445312 91.054688 Z M 396.445312 91.054688 " fill-opacity="1" fill-rule="nonzero"/><path fill="#fffbeb" d="M 324.054688 222.945312 C 317.476562 225.457031 310.769531 227.148438 304.035156 229.136719 C 303.964844 229.15625 303.976562 229.277344 304.054688 229.269531 C 310.941406 228.40625 317.808594 225.914062 324.105469 223.0625 C 324.167969 223.035156 324.121094 222.921875 324.054688 222.945312 Z M 324.054688 222.945312 " fill-opacity="1" fill-rule="nonzero"/><path fill="#fffbeb" d="M 315.464844 227.867188 C 312.667969 228.878906 309.425781 230.621094 306.425781 230.765625 C 306.316406 230.769531 306.320312 230.917969 306.425781 230.933594 C 307.859375 231.113281 309.472656 230.332031 310.800781 229.886719 C 312.410156 229.347656 313.992188 228.738281 315.527344 228.019531 C 315.613281 227.980469 315.554688 227.832031 315.464844 227.867188 Z M 315.464844 227.867188 " fill-opacity="1" fill-rule="nonzero"/><path fill="#fffbeb" d="M 313.777344 230.554688 C 311.933594 230.976562 309.933594 231.566406 308.21875 232.371094 C 308.15625 232.402344 308.203125 232.488281 308.261719 232.480469 C 310.121094 232.148438 312.089844 231.476562 313.832031 230.757812 C 313.953125 230.707031 313.910156 230.527344 313.777344 230.554688 Z M 313.777344 230.554688 " fill-opacity="1" fill-rule="nonzero"/><path fill="#fffbeb" d="M 312.988281 232.570312 C 311.824219 232.820312 310.59375 233.25 309.503906 233.730469 C 309.429688 233.765625 309.484375 233.871094 309.554688 233.855469 C 310.71875 233.605469 311.964844 233.21875 313.054688 232.734375 C 313.152344 232.691406 313.078125 232.550781 312.988281 232.570312 Z M 312.988281 232.570312 " fill-opacity="1" fill-rule="nonzero"/><path fill="#fffbeb" d="M 268.882812 166.460938 C 271.058594 161.171875 273.367188 156.039062 276.058594 150.988281 C 276.078125 150.945312 276.015625 150.910156 275.996094 150.949219 C 273.109375 155.839844 270.609375 161.046875 268.777344 166.429688 C 268.75 166.503906 268.855469 166.527344 268.882812 166.460938 Z M 268.882812 166.460938 " fill-opacity="1" fill-rule="nonzero"/><path fill="#fffbeb" d="M 269.367188 160.398438 C 270.574219 157.800781 271.980469 155.28125 273.121094 152.65625 C 273.125 152.652344 273.117188 152.648438 273.113281 152.652344 C 271.53125 155.023438 270.355469 157.730469 269.253906 160.347656 C 269.222656 160.414062 269.335938 160.460938 269.367188 160.398438 Z M 269.367188 160.398438 " fill-opacity="1" fill-rule="nonzero"/><path fill="#fffbeb" d="M 268.457031 158.699219 C 269.15625 157.132812 269.875 155.59375 270.667969 154.070312 C 270.691406 154.027344 270.628906 153.996094 270.605469 154.03125 C 269.652344 155.457031 268.867188 157.015625 268.332031 158.644531 C 268.304688 158.714844 268.421875 158.769531 268.457031 158.699219 Z M 268.457031 158.699219 " fill-opacity="1" fill-rule="nonzero"/><path fill="#fffbeb" d="M 373.460938 86.324219 C 373.464844 86.265625 373.371094 86.253906 373.359375 86.308594 C 372.617188 89.960938 371.371094 93.320312 369.28125 96.429688 C 367.058594 99.742188 364.1875 102.257812 361.378906 105.03125 C 361.328125 105.078125 361.394531 105.167969 361.449219 105.128906 C 367.335938 100.886719 372.96875 93.816406 373.460938 86.324219 Z M 373.460938 86.324219 " fill-opacity="1" fill-rule="nonzero"/><path fill="#fffbeb" d="M 296.527344 29.050781 C 296.703125 24.109375 299.179688 20.863281 301.882812 16.957031 C 303.675781 14.363281 304.535156 11.324219 304.757812 8.195312 C 304.765625 8.128906 304.667969 8.121094 304.648438 8.179688 C 304.140625 9.960938 303.886719 11.8125 303.222656 13.546875 C 302.355469 15.808594 300.800781 17.574219 299.484375 19.566406 C 297.421875 22.699219 295.964844 25.214844 296.347656 29.050781 C 296.359375 29.164062 296.527344 29.171875 296.527344 29.050781 Z M 296.527344 29.050781 " fill-opacity="1" fill-rule="nonzero"/><path fill="#fffbeb" d="M 315.550781 39.179688 C 318.863281 37.597656 322.347656 35.503906 324.835938 32.753906 C 324.90625 32.675781 324.808594 32.527344 324.71875 32.597656 C 321.695312 34.929688 318.855469 37.226562 315.457031 39.019531 C 315.351562 39.082031 315.445312 39.230469 315.550781 39.179688 Z M 315.550781 39.179688 " fill-opacity="1" fill-rule="nonzero"/><path fill="#fffbeb" d="M 59.769531 163.914062 C 59.925781 163.769531 59.695312 163.550781 59.539062 163.683594 C 51.945312 170.160156 45.070312 178.191406 40.324219 187.003906 C 40.226562 187.179688 40.476562 187.320312 40.589844 187.160156 C 46.285156 178.671875 52.371094 170.988281 59.769531 163.914062 Z M 59.769531 163.914062 " fill-opacity="1" fill-rule="nonzero"/><path fill="#fffbeb" d="M 64.078125 171.710938 C 56.917969 179.117188 50.546875 187.320312 44.859375 195.902344 C 44.773438 196.035156 44.980469 196.15625 45.070312 196.027344 C 51.003906 187.585938 57.46875 179.65625 64.28125 171.914062 C 64.402344 171.777344 64.207031 171.578125 64.078125 171.710938 Z M 64.078125 171.710938 " fill-opacity="1" fill-rule="nonzero"/><path fill="#fffbeb" d="M 53.53125 197.972656 C 61.078125 186.917969 69.9375 177.820312 80.632812 169.800781 C 80.777344 169.695312 80.644531 169.457031 80.488281 169.554688 C 69.429688 176.5625 59.945312 186.574219 53.355469 197.871094 C 53.289062 197.984375 53.460938 198.078125 53.53125 197.972656 Z M 53.53125 197.972656 " fill-opacity="1" fill-rule="nonzero"/><path fill="#fffbeb" d="M 75.339844 188.847656 C 65.851562 197.671875 56.316406 208.59375 50.945312 220.515625 C 50.890625 220.636719 51.046875 220.726562 51.121094 220.621094 C 54.8125 215.335938 58.042969 209.792969 61.964844 204.65625 C 66.152344 199.175781 70.777344 194.03125 75.628906 189.136719 C 75.816406 188.949219 75.535156 188.667969 75.339844 188.847656 Z M 75.339844 188.847656 " fill-opacity="1" fill-rule="nonzero"/><path fill="#fffbeb" d="M 87.445312 195.941406 C 87.878906 195.5625 87.3125 194.820312 86.828125 195.140625 C 76.652344 201.816406 66.394531 213.261719 60.917969 224.1875 C 60.847656 224.328125 61.039062 224.433594 61.132812 224.3125 C 65.175781 218.917969 68.882812 213.410156 73.488281 208.453125 C 77.816406 203.785156 82.699219 200.089844 87.445312 195.941406 Z M 87.445312 195.941406 " fill-opacity="1" fill-rule="nonzero"/><path fill="#fffbeb" d="M 93.628906 206.578125 C 84.058594 213.128906 75.296875 221.589844 69.113281 231.457031 C 69.027344 231.59375 69.234375 231.761719 69.335938 231.628906 C 76.644531 222.34375 84.40625 214.128906 93.886719 207.015625 C 94.144531 206.824219 93.90625 206.386719 93.628906 206.578125 Z M 93.628906 206.578125 " fill-opacity="1" fill-rule="nonzero"/><path fill="#fffbeb" d="M 113.714844 206.550781 C 101.335938 213.882812 88.628906 224.019531 80.007812 235.621094 C 79.929688 235.726562 80.09375 235.84375 80.183594 235.757812 C 85.375 230.78125 90.167969 225.492188 95.617188 220.773438 C 101.425781 215.746094 107.609375 211.265625 113.910156 206.882812 C 114.113281 206.746094 113.933594 206.421875 113.714844 206.550781 Z M 113.714844 206.550781 " fill-opacity="1" fill-rule="nonzero"/><path fill="#fffbeb" d="M 92.679688 240.835938 C 92.578125 240.96875 92.738281 241.140625 92.867188 241.019531 C 97.972656 236.417969 102.636719 231.386719 107.859375 226.890625 C 113.441406 222.085938 119.375 217.773438 125.394531 213.542969 C 125.648438 213.363281 125.417969 212.949219 125.148438 213.117188 C 113.441406 220.398438 101.152344 229.878906 92.679688 240.835938 Z M 92.679688 240.835938 " fill-opacity="1" fill-rule="nonzero"/><path fill="#fffbeb" d="M 101.628906 253.03125 C 101.550781 253.132812 101.679688 253.269531 101.773438 253.175781 C 112.757812 242.246094 124.175781 232.820312 137.734375 225.191406 C 137.929688 225.082031 137.753906 224.789062 137.558594 224.894531 C 124.136719 231.703125 111.183594 241.328125 101.628906 253.03125 Z M 101.628906 253.03125 " fill-opacity="1" fill-rule="nonzero"/><path fill="#fffbeb" d="M 149.800781 231.296875 C 134.519531 239.375 120.214844 250.28125 109.230469 263.707031 C 109.109375 263.855469 109.308594 264.066406 109.449219 263.921875 C 121.675781 251.386719 134.785156 240.402344 149.976562 231.597656 C 150.167969 231.484375 150 231.191406 149.800781 231.296875 Z M 149.800781 231.296875 " fill-opacity="1" fill-rule="nonzero"/><path fill="#fffbeb" d="M 209.40625 146.875 C 209.589844 147.1875 210.109375 146.980469 210 146.621094 C 208.132812 140.316406 206.761719 134.371094 209.105469 127.933594 C 211.304688 121.882812 216.238281 117.53125 222.234375 115.429688 C 229.011719 113.058594 234.390625 115.144531 240.246094 118.707031 C 243.839844 120.886719 246.683594 125.578125 250.929688 126.34375 C 251.160156 126.386719 251.3125 126.085938 251.097656 125.953125 C 248.050781 124.089844 246.105469 121.082031 243.257812 118.972656 C 240.621094 117.023438 237.476562 115.246094 234.449219 113.996094 C 228.980469 111.738281 223.210938 112.890625 218.066406 115.601562 C 207.3125 121.269531 203.296875 136.4375 209.40625 146.875 Z M 209.40625 146.875 " fill-opacity="1" fill-rule="nonzero"/><path fill="#fffbeb" d="M 156.128906 118.21875 C 159.816406 115.378906 159.835938 110.785156 157.53125 107 C 155.710938 104.015625 151.839844 101.074219 148.574219 103.683594 C 148.386719 103.832031 148.625 104.117188 148.820312 104.003906 C 152.546875 101.914062 156.050781 105.636719 157.363281 108.773438 C 158.84375 112.304688 157.796875 115.710938 154.453125 117.632812 C 145.925781 122.546875 144.480469 108.824219 147.011719 103.800781 C 147.097656 103.636719 146.871094 103.425781 146.738281 103.589844 C 144.125 106.863281 143.578125 113.257812 145.824219 116.878906 C 148.117188 120.566406 152.875 120.726562 156.128906 118.21875 Z M 156.128906 118.21875 " fill-opacity="1" fill-rule="nonzero"/><path fill="#fffbeb" d="M 149.957031 104.484375 C 149.929688 104.464844 149.898438 104.507812 149.921875 104.535156 C 151.40625 106.167969 152.714844 107.871094 153.488281 109.96875 C 154.203125 111.902344 154.089844 113.808594 154.339844 115.800781 C 154.363281 115.976562 154.601562 116.03125 154.660156 115.84375 C 155.085938 114.546875 155.070312 113.105469 154.746094 111.679688 C 154.945312 110.476562 154.902344 109.183594 155.027344 107.980469 C 155.035156 107.886719 154.882812 107.867188 154.867188 107.957031 C 154.703125 108.796875 154.507812 109.726562 154.445312 110.636719 C 154.28125 110.140625 154.089844 109.652344 153.859375 109.179688 C 154.082031 108.070312 154.039062 106.914062 153.957031 105.792969 C 153.945312 105.609375 153.664062 105.605469 153.671875 105.792969 C 153.71875 106.761719 153.648438 107.71875 153.613281 108.683594 C 153.398438 108.285156 153.175781 107.894531 152.921875 107.523438 C 152.851562 107.007812 152.730469 106.503906 152.695312 105.980469 C 152.660156 105.4375 152.6875 104.882812 152.609375 104.347656 C 152.609375 104.335938 152.59375 104.339844 152.589844 104.347656 C 152.324219 105.058594 152.304688 106.015625 152.453125 106.871094 C 151.703125 105.90625 150.851562 105.074219 149.957031 104.484375 Z M 149.957031 104.484375 " fill-opacity="1" fill-rule="nonzero"/><path fill="#fffbeb" d="M 156.039062 110 C 155.707031 111.113281 155.28125 112.316406 155.1875 113.480469 C 155.179688 113.589844 155.332031 113.59375 155.367188 113.503906 C 155.796875 112.425781 155.945312 111.167969 156.140625 110.027344 C 156.152344 109.964844 156.058594 109.9375 156.039062 110 Z M 156.039062 110 " fill-opacity="1" fill-rule="nonzero"/><path fill="#fffbeb" d="M 155.601562 115.265625 C 156.050781 114.082031 156.347656 112.835938 156.691406 111.617188 C 156.722656 111.503906 156.554688 111.457031 156.515625 111.566406 C 156.109375 112.769531 155.644531 113.964844 155.347656 115.195312 C 155.304688 115.367188 155.542969 115.425781 155.601562 115.265625 Z M 155.601562 115.265625 " fill-opacity="1" fill-rule="nonzero"/><path fill="#fffbeb" d="M 194.226562 62.796875 C 201.703125 70.019531 213.585938 73.675781 222.664062 67.214844 C 222.78125 67.132812 222.679688 66.949219 222.550781 67.023438 C 213.792969 72.027344 203.527344 68.695312 196.273438 62.5 C 193.019531 59.71875 190.996094 56.179688 189.972656 52.039062 C 189.121094 48.570312 187.828125 41.199219 190.484375 38.273438 C 190.535156 38.214844 190.46875 38.109375 190.398438 38.160156 C 187.292969 40.367188 187.875 47.011719 188.273438 50.289062 C 188.847656 55.039062 190.753906 59.445312 194.226562 62.796875 Z M 194.226562 62.796875 " fill-opacity="1" fill-rule="nonzero"/><path fill="#fffbeb" d="M 206.386719 45.28125 C 207.179688 44.507812 207.839844 43.59375 208.644531 42.8125 C 209.523438 41.960938 210.488281 41.207031 211.507812 40.53125 C 211.613281 40.457031 211.515625 40.285156 211.402344 40.355469 C 209.503906 41.542969 207.3125 43.148438 206.210938 45.148438 C 206.152344 45.253906 206.292969 45.371094 206.386719 45.28125 Z M 206.386719 45.28125 " fill-opacity="1" fill-rule="nonzero"/><path fill="#fffbeb" d="M 211.015625 42.070312 C 211.101562 42.015625 211.023438 41.875 210.933594 41.929688 C 210.351562 42.277344 209.808594 42.679688 209.320312 43.148438 C 208.894531 43.558594 208.378906 44.074219 208.183594 44.644531 C 208.144531 44.757812 208.296875 44.828125 208.371094 44.753906 C 208.804688 44.34375 209.109375 43.785156 209.519531 43.34375 C 209.96875 42.859375 210.46875 42.441406 211.015625 42.070312 Z M 211.015625 42.070312 " fill-opacity="1" fill-rule="nonzero"/><path fill="#fffbeb" d="M 210.929688 43.386719 C 210.5625 43.671875 210.203125 43.96875 209.867188 44.289062 C 209.582031 44.566406 209.222656 44.898438 209.058594 45.265625 C 209.019531 45.355469 209.113281 45.492188 209.214844 45.421875 C 209.542969 45.183594 209.804688 44.800781 210.074219 44.496094 C 210.382812 44.144531 210.695312 43.808594 211.03125 43.488281 C 211.097656 43.421875 211 43.328125 210.929688 43.386719 Z M 210.929688 43.386719 " fill-opacity="1" fill-rule="nonzero"/><path fill="#fffbeb" d="M 210.425781 46.15625 C 210.933594 45.667969 211.332031 45.066406 211.757812 44.507812 C 211.835938 44.410156 211.664062 44.277344 211.582031 44.375 C 211.128906 44.914062 210.632812 45.433594 210.265625 46.035156 C 210.203125 46.132812 210.347656 46.238281 210.425781 46.15625 Z M 210.425781 46.15625 " fill-opacity="1" fill-rule="nonzero"/><path fill="#fffbeb" d="M 75.367188 247.148438 C 72.804688 244.921875 69.609375 243.339844 66.183594 243.210938 C 66.0625 243.203125 66.050781 243.375 66.15625 243.410156 C 69.894531 244.628906 73.402344 246.09375 76.082031 249.101562 C 78.320312 251.617188 79.417969 254.886719 81.886719 257.207031 C 82.085938 257.394531 82.460938 257.144531 82.285156 256.894531 C 79.960938 253.605469 78.472656 249.84375 75.367188 247.148438 Z M 75.367188 247.148438 " fill-opacity="1" fill-rule="nonzero"/><path fill="#fffbeb" d="M 88.609375 267.085938 C 86.851562 265.179688 85.496094 263.105469 84.253906 260.847656 C 84.203125 260.757812 84.050781 260.816406 84.085938 260.917969 C 85.628906 265.464844 89.714844 269.433594 93.46875 272.257812 C 93.628906 272.378906 93.808594 272.121094 93.679688 271.984375 C 92.046875 270.296875 90.210938 268.816406 88.609375 267.085938 Z M 88.609375 267.085938 " fill-opacity="1" fill-rule="nonzero"/><path fill="#fffbeb" d="M 72.605469 154.898438 C 72.769531 152.933594 72.753906 151.082031 73.148438 149.128906 C 73.445312 147.640625 73.816406 146.148438 73.890625 144.632812 C 73.894531 144.554688 73.820312 144.53125 73.761719 144.550781 C 73.859375 144.285156 73.976562 144.027344 74.101562 143.78125 C 74.195312 143.773438 74.285156 143.734375 74.359375 143.648438 C 74.488281 143.503906 74.617188 143.351562 74.75 143.195312 C 78.363281 142.210938 82.019531 143.6875 84.21875 146.730469 C 86.519531 149.910156 86.53125 152.9375 84.582031 155.988281 C 83.175781 156.851562 81.546875 157.214844 79.953125 158.21875 C 79.394531 158.570312 78.824219 159.671875 78.222656 159.878906 C 75.898438 160.679688 73.636719 157.226562 72.359375 155.90625 C 72.105469 155.644531 71.695312 155.976562 71.863281 156.289062 C 72.839844 158.101562 74.101562 162.015625 76.101562 162.890625 C 78.183594 163.796875 79.351562 162.023438 80.796875 160.984375 C 82.863281 159.496094 85.179688 159.726562 87.128906 157.746094 C 89.050781 155.789062 90.242188 153.179688 90.640625 150.484375 C 92.1875 140.023438 77.539062 130.085938 73.628906 143.21875 C 73.585938 143.355469 73.625 143.476562 73.699219 143.574219 C 73.351562 144.417969 73.191406 145.375 73.152344 146.191406 C 72.199219 148.960938 71.214844 152.386719 72.183594 154.953125 C 72.273438 155.183594 72.585938 155.144531 72.605469 154.898438 Z M 72.605469 154.898438 " fill-opacity="1" fill-rule="nonzero"/><path fill="#fffbeb" d="M 92.027344 154.152344 C 91.996094 154.261719 92.160156 154.335938 92.214844 154.230469 C 95.542969 147.628906 90.601562 137.4375 83.433594 135.660156 C 83.335938 135.636719 83.265625 135.785156 83.363281 135.828125 C 90.152344 138.894531 94.066406 147.027344 92.027344 154.152344 Z M 92.027344 154.152344 " fill-opacity="1" fill-rule="nonzero"/><path fill="#fffbeb" d="M 78.996094 146.21875 C 79.789062 146.667969 80.503906 147.222656 81.109375 147.902344 C 81.675781 148.535156 82.023438 149.296875 82.550781 149.953125 C 82.644531 150.070312 82.816406 149.9375 82.789062 149.8125 C 82.410156 148.136719 80.574219 146.726562 79.132812 145.992188 C 78.980469 145.917969 78.847656 146.136719 78.996094 146.21875 Z M 78.996094 146.21875 " fill-opacity="1" fill-rule="nonzero"/><path fill="#fffbeb" d="M 81.496094 146.992188 C 81.890625 147.375 82.210938 147.871094 82.628906 148.222656 C 82.710938 148.292969 82.878906 148.226562 82.835938 148.101562 C 82.640625 147.578125 82.148438 147.113281 81.726562 146.769531 C 81.367188 146.472656 80.855469 145.992188 80.378906 145.960938 C 80.355469 145.960938 80.339844 145.988281 80.351562 146.007812 C 80.464844 146.179688 80.601562 146.253906 80.769531 146.375 C 81.027344 146.566406 81.269531 146.773438 81.496094 146.992188 Z M 81.496094 146.992188 " fill-opacity="1" fill-rule="nonzero"/><path fill="#fffbeb" d="M 213.375 132.335938 C 213.351562 132.425781 213.480469 132.460938 213.511719 132.375 C 214.917969 128.449219 216.132812 124.902344 219.691406 122.402344 C 219.722656 122.378906 219.695312 122.328125 219.660156 122.347656 C 216.085938 124.324219 214.253906 128.523438 213.375 132.335938 Z M 213.375 132.335938 " fill-opacity="1" fill-rule="nonzero"/><path fill="#fffbeb" d="M 216.253906 123.84375 C 214.871094 125.53125 213.664062 127.644531 213.183594 129.792969 C 213.164062 129.871094 213.273438 129.894531 213.300781 129.824219 C 214.167969 127.707031 215.015625 125.785156 216.289062 123.871094 C 216.304688 123.851562 216.269531 123.824219 216.253906 123.84375 Z M 216.253906 123.84375 " fill-opacity="1" fill-rule="nonzero"/><path fill="#fffbeb" d="M 242.609375 127.824219 C 241.175781 126.304688 239.277344 125.390625 237.765625 123.957031 C 237.726562 123.921875 237.675781 123.976562 237.707031 124.015625 C 239.730469 126.566406 242.542969 127.9375 244.152344 130.914062 C 245.761719 133.890625 246.175781 137.351562 245.566406 140.65625 C 245.546875 140.757812 245.691406 140.800781 245.722656 140.699219 C 246.605469 137.703125 246.390625 134.625 245.15625 131.753906 C 244.539062 130.3125 243.6875 128.972656 242.609375 127.824219 Z M 242.609375 127.824219 " fill-opacity="1" fill-rule="nonzero"/><path fill="#fffbeb" d="M 198.207031 179.210938 C 198.175781 179.195312 198.140625 179.199219 198.109375 179.199219 C 198.113281 179.1875 198.117188 179.175781 198.117188 179.167969 C 198.125 179.121094 198.074219 179.082031 198.039062 179.121094 C 197.648438 179.511719 197.386719 180.042969 197.105469 180.515625 C 196.882812 180.886719 196.628906 181.285156 196.707031 181.738281 C 196.8125 182.398438 197.558594 182.828125 198.191406 182.722656 C 198.90625 182.609375 199.347656 181.890625 199.382812 181.210938 C 199.433594 180.390625 198.914062 179.601562 198.207031 179.210938 Z M 197.996094 182.101562 C 197.769531 182.109375 197.496094 181.96875 197.375 181.769531 C 197.171875 181.429688 197.433594 181.027344 197.5625 180.710938 C 197.605469 180.597656 197.65625 180.488281 197.703125 180.375 C 197.65625 180.96875 197.78125 181.660156 198.152344 182.074219 C 198.105469 182.089844 198.054688 182.101562 197.996094 182.101562 Z M 198.378906 181.988281 C 198.257812 181.695312 198.078125 181.421875 197.992188 181.101562 C 197.902344 180.746094 197.890625 180.382812 197.902344 180.019531 C 197.976562 179.902344 198.050781 179.789062 198.132812 179.675781 C 198.425781 179.996094 198.714844 180.328125 198.816406 180.765625 C 198.910156 181.1875 198.757812 181.75 198.378906 181.988281 Z M 198.378906 181.988281 " fill-opacity="1" fill-rule="nonzero"/><path fill="#fffbeb" d="M 87.6875 191.527344 C 87.523438 194.386719 89.605469 197.308594 91.066406 199.617188 C 92.570312 201.996094 94.398438 204.328125 96.902344 205.722656 C 101.773438 208.433594 109.980469 206.609375 113.070312 201.855469 C 114.089844 200.285156 114.683594 198.386719 115.058594 196.453125 C 115.890625 194.289062 116.390625 191.980469 116.148438 189.683594 C 115.9375 187.703125 115.144531 185.976562 114.09375 184.375 C 114.09375 184.371094 114.09375 184.371094 114.09375 184.371094 C 112.058594 178.671875 105.703125 177.058594 100.332031 178.839844 C 97.28125 179.851562 94.515625 181.703125 92.226562 183.945312 C 90.222656 185.898438 87.859375 188.578125 87.6875 191.527344 Z M 95.457031 183.054688 C 99.527344 180.011719 105.859375 178.304688 110.324219 180.765625 C 111.960938 182.453125 112.820312 184.757812 113.957031 186.867188 C 114.496094 188.761719 114.566406 190.753906 114.347656 192.816406 C 114.011719 195.972656 113.449219 200.019531 111.066406 202.328125 C 108.566406 204.75 103.828125 206.105469 100.433594 205.53125 C 97.195312 204.984375 94.800781 202.574219 93.007812 199.976562 C 91.40625 197.660156 88.671875 193.988281 89.183594 191.066406 C 89.746094 187.867188 92.972656 184.914062 95.457031 183.054688 Z M 95.457031 183.054688 " fill-opacity="1" fill-rule="nonzero"/><path fill="#fffbeb" d="M 100.421875 201.652344 C 103.003906 202.582031 106.699219 201.824219 108.875 200.179688 C 109.738281 199.523438 109.976562 198.886719 110.265625 197.882812 C 110.808594 195.992188 111.167969 193.925781 111.269531 191.957031 C 111.398438 189.417969 110.953125 186.769531 109.429688 184.675781 C 106.417969 180.542969 101.523438 182.683594 97.726562 185.253906 C 95.851562 186.085938 94.28125 187.554688 93.222656 189.324219 C 91.648438 191.957031 92.441406 193.542969 94.207031 195.789062 C 95.863281 197.890625 97.804688 200.703125 100.421875 201.652344 Z M 101.589844 183.644531 C 104.003906 182.671875 106.433594 182.402344 108.195312 184.144531 C 109.917969 185.851562 110.628906 188.324219 110.6875 190.691406 C 110.722656 192.082031 110.542969 193.453125 110.304688 194.816406 C 110.074219 196.125 109.847656 198.421875 108.921875 199.378906 C 107.296875 201.054688 103.554688 201.652344 101.378906 201.183594 C 100.972656 201.097656 100.597656 200.945312 100.230469 200.769531 C 99.765625 200.445312 99.367188 200.019531 99.003906 199.558594 C 99 199.546875 99.003906 199.542969 99 199.535156 C 98.675781 198.863281 98.273438 198.246094 97.855469 197.648438 C 97.570312 197.023438 97.34375 196.371094 97.144531 195.71875 C 97.070312 195.414062 96.984375 195.117188 96.894531 194.820312 C 96.710938 194.101562 96.566406 193.398438 96.46875 192.753906 C 95.796875 188.453125 98.488281 185.96875 101.589844 183.644531 Z M 101.589844 183.644531 " fill-opacity="1" fill-rule="nonzero"/><path fill="#fffbeb" d="M 111.449219 194.859375 C 111.4375 194.910156 111.515625 194.933594 111.527344 194.882812 C 112.605469 191.183594 112.148438 187.015625 110.207031 183.671875 C 110.199219 183.664062 110.1875 183.671875 110.1875 183.683594 C 111.777344 187.378906 112.207031 190.890625 111.449219 194.859375 Z M 111.449219 194.859375 " fill-opacity="1" fill-rule="nonzero"/><path fill="#fffbeb" d="M 112.21875 189.953125 C 112.226562 190.019531 112.332031 190.015625 112.347656 189.953125 C 112.636719 188.800781 112.292969 187.414062 111.824219 186.351562 C 111.800781 186.296875 111.722656 186.335938 111.738281 186.386719 C 111.898438 187.050781 112.042969 187.707031 112.113281 188.386719 C 112.164062 188.90625 112.140625 189.429688 112.21875 189.953125 Z M 112.21875 189.953125 " fill-opacity="1" fill-rule="nonzero"/><path fill="#fffbeb" d="M 112.496094 189.351562 C 112.5 189.4375 112.636719 189.464844 112.652344 189.375 C 112.773438 188.613281 112.710938 187.644531 112.34375 186.960938 C 112.335938 186.949219 112.316406 186.953125 112.316406 186.96875 C 112.332031 187.363281 112.421875 187.753906 112.453125 188.152344 C 112.480469 188.550781 112.476562 188.949219 112.496094 189.351562 Z M 112.496094 189.351562 " fill-opacity="1" fill-rule="nonzero"/><path fill="#fffbeb" d="M 99.859375 193.296875 C 100.285156 190.34375 100.769531 187.882812 102.808594 185.578125 C 102.824219 185.5625 102.800781 185.527344 102.777344 185.542969 C 100.441406 187.285156 99.792969 190.527344 99.6875 193.269531 C 99.679688 193.371094 99.847656 193.394531 99.859375 193.296875 Z M 99.859375 193.296875 " fill-opacity="1" fill-rule="nonzero"/><path fill="#fffbeb" d="M 102.152344 187.511719 C 101.410156 188.648438 101.03125 190.039062 100.980469 191.382812 C 100.980469 191.441406 101.078125 191.460938 101.085938 191.398438 C 101.292969 190.023438 101.683594 188.8125 102.199219 187.53125 C 102.210938 187.503906 102.164062 187.488281 102.152344 187.511719 Z M 102.152344 187.511719 " fill-opacity="1" fill-rule="nonzero"/><path fill="#fffbeb" d="M 102.167969 190.527344 C 102.433594 189.742188 102.710938 189.015625 103.082031 188.273438 C 103.101562 188.238281 103.054688 188.210938 103.03125 188.242188 C 102.550781 188.878906 102.179688 189.707031 102.066406 190.5 C 102.058594 190.5625 102.144531 190.589844 102.167969 190.527344 Z M 102.167969 190.527344 " fill-opacity="1" fill-rule="nonzero"/><path fill="#fffbeb" d="M 103.207031 191.183594 C 103.460938 190.507812 103.683594 189.820312 103.972656 189.15625 C 104.003906 189.089844 103.90625 189.03125 103.871094 189.097656 C 103.570312 189.765625 103.28125 190.445312 103.113281 191.160156 C 103.101562 191.21875 103.183594 191.242188 103.207031 191.183594 Z M 103.207031 191.183594 " fill-opacity="1" fill-rule="nonzero"/><path fill="#fffbeb" d="M 114.949219 158.304688 C 115.421875 158.078125 115.792969 157.546875 116.167969 157.210938 C 116.921875 156.539062 117.652344 156.160156 118.59375 155.839844 C 119.214844 155.628906 120.246094 155.425781 120.421875 154.652344 C 120.589844 153.902344 119.632812 153.183594 119.214844 152.730469 C 118.777344 152.25 118.460938 151.554688 117.789062 151.929688 C 117.195312 152.265625 116.804688 153.09375 116.539062 153.835938 C 115.953125 154.589844 115.367188 155.34375 114.761719 156.089844 C 114.410156 156.515625 113.40625 157.285156 113.652344 157.960938 C 113.847656 158.503906 114.523438 158.511719 114.949219 158.304688 Z M 114.949219 158.304688 " fill-opacity="1" fill-rule="nonzero"/><g clip-path="url(#dc1be97371)"><path fill="#fffbeb" d="M 481.546875 43.640625 C 481.421875 43.507812 481.277344 43.382812 481.125 43.257812 C 481.160156 43.109375 481.121094 42.949219 480.960938 42.875 C 480.234375 42.53125 479.507812 42.214844 478.777344 41.910156 C 476.808594 40.679688 474 39.914062 471.304688 39.40625 C 453.339844 34.769531 433.722656 38.902344 416.011719 43.253906 C 404.757812 46.019531 393.714844 49.527344 383.050781 54.085938 C 375.0625 57.5 366.441406 61.4375 359.03125 66.558594 C 359.027344 66.554688 359.027344 66.554688 359.027344 66.550781 C 355.21875 63.671875 351.0625 61.230469 347.027344 58.6875 C 343.6875 56.582031 340.351562 54.191406 336.6875 52.695312 C 336.980469 52.367188 337.269531 52.039062 337.5625 51.707031 C 341.230469 47.53125 343.820312 42.625 347.007812 38.101562 C 349.078125 35.167969 351.296875 32.605469 354.167969 30.441406 C 355.890625 29.136719 357.902344 27.984375 359.070312 26.097656 C 360.464844 23.847656 360.585938 21.023438 358.710938 19.25 C 360.03125 15.84375 360.199219 11.917969 357.703125 9.375 C 353.6875 5.28125 349.105469 11.902344 347.1875 14.988281 C 344.910156 18.648438 343.15625 22.582031 339.71875 25.332031 C 336.492188 27.914062 332.851562 29.847656 329.742188 32.601562 C 329.316406 32.976562 328.894531 33.363281 328.472656 33.757812 C 328.386719 21.625 320.851562 9.875 309.609375 5.128906 C 297.917969 0.191406 284.179688 4.347656 276.269531 14.023438 C 268.621094 23.378906 266.222656 37.257812 271.328125 48.367188 C 275.277344 56.945312 285.707031 64.089844 295.148438 61.164062 C 295.054688 61.246094 294.960938 61.332031 294.867188 61.414062 C 293.28125 61.84375 292.355469 63.035156 291.882812 64.507812 C 291.851562 64.542969 291.820312 64.578125 291.792969 64.613281 C 291.71875 64.707031 291.734375 64.804688 291.78125 64.882812 C 291.4375 66.183594 291.402344 67.65625 291.542969 68.996094 C 292.242188 75.558594 294.015625 82.4375 296.15625 88.667969 C 297.105469 91.429688 298.210938 94.148438 299.542969 96.746094 C 300.601562 98.8125 301.9375 102.25 303.855469 103.59375 C 304.371094 103.957031 304.945312 104.125 305.546875 104.152344 C 305.652344 104.921875 305.886719 105.675781 306.175781 106.410156 C 306.367188 108.476562 307.132812 110.078125 308.277344 111.292969 C 307.589844 111.769531 306.921875 112.285156 306.269531 112.839844 C 297.65625 94.996094 285.394531 79.003906 270.660156 66.066406 C 256.414062 53.472656 239.695312 43.722656 221.765625 37.535156 C 203.835938 31.335938 184.726562 28.695312 165.835938 29.707031 C 146.597656 30.714844 127.582031 35.546875 110.25 43.886719 C 92.902344 52.203125 77.257812 63.988281 64.476562 78.324219 C 51.675781 92.640625 41.730469 109.492188 35.433594 127.617188 C 29.109375 145.738281 26.484375 165.109375 27.59375 184.246094 C 28.210938 195.183594 30.09375 206.050781 33.160156 216.570312 C 27.101562 222.257812 22.496094 229.773438 18.941406 237.199219 C 15.132812 245.164062 12.386719 253.644531 10.90625 262.351562 C 9.824219 268.6875 9.394531 275.253906 9.660156 281.816406 C 7.414062 286.226562 6.476562 291.722656 5.757812 296.511719 C 4.996094 301.578125 4.652344 306.707031 4.777344 311.832031 C 5.035156 322.066406 6.59375 333.738281 12.417969 342.421875 C 15.101562 346.421875 18.632812 349.730469 22.371094 352.726562 C 26.304688 355.878906 30.414062 359.085938 34.808594 361.558594 C 39.441406 364.164062 44.707031 365.613281 49.816406 366.949219 C 54.230469 368.105469 58.867188 369.078125 63.46875 369.324219 C 71.0625 372.28125 79.121094 374.042969 87.265625 374.414062 C 95.949219 374.8125 104.734375 373.691406 113.058594 371.1875 C 117.105469 369.96875 121.027344 368.273438 124.761719 366.296875 C 127.496094 364.847656 130.550781 363.328125 132.835938 361.144531 C 141.902344 359.449219 150.800781 356.960938 159.3125 353.375 C 167.214844 350.046875 174.78125 345.808594 181.457031 340.398438 C 184.792969 337.695312 187.996094 334.738281 190.714844 331.410156 C 190.761719 331.355469 190.808594 331.296875 190.851562 331.246094 C 190.929688 331.40625 191.078125 331.539062 191.316406 331.582031 C 206.589844 334.183594 223.300781 328.253906 235.296875 318.929688 C 243.320312 312.695312 249.882812 304.582031 254.78125 295.59375 C 263.152344 289.796875 270.921875 283.140625 277.875 275.714844 C 283.898438 269.296875 289.535156 262.171875 294.492188 254.46875 C 296.847656 250.816406 299.027344 247.023438 301.050781 243.136719 C 304.09375 254.695312 307.160156 266.242188 310.210938 277.800781 C 310.375 278.421875 311.125 278.910156 311.757812 278.679688 C 320.582031 275.445312 329.3125 271.964844 337.925781 268.199219 C 340.675781 266.996094 343.070312 266.21875 343.453125 262.980469 C 343.929688 258.953125 342.9375 254.535156 343.105469 250.429688 C 343.820312 232.976562 350.671875 216.511719 360.992188 202.578125 C 373.363281 195.308594 385.15625 186.972656 396.386719 177.988281 C 423.285156 156.460938 448.660156 131.609375 464.273438 100.480469 C 471.1875 86.691406 477.917969 71.1875 480.058594 55.480469 C 481.074219 52.289062 481.847656 48.976562 482.203125 45.839844 C 482.34375 44.59375 482.359375 44.496094 481.546875 43.640625 Z M 311.082031 114.6875 C 311.316406 114.539062 311.496094 114.316406 311.609375 114.0625 C 311.734375 113.917969 311.859375 113.765625 311.984375 113.621094 C 315.621094 114.925781 320.25 114.664062 323.753906 113.632812 C 333.328125 110.828125 341.488281 103.660156 348.578125 96.945312 C 348.601562 96.925781 348.605469 96.898438 348.625 96.875 C 349.464844 98.203125 350.242188 99.574219 350.792969 101.035156 C 351.59375 103.160156 351.636719 105.527344 352.515625 107.613281 C 353.335938 109.5625 354.691406 110.964844 356.828125 111.144531 C 363.453125 111.710938 369.847656 103.464844 372.929688 98.601562 C 375.445312 94.628906 379.472656 85.75 374.574219 81.9375 C 370.746094 78.953125 366.023438 82.28125 363.394531 85.921875 C 363.71875 80.496094 362.011719 74.738281 357.800781 71.980469 C 364.984375 67.691406 371.710938 62.714844 379.085938 58.691406 C 381.28125 57.492188 383.507812 56.378906 385.75 55.308594 C 396.792969 51.453125 407.605469 47.273438 419.019531 44.488281 C 426.878906 42.570312 434.800781 41.394531 442.75 40.316406 C 447.613281 39.921875 452.46875 39.617188 457.414062 39.886719 C 455.914062 50.128906 466.132812 60.207031 475.210938 63.382812 C 474.234375 66.183594 473.34375 69.03125 472.199219 71.78125 C 470.503906 75.863281 469.179688 79.972656 467.816406 84.167969 C 466.410156 88.5 464.25 92.488281 462.21875 96.542969 C 460.785156 99.40625 459.394531 102.296875 458.007812 105.183594 C 455.195312 109.253906 452.34375 113.296875 449.582031 117.402344 C 445.023438 124.191406 440.234375 130.742188 435.125 137.074219 C 435.082031 137.109375 435.039062 137.148438 435 137.1875 C 430.777344 141.160156 426.558594 145.128906 422.367188 149.132812 C 415.667969 155.527344 408.453125 161.738281 402.058594 168.527344 C 402.011719 168.566406 401.960938 168.605469 401.917969 168.640625 C 396.925781 172.125 392.019531 175.71875 387.179688 179.402344 C 379.128906 185.53125 371.316406 191.851562 363.023438 197.605469 C 362.636719 197.820312 362.246094 198.035156 361.859375 198.25 C 355.746094 201.605469 349.089844 204.453125 343.007812 208.011719 C 338.726562 209.554688 334.539062 211.496094 330.363281 213.410156 C 328.925781 213.914062 327.488281 214.414062 326.039062 214.894531 C 321.429688 216.433594 316.8125 217.945312 312.179688 219.40625 C 309.503906 220.246094 306.75 221.316406 303.960938 222.175781 C 303.484375 221.347656 302.960938 220.546875 302.390625 219.777344 C 299.136719 213.035156 293.625 206.714844 288.960938 201.273438 C 283.648438 195.078125 277.441406 188.109375 270.34375 183.640625 C 269.6875 183.070312 269.050781 182.441406 268.8125 181.675781 C 271.628906 173.757812 274.910156 166.050781 278.914062 158.59375 C 284.554688 148.097656 291.535156 138.496094 298.9375 129.191406 C 302.867188 124.25 307 119.496094 311.082031 114.6875 Z M 357.367188 71.722656 C 357.359375 71.71875 357.347656 71.710938 357.335938 71.703125 C 357.398438 71.664062 357.460938 71.628906 357.527344 71.585938 C 357.472656 71.628906 357.421875 71.675781 357.367188 71.722656 Z M 272.945312 169.554688 C 272.976562 169.503906 273.007812 169.457031 273.039062 169.40625 C 272.921875 169.675781 272.8125 169.945312 272.695312 170.210938 C 272.78125 169.992188 272.859375 169.773438 272.945312 169.554688 Z M 302.246094 222.671875 C 300.652344 223.101562 299.046875 223.425781 297.441406 223.578125 C 296.828125 222.785156 296.199219 221.996094 295.558594 221.214844 C 296.136719 221.109375 296.699219 220.535156 297.125 220.207031 C 297.871094 219.628906 298.617188 219.054688 299.34375 218.457031 C 300.265625 219.898438 301.210938 221.324219 302.246094 222.671875 Z M 295.082031 217.589844 C 294.761719 217.863281 294.070312 218.347656 293.601562 218.875 C 292.359375 217.4375 291.089844 216.019531 289.808594 214.617188 C 290.417969 214.054688 290.960938 213.394531 291.566406 212.847656 C 292.398438 212.089844 293.296875 211.441406 294.195312 210.777344 C 294.796875 211.597656 295.390625 212.421875 295.976562 213.257812 C 296.535156 214.058594 297.078125 214.882812 297.609375 215.71875 C 296.699219 216.242188 295.855469 216.933594 295.082031 217.589844 Z M 289.882812 209.828125 C 289.058594 210.464844 288.109375 211.210938 287.472656 212.105469 C 286.605469 211.183594 285.742188 210.261719 284.878906 209.347656 C 285.601562 208.601562 286.230469 207.753906 286.992188 207.042969 C 287.839844 206.25 288.757812 205.589844 289.722656 204.976562 C 290.613281 206.066406 291.480469 207.179688 292.339844 208.300781 C 291.425781 208.578125 290.628906 209.246094 289.882812 209.828125 Z M 284.625 204.941406 C 284.101562 205.433594 283.113281 206.199219 282.683594 207.011719 C 281.308594 205.535156 279.925781 204.035156 278.515625 202.527344 C 279.71875 201.773438 280.714844 200.433594 281.703125 199.476562 C 282.253906 198.941406 282.832031 198.421875 283.375 197.871094 C 284.695312 199.203125 285.992188 200.558594 287.222656 201.988281 C 287.375 202.164062 287.519531 202.34375 287.671875 202.519531 C 286.570312 203.207031 285.566406 204.054688 284.625 204.941406 Z M 278.007812 201.988281 C 278.042969 201.972656 278.085938 201.964844 278.125 201.953125 C 278.105469 201.988281 278.089844 202.023438 278.070312 202.058594 C 278.050781 202.03125 278.027344 202.011719 278.007812 201.988281 Z M 278.933594 197.386719 C 278.074219 198.183594 276.882812 199.046875 276.175781 200.074219 C 274.980469 198.84375 273.765625 197.632812 272.519531 196.464844 C 273.445312 195.980469 274.304688 195.054688 274.996094 194.414062 C 275.800781 193.671875 276.605469 192.898438 277.285156 192.035156 C 278.515625 193.175781 279.742188 194.324219 280.957031 195.488281 C 280.191406 196.019531 279.5 196.863281 278.933594 197.386719 Z M 275.007812 189.925781 C 274.976562 189.957031 274.949219 189.988281 274.917969 190.023438 C 274.238281 190.730469 273.546875 191.421875 272.839844 192.105469 C 272.191406 192.734375 271.535156 193.355469 270.878906 193.980469 C 270.675781 194.175781 270.488281 194.339844 270.335938 194.511719 C 269.03125 193.386719 267.683594 192.339844 266.292969 191.363281 C 266.207031 191.113281 266.097656 190.871094 265.984375 190.632812 C 266.335938 189.332031 266.703125 188.035156 267.078125 186.746094 C 267.464844 185.578125 267.855469 184.417969 268.257812 183.257812 C 268.269531 183.269531 268.28125 183.28125 268.292969 183.292969 C 268.300781 183.308594 268.3125 183.324219 268.324219 183.335938 C 269.136719 184.246094 270.042969 185.179688 271.003906 186.085938 C 272.320312 187.386719 273.652344 188.664062 275.007812 189.925781 Z M 298.578125 225.101562 C 298.707031 225.128906 298.835938 225.160156 298.964844 225.183594 C 298.894531 225.234375 298.820312 225.28125 298.753906 225.335938 C 298.691406 225.261719 298.636719 225.179688 298.578125 225.101562 Z M 291.035156 134.839844 C 291.214844 134.574219 291.390625 134.300781 291.570312 134.03125 C 291.550781 134.070312 291.53125 134.105469 291.515625 134.148438 C 291.464844 134.238281 291.414062 134.335938 291.367188 134.425781 C 291.253906 134.5625 291.148438 134.707031 291.035156 134.839844 Z M 250.308594 146.34375 C 248.097656 146.796875 245.867188 147.171875 243.625 147.476562 C 245.34375 147.230469 247.054688 146.953125 248.757812 146.640625 C 249.277344 146.546875 249.796875 146.441406 250.308594 146.34375 Z M 216.394531 171.140625 C 216.328125 171.128906 216.261719 171.117188 216.195312 171.109375 C 216.28125 171.03125 216.375 170.964844 216.457031 170.882812 C 216.433594 170.96875 216.414062 171.054688 216.394531 171.140625 Z M 215.355469 170.980469 C 215.351562 170.980469 215.347656 170.976562 215.339844 170.976562 C 215.359375 170.941406 215.382812 170.90625 215.402344 170.871094 C 215.386719 170.910156 215.371094 170.945312 215.355469 170.980469 Z M 216.792969 171.203125 C 219.390625 167.140625 221.238281 162.492188 223.515625 158.25 C 224.734375 155.984375 225.996094 153.738281 227.320312 151.535156 C 227.542969 151.171875 227.816406 150.804688 228.058594 150.429688 C 232.953125 151.152344 238.183594 150.613281 243.003906 150.003906 C 249.140625 149.226562 255.136719 147.65625 260.996094 145.703125 C 271.214844 142.296875 281.441406 137.648438 290.804688 132.1875 C 287.429688 137.09375 284.304688 142.164062 281.425781 147.378906 C 274.222656 160.414062 268.640625 174.269531 264.652344 188.609375 C 263.941406 187.796875 263.109375 187.070312 262.203125 186.417969 C 259.378906 183.691406 255.597656 181.910156 251.777344 180.472656 C 249.21875 179.195312 246.621094 178.011719 243.972656 176.9375 C 235.910156 173.660156 227.269531 171.527344 218.554688 171.484375 C 217.96875 171.386719 217.378906 171.296875 216.792969 171.203125 Z M 297.625 226.972656 C 297.617188 227 297.601562 227.03125 297.59375 227.058594 C 297.542969 226.96875 297.5 226.875 297.449219 226.777344 C 297.507812 226.84375 297.566406 226.910156 297.625 226.972656 Z M 346.328125 59.878906 C 350.238281 62.355469 354.109375 64.972656 358.207031 67.136719 C 356.710938 68.203125 355.265625 69.316406 353.890625 70.484375 C 353.109375 70.355469 352.28125 70.300781 351.398438 70.332031 C 349.527344 70.398438 347.761719 70.855469 346.105469 71.578125 C 344.207031 69.988281 341.285156 69.183594 339.097656 68.117188 C 336.609375 66.902344 334.117188 65.394531 331.457031 64.570312 C 331.308594 62.75 331.191406 60.925781 331.027344 59.085938 C 332.765625 57.054688 334.566406 55.078125 336.382812 53.039062 C 339.328125 55.738281 342.964844 57.746094 346.328125 59.878906 Z M 335.054688 81.058594 C 334.0625 77.804688 333.003906 74.578125 332.324219 71.238281 C 331.925781 69.289062 331.703125 67.347656 331.527344 65.40625 C 333.695312 67.15625 336.363281 68.417969 338.820312 69.640625 C 340.578125 70.515625 342.601562 71.789062 344.628906 72.300781 C 342.742188 73.339844 341.015625 74.714844 339.480469 76.25 C 338.113281 77.609375 336.492188 79.257812 335.054688 81.058594 Z M 298.191406 39.117188 C 297.03125 37.964844 294.292969 35.65625 294.289062 33.796875 C 294.300781 33.78125 294.308594 33.761719 294.320312 33.746094 C 295.929688 31.285156 298.222656 32.277344 299.710938 33.875 C 300.164062 35.054688 300.925781 35.703125 301.90625 36.507812 C 303.207031 37.574219 305.152344 38.949219 304.046875 41.105469 C 303.734375 41.722656 303.347656 42.15625 302.90625 42.441406 C 300.960938 41.902344 299.613281 40.535156 298.191406 39.117188 Z M 302.253906 42.75 C 301.644531 42.945312 300.957031 42.9375 300.226562 42.777344 C 298.113281 42.316406 296.1875 40.539062 294.878906 38.789062 C 293.902344 37.484375 293.347656 35.859375 294.007812 34.332031 C 294.140625 36.078125 296.375 38.027344 297.371094 39.050781 C 298.664062 40.382812 300.28125 42.425781 302.253906 42.75 Z M 314.082031 9.609375 C 314.128906 9.703125 314.183594 9.785156 314.222656 9.886719 C 314.585938 10.949219 314.128906 12.042969 313.167969 12.605469 C 311.964844 13.308594 310.691406 12.835938 310.246094 11.511719 C 310.074219 10.996094 309.996094 10.425781 309.972656 9.886719 C 309.957031 9.609375 309.964844 9.328125 309.984375 9.050781 C 309.949219 8.316406 310.382812 7.945312 311.28125 7.941406 C 311.3125 7.96875 311.351562 7.964844 311.378906 7.945312 C 312.324219 8.460938 313.234375 9.007812 314.082031 9.609375 Z M 314.671875 15.273438 C 315.09375 15.566406 315.3125 16.113281 315.296875 16.660156 C 315.296875 16.667969 315.292969 16.675781 315.292969 16.683594 C 315.285156 16.953125 315.222656 17.21875 315.097656 17.449219 C 314.582031 18.417969 313.25 18.886719 312.417969 18.019531 C 311.957031 17.539062 311.839844 16.84375 312.191406 16.261719 C 312.457031 15.828125 313.175781 15.027344 313.734375 15.144531 C 313.777344 15.152344 313.800781 15.113281 313.796875 15.074219 C 313.828125 15.070312 313.855469 15.0625 313.882812 15.0625 C 314.027344 15.054688 314.152344 15.070312 314.273438 15.101562 C 314.308594 15.113281 314.335938 15.121094 314.371094 15.132812 C 314.476562 15.167969 314.574219 15.210938 314.664062 15.269531 C 314.667969 15.269531 314.671875 15.269531 314.671875 15.273438 Z M 307.839844 6.378906 C 307.832031 6.363281 307.816406 6.339844 307.808594 6.320312 C 307.828125 6.328125 307.851562 6.335938 307.871094 6.339844 C 307.863281 6.355469 307.84375 6.359375 307.839844 6.378906 Z M 297.9375 58.941406 C 286.214844 61.980469 275.414062 56.195312 271.746094 44.480469 C 268.394531 33.769531 271.527344 21.316406 279.3125 13.28125 C 286.136719 6.238281 296.554688 3.164062 305.929688 5.722656 C 305.933594 5.769531 305.9375 5.820312 305.941406 5.871094 C 305.847656 6.085938 305.839844 6.34375 305.980469 6.617188 C 305.992188 6.644531 306.003906 6.667969 306.015625 6.695312 C 306.292969 10.898438 305.164062 14.652344 303.035156 18.40625 C 301.664062 20.832031 299.765625 23.058594 299.011719 25.792969 C 298.34375 28.234375 298.523438 30.753906 299.472656 32.941406 C 297.996094 31.371094 295.933594 30.789062 294.089844 32.847656 C 291.09375 36.199219 294.539062 39.808594 297.058594 41.992188 C 298.183594 42.96875 299.425781 44.46875 301.066406 44.152344 C 302.289062 43.921875 303.820312 42.789062 304.523438 41.757812 C 305.457031 40.394531 305.242188 39.195312 304.535156 38.105469 C 308.933594 40.167969 313.445312 38.539062 317.625 36.25 C 320.925781 34.441406 325.140625 32.207031 326.460938 28.488281 C 327.027344 30.386719 327.496094 32.335938 327.898438 34.296875 C 322.421875 39.546875 317.21875 46.359375 314.332031 53.164062 C 314.195312 53.480469 314.566406 53.855469 314.851562 53.5625 C 319.039062 49.214844 322.117188 43.796875 326.125 39.253906 C 330.246094 34.582031 335.117188 31.550781 339.886719 27.683594 C 343.710938 24.582031 345.769531 20.472656 348.25 16.324219 C 349.050781 14.984375 349.886719 13.617188 350.914062 12.433594 C 352.457031 10.648438 354.761719 9.078125 357.074219 11.035156 C 358.636719 12.359375 358 16.492188 357.574219 18.113281 C 357.019531 20.242188 355.953125 22 354.582031 23.691406 C 354.15625 24.214844 354.824219 24.925781 355.335938 24.445312 C 356.496094 23.351562 357.578125 21.773438 358.371094 20.011719 C 361.648438 25.289062 351.363281 30.269531 348.429688 33.492188 C 345.605469 36.597656 343.484375 40.289062 341.203125 43.789062 C 338.449219 48.019531 335.199219 51.574219 331.726562 55.203125 C 328.996094 58.058594 326.046875 61.183594 325.386719 65.21875 C 325.324219 65.59375 325.773438 65.804688 326 65.480469 C 327.378906 63.5 328.832031 61.667969 330.332031 59.886719 C 329.027344 67.167969 330.640625 75.757812 334.25 82.105469 C 332.75 84.164062 331.578125 86.386719 331.34375 88.597656 C 331.328125 88.753906 331.53125 88.765625 331.605469 88.667969 C 336.082031 82.769531 340.734375 74.628906 348.386719 72.445312 C 349.730469 72.0625 351.070312 71.921875 352.355469 72 C 352.398438 72.074219 352.492188 72.125 352.585938 72.078125 C 352.625 72.058594 352.660156 72.039062 352.699219 72.019531 C 355.820312 72.3125 358.597656 73.988281 360.3125 77.054688 C 362.28125 80.578125 362.0625 84.527344 361.945312 88.40625 C 361.875 88.570312 361.808594 88.730469 361.75 88.886719 C 361.714844 88.988281 361.84375 89.074219 361.929688 89.023438 C 361.925781 89.183594 361.921875 89.339844 361.917969 89.496094 C 361.910156 90.023438 362.714844 90.140625 362.839844 89.621094 C 363.011719 88.925781 363.144531 88.207031 363.238281 87.480469 C 364.402344 86.082031 365.609375 84.695312 367.117188 83.695312 C 369.863281 81.871094 370.097656 82.199219 372.808594 84.574219 C 375.605469 87.03125 375.746094 87.292969 375.007812 90.609375 C 373.855469 95.769531 370.476562 100.417969 366.859375 104.160156 C 364.992188 106.09375 362.566406 108.453125 359.855469 109.082031 C 358.328125 109.433594 355.664062 109.09375 354.476562 107.941406 C 353.648438 107.136719 353.496094 104.9375 353.234375 103.765625 C 352.382812 99.929688 350.875 96.515625 347.839844 93.941406 C 347.449219 93.609375 346.753906 94.039062 347.082031 94.527344 C 347.429688 95.054688 347.785156 95.582031 348.136719 96.117188 C 348.046875 96.132812 347.957031 96.164062 347.882812 96.25 C 343.265625 101.277344 336.507812 105.851562 330.578125 109.203125 C 325.785156 111.914062 317.90625 114.597656 312.398438 112.636719 C 312.339844 112.585938 312.269531 112.558594 312.199219 112.5625 C 311.09375 112.144531 310.089844 111.53125 309.234375 110.6875 C 309.582031 110.4375 309.757812 109.957031 309.199219 109.617188 C 308.234375 109.023438 307.570312 107.117188 307.136719 106.128906 C 306.84375 105.460938 306.59375 104.773438 306.316406 104.101562 C 307.742188 103.90625 309.273438 103.070312 310.582031 102.105469 C 314.730469 100.972656 318.914062 98.570312 320.578125 94.519531 C 322.742188 89.257812 320.519531 81.558594 319.425781 76.230469 C 318.664062 72.527344 317.738281 68.859375 316.644531 65.238281 C 315.867188 62.660156 315.289062 58.910156 313.664062 56.675781 C 311.972656 54.347656 308.332031 55.035156 305.367188 56.136719 C 305.140625 56.058594 304.910156 56.003906 304.671875 55.992188 C 302.914062 55.910156 300.269531 57.660156 298.828125 58.515625 C 298.601562 58.648438 298.394531 58.804688 298.175781 58.945312 C 298.105469 58.929688 298.027344 58.917969 297.9375 58.941406 Z M 316.207031 87.226562 C 315.390625 80.246094 313.253906 73.136719 310.898438 66.542969 C 310.132812 64.402344 308.808594 58.832031 306.429688 56.777344 C 307.703125 56.515625 308.980469 56.402344 310.175781 56.628906 C 313.136719 57.191406 313.488281 59.941406 314.335938 62.519531 C 315.851562 67.136719 317.101562 71.84375 318.078125 76.605469 C 319.054688 81.375 320.582031 86.789062 319.984375 91.65625 C 319.460938 95.957031 316.546875 98.078125 313.214844 99.757812 C 316.316406 96.328125 316.726562 91.660156 316.207031 87.226562 Z M 302.878906 99.75 C 300.3125 96.714844 298.792969 91.957031 297.535156 88.285156 C 296.289062 84.640625 295.339844 80.902344 294.527344 77.140625 C 293.769531 73.609375 291.34375 66.800781 293.894531 63.410156 C 294.472656 62.929688 295.058594 62.460938 295.65625 62.007812 C 295.816406 61.933594 295.984375 61.863281 296.164062 61.800781 C 296.308594 61.75 296.375 61.613281 296.363281 61.484375 C 298.046875 60.269531 299.816406 59.191406 301.765625 58.324219 C 305.25 56.769531 305.953125 58.109375 307.273438 61.105469 C 308.324219 63.5 309.246094 65.957031 310.085938 68.433594 C 312.566406 75.777344 316.394531 85.859375 314.726562 93.6875 C 313.636719 98.785156 307.488281 105.210938 302.878906 99.75 Z M 308.472656 111.492188 C 308.4375 111.503906 308.394531 111.515625 308.355469 111.53125 C 308.375 111.5 308.394531 111.46875 308.414062 111.433594 C 308.4375 111.453125 308.457031 111.472656 308.472656 111.492188 Z M 205.1875 42.160156 C 207.097656 40.214844 208.953125 39.453125 211.183594 39.054688 C 216.617188 40.507812 221.980469 42.253906 227.210938 44.339844 C 228.152344 44.710938 229.085938 45.101562 230.023438 45.496094 C 231.019531 49.917969 229.144531 54.46875 225.195312 57.308594 C 223.988281 58.175781 222.691406 58.832031 221.34375 59.3125 C 221.304688 59.25 221.234375 59.203125 221.148438 59.214844 C 214.257812 60.160156 204.511719 60.425781 202.414062 52.066406 C 201.484375 48.394531 202.574219 44.824219 205.1875 42.160156 Z M 41.6875 124.980469 C 48.457031 107.398438 58.816406 91.210938 71.917969 77.636719 C 85.003906 64.054688 100.8125 53.074219 118.191406 45.644531 C 135.558594 38.199219 154.445312 34.3125 173.398438 34.195312 C 180.929688 34.132812 188.476562 34.695312 195.933594 35.835938 C 192.550781 39.617188 192.660156 45.632812 194.152344 50.335938 C 196.359375 57.289062 202.082031 60.644531 208.9375 61.960938 C 215.75 63.269531 223.445312 62.511719 228.5 57.28125 C 231.402344 54.277344 232.609375 50.078125 231.738281 46.246094 C 247.097656 52.976562 261.289062 62.410156 273.511719 73.960938 C 285.847656 85.589844 296.191406 99.695312 303.796875 115.175781 C 300.253906 118.851562 297.210938 123.363281 294.34375 127.230469 C 293.761719 128.019531 293.207031 128.824219 292.640625 129.621094 C 292.632812 129.625 292.632812 129.625 292.625 129.625 C 288.933594 131.203125 285.320312 132.914062 281.710938 134.632812 C 272.398438 138.445312 262.988281 141.578125 253.316406 143.773438 C 253.378906 143.042969 253.402344 142.308594 253.34375 141.582031 C 253.339844 141.542969 253.28125 141.542969 253.28125 141.582031 C 253.230469 142.34375 253.152344 143.085938 253.066406 143.832031 C 252.296875 144.003906 251.523438 144.171875 250.746094 144.335938 C 251.222656 142.097656 251.523438 139.824219 251.675781 137.605469 C 251.6875 137.421875 251.402344 137.386719 251.355469 137.5625 C 250.75 139.878906 250.175781 142.253906 249.519531 144.582031 C 241.757812 146.132812 233.8125 147.078125 225.597656 147.253906 C 225.175781 147.261719 224.917969 147.523438 224.765625 147.886719 C 224.320312 148.941406 223.84375 149.988281 223.378906 151.035156 C 223.019531 150.570312 222.691406 150.085938 222.390625 149.597656 C 221.824219 148.675781 221.316406 147.699219 220.851562 146.699219 C 219.921875 144.175781 219.21875 141.550781 218.867188 138.929688 C 217.894531 131.71875 220.390625 124.625 226.59375 120.609375 C 226.851562 120.558594 227.101562 120.523438 227.355469 120.515625 C 227.542969 120.507812 227.535156 120.246094 227.355469 120.230469 C 222.738281 119.808594 218.238281 125.058594 216.410156 128.851562 C 213.804688 134.242188 215.144531 140.621094 217.554688 145.828125 C 217.621094 145.964844 217.835938 145.863281 217.796875 145.722656 C 217.726562 145.457031 217.660156 145.1875 217.589844 144.914062 C 218.691406 148.019531 220.273438 150.953125 222.292969 153.507812 C 221.609375 155.007812 220.890625 156.488281 220.171875 157.96875 C 217.867188 156.128906 215.773438 154.019531 213.167969 152.589844 C 213.050781 152.527344 212.90625 152.691406 213.015625 152.78125 C 215.296875 154.625 217.460938 156.828125 219.816406 158.714844 C 217.734375 162.945312 215.519531 167.113281 213.144531 171.203125 C 213.027344 171.40625 213.007812 171.671875 213.070312 171.910156 C 213.027344 172.027344 213.058594 172.152344 213.195312 172.199219 C 213.304688 172.363281 213.46875 172.488281 213.679688 172.519531 C 222.734375 173.925781 231.695312 175.984375 240.429688 178.75 C 249.269531 181.992188 257.574219 186.460938 264.46875 192.660156 C 264.3125 192.710938 264.214844 192.882812 264.3125 193.035156 C 256.738281 196.765625 249.730469 201.890625 242.335938 205.964844 C 239.457031 207.546875 236.558594 209.054688 233.640625 210.515625 C 231.109375 211.285156 228.457031 211.679688 225.808594 212.054688 C 221.300781 212.691406 216.777344 213.222656 212.269531 213.882812 C 203.515625 215.167969 194.761719 217.082031 186.652344 220.714844 C 179.714844 223.824219 173.203125 228.203125 168.714844 234.429688 C 166.894531 236.953125 165.363281 239.714844 164.078125 242.613281 C 155.832031 242.988281 147.191406 246.546875 139.941406 250.117188 C 131.667969 254.191406 123.996094 259.558594 117.449219 266.0625 C 112.972656 270.511719 108.941406 275.484375 105.5 280.832031 C 104.980469 279.992188 104.363281 279.25 103.675781 278.570312 C 108.492188 273.519531 112.617188 267.867188 117.609375 262.9375 C 123.054688 257.5625 128.875 252.621094 135.042969 248.089844 C 135.269531 247.921875 135.054688 247.535156 134.816406 247.699219 C 128.683594 251.9375 122.878906 256.609375 117.53125 261.808594 C 112.484375 266.722656 107.011719 272.175781 103.402344 278.308594 C 102.300781 277.269531 101.078125 276.320312 99.910156 275.226562 C 97.976562 273.414062 96.414062 271.316406 94.929688 269.160156 C 102.738281 260.566406 109.792969 252.082031 119.074219 244.910156 C 119.359375 244.691406 119.09375 244.199219 118.789062 244.417969 C 109.699219 250.820312 100.277344 259.03125 94.691406 268.808594 C 93.429688 266.960938 92.214844 265.082031 90.871094 263.300781 C 90.011719 261.328125 89.085938 259.371094 88.082031 257.460938 C 91.933594 252.824219 95.558594 248.117188 99.898438 243.898438 C 104.722656 239.199219 110.207031 236 115.589844 232.054688 C 116.46875 231.40625 115.710938 229.996094 114.710938 230.554688 C 109.230469 233.632812 104.351562 238.445312 99.820312 242.777344 C 95.386719 247.019531 91.054688 251.769531 87.859375 257.042969 C 85.449219 252.523438 82.570312 248.292969 78.941406 244.828125 C 85.667969 238.253906 91.945312 231.554688 99.40625 225.726562 C 99.640625 225.542969 99.332031 225.136719 99.082031 225.308594 C 91.621094 230.660156 84.019531 237.023438 78.675781 244.582031 C 76.3125 242.375 73.640625 240.484375 70.578125 239.050781 C 70.382812 238.957031 70.183594 238.867188 69.976562 238.78125 C 74.773438 231.527344 80.109375 225.453125 86.726562 219.707031 C 87.195312 219.300781 86.527344 218.679688 86.0625 219.042969 C 79.457031 224.191406 73.574219 231.171875 69.542969 238.609375 C 66.429688 237.375 62.019531 236.496094 57.957031 236.746094 C 62.589844 229.054688 67.898438 222.253906 73.777344 215.449219 C 73.949219 215.25 73.667969 214.964844 73.488281 215.160156 C 67.550781 221.535156 60.960938 228.507812 57.734375 236.761719 C 53.824219 237.039062 50.265625 238.375 48.539062 241.464844 C 47.933594 240.316406 47.339844 239.164062 46.765625 238 C 53.515625 225.234375 60.273438 213.050781 69.179688 201.550781 C 69.335938 201.347656 69.0625 201.054688 68.894531 201.261719 C 59.996094 212 51.652344 224.46875 46.570312 237.585938 C 46.054688 236.539062 45.546875 235.484375 45.058594 234.421875 C 44.226562 232.613281 43.445312 230.789062 42.695312 228.949219 C 52.414062 205.164062 67.632812 185.164062 88.796875 170.164062 C 89.078125 169.964844 88.820312 169.496094 88.515625 169.6875 C 67.488281 183.15625 50.390625 204.378906 42.378906 228.191406 C 41.046875 224.875 39.839844 221.507812 38.765625 218.09375 C 45.261719 204.253906 53.148438 191.644531 63.3125 180.019531 C 63.472656 179.832031 63.210938 179.558594 63.039062 179.742188 C 52.804688 190.535156 44.183594 203.445312 38.527344 217.296875 C 37.378906 213.574219 36.390625 209.800781 35.554688 205.996094 C 37.539062 201.417969 40.386719 197.046875 42.917969 192.976562 C 46.726562 186.851562 51.003906 181.03125 55.429688 175.34375 C 55.632812 175.078125 55.289062 174.707031 55.058594 174.96875 C 50.042969 180.617188 45.636719 186.71875 41.699219 193.164062 C 39.679688 196.464844 36.992188 200.351562 35.207031 204.375 C 34.332031 200.148438 33.65625 195.878906 33.175781 191.585938 C 34.183594 189.792969 35.34375 188.113281 35.863281 187.277344 C 37.722656 184.304688 39.875 181.542969 42.117188 178.851562 C 42.289062 178.644531 42.007812 178.34375 41.8125 178.546875 C 38.492188 182.023438 35.730469 185.957031 33.476562 190.203125 C 33.371094 190.394531 33.238281 190.625 33.089844 190.882812 C 32.8125 188.285156 32.609375 185.675781 32.476562 183.066406 C 34.613281 179.503906 37.136719 176.277344 40.335938 173.304688 C 40.542969 173.113281 40.246094 172.835938 40.03125 173.003906 C 37.070312 175.378906 34.433594 178.339844 32.414062 181.648438 C 32.394531 181.207031 32.371094 180.765625 32.359375 180.324219 C 32.265625 177.550781 32.265625 174.777344 32.335938 172 C 36.050781 165.875 39.902344 159.949219 44.660156 154.457031 C 50.601562 147.601562 57.351562 141.617188 64.617188 136.210938 C 64.847656 136.042969 64.636719 135.65625 64.390625 135.824219 C 51.746094 144.417969 39.941406 156.507812 32.386719 170.199219 C 32.992188 154.75 36.109375 139.402344 41.6875 124.980469 Z M 75.871094 284.210938 C 79.109375 287.109375 82.492188 289.84375 85.980469 292.4375 C 85.867188 292.523438 85.746094 292.597656 85.628906 292.683594 C 85.527344 292.59375 85.394531 292.554688 85.257812 292.609375 C 80.980469 294.300781 77.148438 296.816406 73.128906 299.015625 C 68.320312 300.78125 63.496094 301.933594 58.074219 300.433594 C 50.804688 298.417969 47.066406 291.238281 44.9375 284.511719 C 41.417969 273.417969 42.675781 260.945312 48.113281 250.679688 C 55.632812 263.15625 65.015625 274.503906 75.871094 284.210938 Z M 90.292969 289.640625 C 85.925781 286.460938 81.726562 283.050781 77.753906 279.382812 C 71.953125 274.039062 66.609375 268.203125 61.78125 261.96875 C 61.828125 261.597656 61.890625 261.257812 61.976562 260.949219 C 63.234375 257.847656 69.4375 260.199219 70.972656 261.085938 C 72.210938 261.800781 73.328125 262.828125 74.386719 263.777344 C 76.253906 265.453125 78.007812 267.238281 79.988281 268.785156 C 82.429688 270.6875 85.339844 272.769531 88.371094 274.179688 C 89 274.652344 89.628906 275.125 90.25 275.609375 C 92.628906 277.46875 94.925781 279.511719 96.480469 282.144531 C 97.085938 283.167969 97.597656 284.648438 97.828125 286.195312 C 95.238281 287.0625 92.714844 288.238281 90.292969 289.640625 Z M 99.242188 285.761719 C 99.253906 284.054688 98.828125 282.292969 97.859375 280.566406 C 96.640625 278.394531 94.992188 276.640625 93.175781 275.042969 C 93.15625 274.96875 93.121094 274.898438 93.050781 274.832031 C 92.378906 274.21875 91.648438 273.675781 90.902344 273.160156 C 87.082031 270.152344 82.984375 267.386719 80.605469 262.882812 C 78.914062 259.679688 77.609375 256.207031 75.019531 253.585938 C 72.746094 251.285156 69.613281 249.75 66.65625 248.539062 C 62.304688 246.75 56.359375 246.132812 53.59375 250.226562 C 52.117188 247.859375 50.707031 245.449219 49.371094 243 C 55.296875 236.027344 68 239.984375 74.359375 244.613281 C 83.121094 250.996094 87.941406 260.398438 93.113281 269.59375 C 93.195312 269.738281 93.4375 269.644531 93.394531 269.488281 C 95.039062 272.1875 97.015625 274.6875 99.359375 276.773438 C 101.421875 278.609375 103.402344 280.160156 104.574219 282.308594 C 104.050781 283.164062 103.539062 284.027344 103.046875 284.898438 C 101.761719 285.09375 100.496094 285.398438 99.242188 285.761719 Z M 221.570312 323.207031 C 212.132812 327.894531 202.21875 329.625 191.792969 330.082031 C 193.902344 327.46875 196.070312 324.589844 197.09375 321.460938 C 197.230469 321.046875 196.679688 320.761719 196.386719 321.046875 C 193.578125 323.777344 191.402344 327.191406 188.644531 330.007812 C 185.957031 332.75 183.203125 335.394531 180.199219 337.78125 C 173.742188 342.917969 166.578125 347.09375 158.996094 350.339844 C 150.871094 353.816406 142.285156 356.300781 133.675781 358.261719 C 125.394531 360.140625 115.652344 363.140625 107.347656 360.078125 C 106.851562 359.894531 106.554688 360.65625 106.996094 360.914062 C 112.988281 364.40625 120.359375 363.410156 127.117188 362.191406 C 125.90625 362.851562 124.699219 363.503906 123.457031 364.050781 C 119.652344 365.730469 115.703125 367.070312 111.714844 368.234375 C 103.785156 370.542969 95.519531 371.546875 87.269531 371.15625 C 79.375 370.78125 71.535156 369.144531 64.132812 366.382812 C 56.226562 363.429688 49.566406 359.007812 42.402344 354.695312 C 41.847656 354.359375 41.316406 355.113281 41.730469 355.570312 C 45.65625 359.929688 50.925781 363.414062 56.34375 366.148438 C 49.5 364.625 42.613281 363.097656 36.484375 359.765625 C 32.070312 357.363281 28.007812 354.121094 24.0625 351.03125 C 20.328125 348.105469 16.726562 344.859375 14.085938 340.878906 C 8.433594 332.339844 6.90625 320.769531 6.6875 310.746094 C 6.570312 305.414062 6.96875 300.105469 7.8125 294.839844 C 8.316406 291.710938 9.1875 288.625 9.886719 285.527344 C 10.757812 296.195312 13.511719 306.722656 18.394531 316.085938 C 18.597656 316.476562 19.253906 316.207031 19.109375 315.785156 C 13.1875 298.359375 10.445312 280.371094 13.675781 262.066406 C 15.167969 253.589844 17.824219 245.316406 21.570312 237.566406 C 24.953125 230.574219 29.285156 224.335938 33.570312 217.925781 C 35.757812 225.160156 38.5 232.222656 41.796875 239.023438 C 43.519531 242.589844 45.398438 246.074219 47.40625 249.480469 C 39.210938 260.320312 38.179688 275.226562 43.003906 287.855469 C 45.488281 294.347656 49.601562 301.125 56.761719 303.023438 C 56.113281 302.980469 55.46875 302.917969 54.820312 302.828125 C 43.800781 301.3125 36.628906 293.730469 31.992188 284.183594 C 31.816406 283.820312 31.347656 284.101562 31.394531 284.433594 C 32.949219 295.214844 42.941406 303.613281 53.234375 305.59375 C 62.996094 307.472656 71.136719 303.925781 78.632812 298.730469 C 77.859375 299.511719 77.105469 300.308594 76.394531 301.109375 C 69.375 309.003906 63.351562 319.617188 63.128906 330.429688 C 63.113281 331.121094 64.121094 331.234375 64.316406 330.589844 C 67.441406 320.269531 71.128906 310.714844 78.441406 302.546875 C 81.296875 299.351562 84.519531 296.441406 87.996094 293.914062 C 88.058594 293.960938 88.121094 294.007812 88.1875 294.054688 C 88.625 293.625 89.089844 293.222656 89.558594 292.824219 C 89.796875 292.660156 90.035156 292.492188 90.277344 292.332031 C 94.144531 289.796875 98.203125 288.027344 102.347656 286.144531 C 97.671875 294.757812 94.542969 304.1875 93.582031 313.953125 C 93.535156 314.417969 94.273438 314.5 94.382812 314.0625 C 97.078125 303.511719 101.027344 293.292969 106.597656 284.050781 C 106.648438 284.039062 106.703125 284.027344 106.753906 284.015625 C 106.746094 283.960938 106.730469 283.90625 106.71875 283.847656 C 110.21875 278.074219 114.355469 272.675781 119.226562 267.824219 C 125.398438 261.675781 132.449219 256.445312 140.132812 252.351562 C 144.085938 250.246094 148.210938 248.445312 152.433594 246.957031 C 156.113281 245.664062 159.925781 244.824219 163.632812 243.671875 C 161.789062 248.09375 160.511719 252.78125 159.707031 257.375 C 159.617188 257.890625 160.320312 258.09375 160.496094 257.589844 C 163.324219 249.484375 165.957031 241.511719 171.9375 235.101562 C 177.460938 229.179688 184.433594 224.953125 191.988281 222.136719 C 200.222656 219.066406 208.898438 217.5 217.492188 215.800781 C 220.324219 215.238281 223.351562 214.746094 226.335938 214.058594 C 223.746094 215.289062 221.140625 216.496094 218.523438 217.703125 C 218.027344 217.929688 218.394531 218.640625 218.875 218.539062 C 227.5625 216.710938 236.003906 212.601562 243.570312 208.0625 C 250.78125 203.742188 258.460938 199.101562 264.792969 193.476562 C 269.46875 197.710938 274.386719 201.488281 278.816406 205.9375 C 279.269531 206.398438 279.710938 206.863281 280.160156 207.328125 C 280.664062 207.867188 281.164062 208.402344 281.652344 208.960938 C 284.269531 211.972656 286.648438 215.175781 289.132812 218.292969 C 290.738281 220.300781 292.296875 222.589844 293.984375 224.703125 C 291.078125 227.007812 288.445312 229.875 285.953125 232.527344 C 282.847656 235.839844 279.949219 239.378906 277.226562 243.011719 C 272.46875 249.355469 267.535156 256.191406 264.277344 263.542969 C 264.714844 258.542969 265.304688 253.753906 267.503906 249.039062 C 267.609375 248.8125 267.3125 248.632812 267.164062 248.84375 C 263.929688 253.492188 263.28125 258.9375 262.21875 264.367188 C 261.28125 269.160156 260.1875 273.929688 258.753906 278.597656 C 255.792969 288.210938 251.148438 297.359375 244.765625 305.164062 C 238.515625 312.804688 230.371094 318.835938 221.570312 323.207031 Z M 275.011719 272.980469 C 269.929688 278.289062 264.421875 283.183594 258.582031 287.636719 C 259.710938 284.921875 260.695312 282.160156 261.527344 279.371094 C 262.710938 275.398438 263.578125 271.292969 263.964844 267.160156 C 269.070312 259.714844 273.222656 251.707031 278.613281 244.425781 C 281.4375 240.613281 284.414062 236.941406 287.441406 233.296875 C 289.6875 230.585938 292.234375 228.046875 294.46875 225.308594 C 295.394531 226.429688 296.367188 227.480469 297.410156 228.402344 C 297.429688 229.507812 297.777344 230.644531 298.027344 231.660156 C 298.515625 233.636719 299.035156 235.601562 299.566406 237.570312 C 293.144531 250.730469 284.738281 262.863281 275.011719 272.980469 Z M 338.945312 264.949219 C 337.3125 266.1875 334.644531 266.847656 332.757812 267.65625 C 330.269531 268.722656 327.773438 269.761719 325.269531 270.777344 C 320.96875 272.523438 316.632812 274.1875 312.285156 275.804688 C 312.1875 275.433594 312.085938 275.058594 311.988281 274.6875 C 310.996094 267.167969 308.757812 259.679688 306.839844 252.378906 C 305.769531 248.292969 304.621094 244.230469 303.546875 240.148438 C 302.679688 236.855469 299.890625 230.234375 301.867188 226.742188 C 302.132812 226.769531 302.328125 226.640625 302.441406 226.4375 C 321.085938 222.183594 338.671875 215.007812 355.242188 205.855469 C 353.136719 208.300781 351.246094 210.964844 349.625 213.570312 C 346.695312 218.28125 345.347656 224.050781 343.882812 229.347656 C 340.878906 240.21875 338.757812 251.933594 340.285156 263.230469 C 339.976562 263.902344 339.550781 264.496094 338.945312 264.949219 Z M 338.945312 264.949219 " fill-opacity="1" fill-rule="nonzero"/></g><path fill="#fffbeb" d="M 402.78125 103.953125 C 405.507812 99.53125 408.140625 94.644531 410.167969 89.863281 C 410.230469 89.722656 410.042969 89.605469 409.960938 89.742188 C 407.175781 94.125 404.660156 99.078125 402.574219 103.832031 C 402.511719 103.972656 402.699219 104.089844 402.78125 103.953125 Z M 402.78125 103.953125 " fill-opacity="1" fill-rule="nonzero"/><path fill="#fffbeb" d="M 406.449219 103.988281 C 408.300781 100.019531 410.515625 96.332031 412.738281 92.570312 C 412.828125 92.417969 412.613281 92.308594 412.515625 92.4375 C 409.851562 95.882812 407.832031 99.859375 406.175781 103.871094 C 406.109375 104.027344 406.375 104.140625 406.449219 103.988281 Z M 406.449219 103.988281 " fill-opacity="1" fill-rule="nonzero"/><path fill="#fffbeb" d="M 409.660156 104.933594 C 412.078125 102.125 414.148438 98.992188 415.613281 95.578125 C 415.6875 95.40625 415.449219 95.25 415.355469 95.425781 C 413.609375 98.699219 411.71875 101.828125 409.46875 104.785156 C 409.386719 104.898438 409.570312 105.039062 409.660156 104.933594 Z M 409.660156 104.933594 " fill-opacity="1" fill-rule="nonzero"/><path fill="#fffbeb" d="M 279.621094 188.425781 C 279.550781 188.375 279.46875 188.484375 279.53125 188.542969 C 285.746094 194.382812 291.296875 200.472656 296.003906 207.621094 C 296.039062 207.679688 296.136719 207.625 296.101562 207.5625 C 291.835938 200.34375 286.28125 193.5625 279.621094 188.425781 Z M 279.621094 188.425781 " fill-opacity="1" fill-rule="nonzero"/><path fill="#fffbeb" d="M 290.765625 197.910156 C 290.820312 197.988281 290.949219 197.917969 290.894531 197.835938 C 289.6875 195.945312 288.183594 194.070312 286.320312 192.792969 C 286.265625 192.757812 286.207031 192.835938 286.25 192.878906 C 287.867188 194.496094 289.441406 196.027344 290.765625 197.910156 Z M 290.765625 197.910156 " fill-opacity="1" fill-rule="nonzero"/></svg>