<svg xmlns="http://www.w3.org/2000/svg" xmlns:xlink="http://www.w3.org/1999/xlink" width="1920" zoomAndPan="magnify" viewBox="0 0 1440 809.999993" height="1080" preserveAspectRatio="xMidYMid meet" version="1.0"><defs><clipPath id="9e82c60383"><path d="M 702 313 L 738 313 L 738 365 L 702 365 Z M 702 313 " clip-rule="nonzero"/></clipPath><clipPath id="707a823af9"><path d="M 701.335938 363.386719 L 702.390625 313.148438 L 738.382812 313.902344 L 737.328125 364.140625 Z M 701.335938 363.386719 " clip-rule="nonzero"/></clipPath><clipPath id="30c75c4096"><path d="M 700.585938 399.195312 L 702.378906 313.714844 L 738.371094 314.46875 L 736.578125 399.949219 Z M 700.585938 399.195312 " clip-rule="nonzero"/></clipPath></defs><path fill="#fffbeb" d="M 798.667969 410.898438 C 798.046875 409.898438 797.839844 409.027344 798.15625 407.851562 C 800.039062 400.820312 801.855469 393.769531 803.652344 386.714844 C 806.109375 377.085938 807.023438 367.355469 804.828125 357.5625 C 799.429688 333.519531 785.671875 315.617188 764.210938 303.84375 C 742.183594 291.761719 718.753906 289.523438 694.726562 296.300781 C 671.328125 302.90625 653.140625 316.609375 641.800781 338.496094 C 634.976562 351.675781 632.019531 365.625 635.011719 380.449219 C 636.859375 389.601562 639.265625 398.613281 641.714844 407.621094 C 642.050781 408.886719 641.867188 409.777344 641.179688 410.832031 C 637.644531 416.328125 634.207031 421.902344 630.667969 427.398438 C 629.972656 428.472656 629.972656 429.226562 630.734375 430.292969 C 634.921875 436.179688 639.082031 442.101562 643.140625 448.074219 C 644.03125 449.378906 644.75 449.457031 646.101562 448.804688 C 663.699219 440.347656 681.328125 431.957031 698.957031 423.554688 C 699.394531 423.347656 699.839844 422.835938 700.765625 423.425781 C 700.339844 423.695312 699.960938 423.882812 699.65625 424.152344 C 693.703125 429.476562 687.78125 434.820312 681.785156 440.097656 C 680.742188 441.011719 680.25 441.804688 680.75 443.230469 C 681.285156 444.765625 681.554688 446.398438 681.914062 447.988281 C 682.929688 452.472656 684.046875 456.933594 684.527344 462.070312 C 682.472656 459.75 680.761719 457.824219 678.757812 455.5625 C 678.757812 466.292969 678.757812 476.523438 678.757812 486.742188 C 678.757812 487.144531 678.757812 487.558594 679.183594 487.820312 C 682.144531 489.679688 685.105469 491.539062 688.304688 493.542969 C 688.304688 487.570312 688.304688 481.976562 688.304688 476.390625 C 688.304688 475.792969 688.019531 475.054688 688.488281 474.605469 C 690.992188 472.257812 693.550781 469.960938 695.976562 467.75 C 695.976562 468.6875 695.976562 469.972656 695.976562 471.253906 C 695.976562 479.992188 695.964844 488.734375 695.976562 497.472656 C 695.976562 498.191406 695.738281 499.007812 696.542969 499.519531 C 699.578125 501.421875 702.625 503.316406 705.683594 505.230469 C 706.152344 504.457031 706 503.761719 706 503.109375 C 706 496.011719 706.164062 488.90625 705.921875 481.8125 C 705.824219 478.753906 706.664062 476.457031 708.871094 474.445312 C 710.429688 473.027344 711.800781 471.398438 713.574219 469.523438 L 713.574219 471.972656 C 713.574219 487.265625 713.605469 502.554688 713.550781 517.84375 C 713.550781 519.378906 713.945312 519.835938 715.480469 519.769531 C 718.339844 519.640625 721.226562 519.574219 724.074219 519.78125 C 726.164062 519.933594 726.503906 519.152344 726.492188 517.269531 C 726.425781 502.109375 726.46875 486.960938 726.492188 471.800781 C 726.492188 471.234375 726.210938 470.589844 726.851562 469.972656 C 728.746094 472.058594 730.582031 474.148438 732.5 476.175781 C 733.359375 477.078125 733.695312 478.023438 733.695312 479.277344 C 733.652344 486.785156 733.675781 494.292969 733.675781 501.804688 C 733.675781 502.933594 733.675781 504.054688 733.675781 505.472656 C 736.777344 503.523438 739.5625 501.707031 742.425781 500.039062 C 743.632812 499.332031 744.035156 498.515625 744.023438 497.125 C 743.96875 487.632812 744.003906 478.144531 744.023438 468.652344 C 744.023438 468.175781 743.707031 467.578125 743.882812 467.46875 C 746.253906 469.644531 748.507812 471.722656 750.78125 473.78125 C 751.554688 474.476562 751.75 475.3125 751.742188 476.335938 C 751.6875 480.429688 751.71875 484.53125 751.71875 488.625 C 751.71875 490.148438 751.71875 491.671875 751.71875 493.566406 C 754.429688 491.8125 756.679688 490.167969 759.109375 488.832031 C 760.730469 487.9375 761.144531 486.804688 761.121094 485.066406 C 761.046875 476.46875 761.097656 467.859375 761.097656 459.261719 C 761.097656 458.066406 761.097656 456.867188 761.097656 455.222656 C 759.128906 457.53125 757.476562 459.480469 755.625 461.65625 C 755.300781 460.589844 755.503906 459.871094 755.59375 459.140625 C 756.234375 453.851562 757.617188 448.714844 758.835938 443.558594 C 759.21875 441.9375 758.804688 441.011719 757.703125 440.019531 C 754.65625 437.277344 751.664062 434.492188 748.636719 431.726562 C 745.601562 428.941406 742.566406 426.15625 739.53125 423.371094 C 740.976562 423.695312 742.261719 424.25 743.535156 424.859375 C 760.132812 432.785156 776.726562 440.675781 793.292969 448.671875 C 794.96875 449.476562 795.773438 449.335938 796.816406 447.757812 C 800.703125 441.914062 804.71875 436.148438 808.777344 430.421875 C 809.507812 429.386719 809.660156 428.714844 808.960938 427.605469 C 805.480469 422.0625 802.105469 416.460938 798.644531 410.910156 Z M 678.410156 419.800781 C 674.84375 421.269531 671.359375 422.980469 667.453125 423.535156 C 662.664062 424.207031 659.039062 422.367188 656.375 418.539062 C 651.300781 411.246094 649.941406 403.03125 650.746094 394.378906 C 651.257812 388.894531 652.847656 383.703125 655.820312 379.011719 C 656.503906 377.921875 657.277344 376.855469 658.148438 375.921875 C 661.0625 372.785156 663.1875 372.265625 667.082031 374.113281 C 675.808594 378.28125 684.179688 383.136719 692.601562 387.882812 C 700.90625 392.5625 709.132812 397.359375 717.394531 402.117188 C 717.6875 402.277344 717.949219 402.476562 718.449219 402.800781 C 705.03125 408.820312 691.722656 414.335938 678.402344 419.800781 Z M 737.222656 444.234375 C 735.882812 446.453125 734.785156 448.804688 733.457031 451.023438 C 731.3125 454.59375 728.746094 454.734375 726.328125 451.296875 C 724.578125 448.792969 723.140625 446.0625 721.5625 443.425781 C 721.039062 442.558594 720.550781 441.675781 719.929688 440.609375 C 718.242188 443.546875 716.675781 446.324219 715.074219 449.074219 C 714.183594 450.609375 713.257812 452.132812 711.660156 453.070312 C 709.777344 454.179688 708.480469 454.003906 707.261719 452.1875 C 705.207031 449.128906 703.410156 445.929688 701.941406 442.535156 C 700.777344 439.859375 701.886719 437.617188 703.203125 435.417969 C 707.4375 428.34375 711.679688 421.269531 715.957031 414.21875 C 716.554688 413.226562 717.230469 412.269531 718.015625 411.433594 C 719.484375 409.863281 720.929688 409.929688 722.367188 411.574219 C 723.03125 412.347656 723.617188 413.195312 724.140625 414.066406 C 728.375 421.0625 732.5 428.125 736.832031 435.058594 C 738.757812 438.148438 739.148438 441.042969 737.234375 444.222656 Z M 784.09375 417.230469 C 780.015625 423.589844 775.628906 425.242188 768.597656 422.46875 C 759.054688 418.703125 749.628906 414.632812 740.160156 410.648438 C 734.644531 408.332031 729.160156 405.945312 723.664062 403.574219 C 723.074219 403.324219 722.390625 403.203125 721.886719 402.539062 C 733.75 395.378906 745.808594 388.6875 757.890625 382.046875 C 762.417969 379.554688 766.964844 377.097656 771.570312 374.734375 C 777 371.949219 779.621094 372.667969 783.171875 377.683594 C 790.832031 388.523438 791.246094 406.066406 784.085938 417.222656 Z M 784.09375 417.230469 " fill-opacity="1" fill-rule="nonzero"/><g clip-path="url(#9e82c60383)"><g clip-path="url(#707a823af9)"><g clip-path="url(#30c75c4096)"><path fill="#1a1a1a" d="M 720.375 313.984375 L 702.003906 331.605469 L 715.5 331.886719 L 714.085938 399.371094 L 723.082031 399.5625 L 724.496094 332.074219 L 737.996094 332.359375 Z M 720.375 313.984375 " fill-opacity="1" fill-rule="nonzero"/></g></g></g></svg>